<svg xmlns="http://www.w3.org/2000/svg" width="256" height="256" viewBox="0 0 100 100"><rect width="100" height="100" rx="50" fill="#b8e986"></rect><path d="M50.75 23.25Q61.05 23.25 66.55 28.40Q72.05 33.55 72.05 43.65L72.05 43.65L72.05 76.25L65.25 76.25L65.25 68.05Q62.85 72.15 58.20 74.45Q53.55 76.75 47.15 76.75L47.15 76.75Q38.35 76.75 33.15 72.55Q27.95 68.35 27.95 61.45L27.95 61.45Q27.95 54.75 32.80 50.65Q37.65 46.55 48.25 46.55L48.25 46.55L64.95 46.55L64.95 43.35Q64.95 36.55 61.15 33Q57.35 29.45 50.05 29.45L50.05 29.45Q45.05 29.45 40.45 31.10Q35.85 32.75 32.55 35.65L32.55 35.65L29.35 30.35Q33.35 26.95 38.95 25.10Q44.55 23.25 50.75 23.25L50.75 23.25ZM48.25 71.15Q54.25 71.15 58.55 68.40Q62.85 65.65 64.95 60.45L64.95 60.45L64.95 51.85L48.45 51.85Q34.95 51.85 34.95 61.25L34.95 61.25Q34.95 65.85 38.45 68.50Q41.95 71.15 48.25 71.15L48.25 71.15Z" fill="#f8e71c"></path></svg>