<?xml version="1.0" encoding="UTF-8"?>
<svg id="Layer_7" data-name="Layer 7" xmlns="http://www.w3.org/2000/svg" viewBox="0 0 973.06 1045.51">
  <defs>
    <style>
      .cls-1, .cls-2, .cls-3, .cls-4 {
        stroke-miterlimit: 10;
      }

      .cls-1, .cls-3 {
        stroke: #000;
      }

      .cls-5 {
        fill: #fff;
      }

      .cls-6, .cls-2 {
        fill: #333;
      }

      .cls-7 {
        fill: #bef4c2;
      }

      .cls-8 {
        fill: #d8ccd7;
      }

      .cls-9 {
        fill: #841618;
      }

      .cls-2 {
        stroke: #333;
      }

      .cls-2, .cls-3 {
        stroke-width: 4px;
      }

      .cls-3 {
        fill: #7ac943;
      }

      .cls-4 {
        stroke: #df2b00;
        stroke-width: 2px;
      }
    </style>
  </defs>
  <path class="cls-3" d="M116.31,563.56c-.81,35.03,1.25,129.5,53.63,221.39,101.68,178.37,299.31,182.72,321.8,182.8,29.84,.11,183.51,.66,289.62-138.11,83.31-108.96,85.9-236.6,85.81-266.07-.62-202.84-142.81-466.84-371.86-469.18-235.14-2.4-374.49,272.9-379.01,469.18Z"/>
  <path class="cls-2" d="M422.55,579.47c-4.46-25.04-18.65-89.16-61.91-139.88-13.19-15.46-35.49-40.97-70.16-50.36-13.1-3.55-55.97-15.15-86.67,16.79-41.77,43.45-31.64,136.91-28.89,162.27,9.66,89.16,56.38,184.75,127.94,212.62,14.96,5.83,65.18,25.39,99.05-11.19,45.72-49.39,25.63-162.18,20.64-190.24Z"/>
  <path class="cls-2" d="M689.85,802.52c17.9-8.99,63.34-36.14,94.66-105.52,9.55-21.14,25.22-56.85,27.17-109.55,.74-19.91,3.14-85.07-24.94-128-38.2-58.41-105.96-34.6-124.34-28.14-64.64,22.71-128.69,101.41-139,210.97-2.16,22.91-9.4,99.79,22.58,147.03,43.17,63.77,123.81,23.28,143.87,13.21Z"/>
  <path class="cls-7" d="M184.21,335.72c3.06,2.08,25.95-40.37,46.48-69.06,40.26-56.25,88.4-83.27,114.42-97.49,21.08-11.53,89.33-46,171.63-40.62,31.14,2.03,64.54,9.79,64.36,12.19-.06,.82-3.98,.49-7.15,4.06-3.83,4.32-3.61,11.01-3.58,12.19,.2,5.98,2.89,10.56,10.73,20.31,7.93,9.86,11.89,14.8,17.88,20.31,6.45,5.94,15.23,14.03,28.6,20.31,18.27,8.58,33.55,8.37,42.91,8.12,10.31-.27,21.8-.72,25.03-8.12,2.82-6.47-2.42-14.22,0-16.25,2.25-1.88,8.46,3.44,17.88,12.19,12.63,11.73,18.94,17.59,25.03,24.37,6.57,7.31,15.44,17.29,25.03,32.5,2.94,4.67,4.69,7.82,7.15,12.19,25.28,44.79,27.84,42.7,35.76,60.93,9.68,22.3,12.71,41.25,17.88,40.62,2.01-.25,3.27-3.33,3.58-4.06,2.57-6.27-1.92-13.77-7.15-24.37-7.5-15.2-2.25-7.83-10.73-24.37-30.4-59.29-60.78-97.49-60.78-97.49-7.83-9.85-17.6-22.05-32.18-36.56-32.13-31.98-61.97-49.64-75.09-56.87-13.23-7.29-45.27-23.71-89.39-32.5-46.75-9.31-83.17-5.29-92.96-4.06-16.14,2.02-51.61,7.89-92.96,28.44-41.66,20.7-67.06,45.24-100.12,77.18,0,0-41.17,39.79-71.51,93.43-4.17,7.37-7.15,16.25-7.15,16.25-1.11,3.31-5.11,15.21-3.58,16.25Z"/>
  <path class="cls-3" d="M198.68,385.69c-14.29-2.05-49.03-9.18-76.45-38.89-8.5-9.21-31.74-34.39-32.13-75.24-.18-19.09,5.8-14.3,12.78-55.06,5.02-29.34,8.31-48.52,8.18-74.98-.09-18.68-.52-21.62,2.62-28.17,7.2-15.03,25.75-26.84,45.32-25.61,16.42,1.04,27.07,10.85,30.94,14.42,2.06,1.9,22.05,20.79,17.74,40.17-2.35,10.58-9.39,13.92-25.15,26.53,0,0-26.43,22.85-42.32,55.04-4.3,8.71-16.11,32.63-12.78,55.06,4.47,30.1,41.39,52.9,86.43,59.55"/>
  <path class="cls-5" d="M560.66,545.44c-1.19-.88,9.97-33.18,35.76-60.93,16.23-17.47,32.03-26.44,42.91-32.5,24.56-13.68,45.06-17.91,57.21-20.31,21.72-4.29,34.7-6.66,50.06,0,14.94,6.48,23.11,17.59,25.03,20.31,7.35,10.42,9.14,19.97,10.73,28.44,.29,1.52,.64,3.69,0,4.06-1.81,1.05-7.2-14.48-17.88-24.37-12.27-11.37-27.75-11.78-42.91-12.19-13.24-.35-23.01,1.92-32.18,4.06-3.74,.87-21.26,5.09-42.91,16.25-14.08,7.26-24.09,14.45-32.18,20.31-8.56,6.2-16.38,11.87-25.03,20.31-19.68,19.21-27.69,37.23-28.6,36.56Z"/>
  <path class="cls-6" d="M540.15,721.64c-.82-3.02-3.68-15.59,14.21-43.58,3.21-5.02,56.99-86.28,144.73-82.36,20,.89,49.23,2.2,60.78,24.37,14.86,28.53-10.38,70.82-14.3,77.18-38.59,62.55-118.18,57.73-132.3,56.87-13.09-.79-65.34-3.96-73.13-32.49Z"/>
  <path d="M543.63,736.04c-6.43,4.95,1.51,48.72,28.6,69.06,21.32,16,46.41,11.43,64.36,8.12,20.06-3.69,34.81-11.86,50.06-20.31,13.54-7.5,23.88-13.23,35.76-24.37,24.67-23.15,35.29-50.28,39.33-60.93,8.65-22.79,12.88-47.85,10.73-48.75-.47-.2-1.43,.69-7.15,12.19-15.14,30.41-15.14,35.44-21.45,44.68-7.32,10.73-15.34,15.87-28.6,24.37-14.69,9.42-27.12,13.49-35.76,16.25-9.96,3.18-29.02,8.28-53.63,8.12-18.11-.11-32.89-.2-50.06-8.12-21.27-9.82-28.22-23.36-32.18-20.31Z"/>
  <path d="M405.9,717.56c-2.16-1.13-4.82,3.55-10.73,8.12-2.82,2.19-12.95,9.43-39.33,8.12-41.72-2.07-76.71-23.17-78.66-24.37-14.72-9.07-31.85-19.63-46.48-40.62-28.35-40.69-25.87-89.79-28.6-89.37-2.05,.32-1.91,27.78,3.58,56.87,4.91,26.02,12.34,44.1,14.3,48.75,5.37,12.73,14.09,32.93,32.18,52.81,16.82,18.49,33.3,27.41,42.91,32.5,17.57,9.31,34.69,18.37,57.21,16.25,9.24-.87,29.02-2.74,42.91-20.31,14.21-17.99,15.44-46.28,10.73-48.75Z"/>
  <path class="cls-6" d="M402.32,704.79c-2.81,4.77-10.13,13.25-39.33,12.77-17.03-.28-109.07-1.77-143.02-83.01-10.55-25.23-21.84-73.35-3.58-95.79,24.15-29.68,87.05,1.51,117.99,25.54,4.66,3.62,27.35,21.64,46.48,55.34,8.04,14.16,35.14,61.9,21.45,85.14Z"/>
  <path class="cls-5" d="M269.74,394.46c25,3.6,48.06,18.75,51.36,20.96,17.86,11.94,29.13,24.79,36.69,33.53,5.15,5.96,23.01,27.23,36.69,58.68,1.83,4.2,8.66,20.27,11.01,41.91,.23,2.09,1.32,12.21,0,12.57-1.76,.48-4.65-17.26-14.67-37.72-6.52-13.31-13.33-22.19-22.01-33.53-6.71-8.76-13.03-15.62-25.68-29.34-15.86-17.2-23.9-25.88-29.35-29.34-8.84-5.62-19.35-7.93-40.36-12.57-21.23-4.69-32.01-6.97-40.36-4.19-17.92,5.97-26.57,23.41-29.35,20.96-2.13-1.89,1.86-13.1,7.34-20.96,7.19-10.31,16.68-14.44,22.01-16.76,6.41-2.79,11.66-3.69,14.67-4.19,2.36-.39,10.67-1.63,22.01,0Z"/>
  <path class="cls-4" d="M327.17,841.06c-8.75,2.31-7.57,15.93,0,26.11,3.15,4.24,11.62,13.54,48.1,26.11,28.73,9.9,50.62,17.45,84.18,19.58,60.78,3.87,104.86-13.51,120.25-19.58,0,0,26.45-10.43,36.08-26.11,1.35-2.21,2.44-4.86,0-6.53-4.62-3.17-18.99-.82-24.05,0-13.94,2.27-23.17,6.16-24.05,6.53-22.92,9.6-58.33,12.09-72.15,13.06-17.74,1.24-53.23,3.73-84.18-6.53-10.87-3.6-12.67-5.96-60.13-26.11-11.52-4.89-18.84-7.91-24.05-6.53Z"/>
  <path class="cls-1" d="M421.11,785.18c-6.8,4.4,5.21,29.81,9.68,37.94,1.32,2.4,4.15,7.25,9.68,9.49,2.79,1.13,7.68,2.17,9.68,0,1.39-1.52,.43-3.59,0-9.49-.38-5.29,.18-6.5,0-9.49-.61-9.94-8.19-17.49-9.68-18.97-4.33-4.31-14.79-12.43-19.35-9.49Z"/>
  <path class="cls-1" d="M465.71,832.12c3.28,4.31,16.36,4.11,25.73,0,4.95-2.17,7.59-4.96,12.86-10.54,4.74-5.02,10.09-12.01,12.86-21.09,1.39-4.56,2.53-8.47,0-10.54-.8-.65-3.11-2.07-12.86,0-9.02,1.91-18.22,3.87-25.73,10.54-9.33,8.31-12.86,21.09-12.86,21.09h0s-2.55,7.19,0,10.54Z"/>
  <g>
    <path class="cls-9" d="M383.92,865.84c-.01,4.89-.02,9.78,.12,14.67,2.22-3.76,4.25-7.62,6.08-11.59"/>
    <path class="cls-8" d="M382.42,865.84c-.01,4.89-.02,9.78,.12,14.67,.04,1.47,2.02,2.06,2.8,.76,2.22-3.76,4.25-7.62,6.08-11.59,.34-.73,.21-1.62-.54-2.05-.65-.38-1.71-.2-2.05,.54-1.83,3.96-3.86,7.83-6.08,11.59l2.8,.76c-.14-4.89-.13-9.78-.12-14.67,0-1.93-3-1.93-3,0h0Z"/>
  </g>
  <g>
    <path class="cls-9" d="M404.31,875.87c-.01,4.89-.02,9.78,.12,14.67,2.22-3.76,4.25-7.62,6.08-11.59"/>
    <path class="cls-8" d="M402.81,875.87c-.01,4.89-.02,9.78,.12,14.67,.04,1.47,2.02,2.06,2.8,.76,2.22-3.76,4.25-7.62,6.08-11.59,.34-.73,.21-1.62-.54-2.05-.65-.38-1.71-.2-2.05,.54-1.83,3.96-3.86,7.83-6.08,11.59l2.8,.76c-.14-4.89-.13-9.78-.12-14.67,0-1.93-3-1.93-3,0h0Z"/>
  </g>
  <g>
    <path class="cls-9" d="M424.6,881.28c.86,4.81,1.72,9.63,2.73,14.41,1.52-4.09,2.83-8.26,3.92-12.48"/>
    <path class="cls-8" d="M423.16,881.68c.86,4.81,1.72,9.63,2.73,14.41,.13,.64,.82,1.1,1.45,1.1,.7,0,1.22-.48,1.45-1.1,1.51-4.09,2.82-8.26,3.92-12.48,.49-1.87-2.41-2.67-2.89-.8-1.1,4.22-2.41,8.39-3.92,12.48h2.89c-1.01-4.79-1.87-9.6-2.73-14.41-.14-.8-1.12-1.25-1.85-1.05-.84,.23-1.19,1.04-1.05,1.85h0Z"/>
  </g>
  <g>
    <path class="cls-9" d="M441.46,884.41c1.39,4.69,2.79,9.38,4.33,14.02,1.05-4.24,1.89-8.52,2.5-12.84"/>
    <path class="cls-8" d="M440.01,884.81c1.39,4.69,2.79,9.37,4.33,14.02,.45,1.34,2.52,1.51,2.89,0,1.05-4.24,1.88-8.52,2.5-12.84,.11-.8-.2-1.61-1.05-1.85-.7-.19-1.73,.24-1.85,1.05-.62,4.32-1.45,8.61-2.5,12.84h2.89c-1.54-4.64-2.94-9.33-4.33-14.02-.55-1.85-3.45-1.06-2.89,.8h0Z"/>
  </g>
  <g>
    <path class="cls-9" d="M457.49,886.07c2.12,4.41,4.25,8.81,6.52,13.14,.49-4.41,.74-8.83,.76-13.25"/>
    <path class="cls-8" d="M456.2,886.83c2.12,4.41,4.25,8.81,6.52,13.14,.31,.58,1.08,.86,1.69,.69,.68-.19,1.03-.78,1.1-1.45,.48-4.4,.74-8.82,.76-13.25,.01-1.93-2.99-1.93-3,0-.02,4.43-.28,8.85-.76,13.25l2.8-.76c-2.27-4.33-4.39-8.74-6.52-13.14-.35-.73-1.39-.92-2.05-.54-.75,.44-.89,1.32-.54,2.05h0Z"/>
  </g>
  <g>
    <path class="cls-9" d="M474.01,884.91c2.19,4.37,4.38,8.75,6.7,13.05,.3-4.35,.37-8.72,.22-13.08"/>
    <path class="cls-8" d="M472.71,885.67c2.19,4.37,4.38,8.75,6.7,13.05,.75,1.39,2.7,.64,2.8-.76,.29-4.36,.37-8.72,.22-13.08-.06-1.93-3.06-1.93-3,0,.14,4.36,.07,8.73-.22,13.08l2.8-.76c-2.32-4.3-4.52-8.68-6.7-13.05-.36-.72-1.39-.93-2.05-.54-.74,.43-.9,1.33-.54,2.05h0Z"/>
  </g>
  <g>
    <path class="cls-9" d="M419.07,902.32c-.49-4.87-.97-9.73-1.61-14.58-1.83,3.96-3.46,8.02-4.87,12.15"/>
    <path class="cls-8" d="M420.57,902.32c-.49-4.87-.98-9.73-1.61-14.58-.09-.67-.41-1.26-1.1-1.45-.6-.16-1.42,.09-1.69,.69-1.88,4.08-3.56,8.25-5.02,12.5-.26,.77,.3,1.64,1.05,1.85,.82,.23,1.58-.28,1.85-1.05,1.38-4.01,2.95-7.94,4.72-11.79l-2.8-.76c.64,4.85,1.13,9.72,1.61,14.58,.08,.81,.63,1.5,1.5,1.5,.75,0,1.58-.69,1.5-1.5h0Z"/>
  </g>
  <g>
    <path class="cls-9" d="M438.21,906.51c-.49-4.87-.97-9.73-1.61-14.58-1.83,3.96-3.46,8.02-4.87,12.15"/>
    <path class="cls-8" d="M439.71,906.51c-.49-4.87-.98-9.73-1.61-14.58-.09-.67-.41-1.26-1.1-1.45-.6-.16-1.42,.09-1.69,.69-1.88,4.08-3.56,8.25-5.02,12.5-.26,.77,.3,1.64,1.05,1.85,.82,.23,1.58-.28,1.85-1.05,1.38-4.01,2.95-7.94,4.72-11.79l-2.8-.76c.64,4.85,1.13,9.72,1.61,14.58,.08,.81,.63,1.5,1.5,1.5,.75,0,1.58-.69,1.5-1.5h0Z"/>
  </g>
  <g>
    <path class="cls-9" d="M398.42,894.86c-1.35-4.7-2.69-9.4-4.19-14.06-1.09,4.22-1.97,8.5-2.63,12.82"/>
    <path class="cls-8" d="M399.87,894.46c-1.35-4.7-2.69-9.4-4.19-14.06-.44-1.37-2.51-1.49-2.89,0-1.09,4.23-1.97,8.5-2.63,12.82-.12,.8,.2,1.61,1.05,1.85,.71,.2,1.72-.24,1.85-1.05,.66-4.31,1.54-8.59,2.63-12.82h-2.89c1.49,4.66,2.84,9.36,4.19,14.06,.53,1.85,3.43,1.07,2.89-.8h0Z"/>
  </g>
  <g>
    <path class="cls-9" d="M478.98,910.16c-1.86-4.52-3.73-9.04-5.73-13.5-.61,4.32-1.01,8.67-1.18,13.03"/>
    <path class="cls-8" d="M480.42,909.76c-1.91-4.64-3.83-9.28-5.88-13.86-.5-1.12-2.57-.89-2.74,.36-.63,4.46-1.05,8.93-1.23,13.43-.08,1.93,2.92,1.93,3,0,.17-4.23,.53-8.45,1.12-12.63l-2.74,.36c1.95,4.34,3.77,8.74,5.58,13.14,.31,.75,1,1.28,1.85,1.05,.71-.19,1.36-1.09,1.05-1.85h0Z"/>
  </g>
  <g>
    <path class="cls-9" d="M460.03,908.1c-2.56-4.17-5.12-8.33-7.82-12.41-.04,4.44,.16,8.86,.59,13.25"/>
    <path class="cls-8" d="M461.33,907.35c-2.56-4.17-5.12-8.33-7.82-12.41-.8-1.21-2.78-.78-2.8,.76-.03,4.43,.16,8.85,.59,13.25,.08,.81,.63,1.5,1.5,1.5,.75,0,1.58-.69,1.5-1.5-.43-4.41-.62-8.83-.59-13.25l-2.8,.76c2.7,4.08,5.26,8.25,7.82,12.41,1.01,1.64,3.6,.14,2.59-1.51h0Z"/>
  </g>
  <g>
    <path class="cls-9" d="M533.13,903.74c-2.62-4.13-5.25-8.26-8-12.3,.15,4.36,.52,8.72,1.11,13.04"/>
    <path class="cls-8" d="M534.42,902.98c-2.62-4.13-5.25-8.25-8-12.3-.79-1.16-2.85-.82-2.8,.76,.16,4.5,.56,8.98,1.16,13.44,.11,.8,1.14,1.24,1.85,1.05,.87-.24,1.16-1.04,1.05-1.85-.57-4.19-.91-8.41-1.06-12.64l-2.8,.76c2.75,4.04,5.38,8.17,8,12.3,1.03,1.62,3.63,.12,2.59-1.51h0Z"/>
  </g>
  <g>
    <path class="cls-9" d="M491.69,884.88c1.92,4.5,3.84,9,5.9,13.43,.56-4.33,.9-8.68,1.01-13.05"/>
    <path class="cls-8" d="M490.39,885.64c1.92,4.5,3.84,8.99,5.9,13.43,.28,.59,1.1,.85,1.69,.69,.69-.19,1.02-.78,1.1-1.45,.56-4.33,.89-8.68,1.01-13.05,.05-1.93-2.95-1.93-3,0-.12,4.36-.46,8.72-1.01,13.05l2.8-.76c-2.06-4.44-3.98-8.93-5.9-13.43-.32-.75-1.42-.91-2.05-.54-.77,.45-.86,1.3-.54,2.05h0Z"/>
  </g>
  <g>
    <path class="cls-9" d="M511.21,883.2c1.92,4.5,3.84,9,5.9,13.43,.56-4.33,.9-8.68,1.01-13.05"/>
    <path class="cls-8" d="M509.91,883.96c1.92,4.5,3.84,8.99,5.9,13.43,.28,.59,1.1,.85,1.69,.69,.69-.19,1.02-.78,1.1-1.45,.56-4.33,.89-8.68,1.01-13.05,.05-1.93-2.95-1.93-3,0-.12,4.36-.46,8.72-1.01,13.05l2.8-.76c-2.06-4.44-3.98-8.93-5.9-13.43-.32-.75-1.42-.91-2.05-.54-.77,.45-.86,1.3-.54,2.05h0Z"/>
  </g>
  <g>
    <path class="cls-9" d="M529.13,881.36c2.69,4.08,5.38,8.17,8.2,12.16-.22-4.36-.66-8.71-1.33-13.02"/>
    <path class="cls-8" d="M527.83,882.11c2.69,4.08,5.38,8.17,8.2,12.16,.39,.55,1.01,.88,1.69,.69,.61-.17,1.13-.79,1.1-1.45-.23-4.49-.7-8.97-1.38-13.42-.12-.8-1.13-1.24-1.85-1.05-.86,.24-1.17,1.04-1.05,1.85,.64,4.18,1.06,8.39,1.27,12.62l2.8-.76c-2.82-4-5.51-8.08-8.2-12.16-.45-.68-1.33-.96-2.05-.54-.67,.39-.99,1.37-.54,2.05h0Z"/>
  </g>
  <g>
    <path class="cls-9" d="M545.85,877.57c3.13,3.76,6.26,7.51,9.51,11.17-.71-4.31-1.63-8.58-2.78-12.79"/>
    <path class="cls-8" d="M544.79,878.64c3.13,3.76,6.27,7.51,9.51,11.17,.44,.49,1.27,.56,1.82,.23,.61-.36,.8-1.03,.69-1.69-.71-4.31-1.64-8.57-2.78-12.79-.5-1.86-3.4-1.07-2.89,.8,1.14,4.21,2.07,8.48,2.78,12.79l2.51-1.46c-3.25-3.66-6.38-7.41-9.51-11.17-.52-.62-1.58-.54-2.12,0-.62,.62-.52,1.5,0,2.12h0Z"/>
  </g>
  <g>
    <path class="cls-9" d="M561.24,875.56c3.69,3.21,7.38,6.42,11.18,9.5-1.29-4.24-2.81-8.41-4.53-12.47"/>
    <path class="cls-8" d="M560.18,876.62c3.69,3.21,7.38,6.42,11.18,9.5,.52,.43,1.2,.6,1.82,.23,.56-.33,.88-1.06,.69-1.69-1.33-4.36-2.9-8.63-4.68-12.83-.32-.75-1.42-.91-2.05-.54-.77,.45-.86,1.3-.54,2.05,1.67,3.95,3.12,8.01,4.38,12.11l2.51-1.46c-3.79-3.09-7.49-6.29-11.18-9.5-.61-.53-1.52-.6-2.12,0-.54,.54-.61,1.59,0,2.12h0Z"/>
  </g>
  <g>
    <path class="cls-9" d="M577.34,869.49c3.74,3.15,7.48,6.31,11.31,9.34-1.45-4.12-3.1-8.16-4.96-12.11"/>
    <path class="cls-8" d="M576.28,870.55c3.74,3.15,7.48,6.3,11.31,9.34,.53,.42,1.19,.6,1.82,.23,.54-.32,.91-1.07,.69-1.69-1.49-4.24-3.2-8.4-5.11-12.47-.34-.73-1.4-.92-2.05-.54-.75,.44-.88,1.32-.54,2.05,1.8,3.83,3.4,7.75,4.81,11.75l2.51-1.46c-3.83-3.04-7.57-6.19-11.31-9.34-.62-.52-1.51-.61-2.12,0-.54,.54-.62,1.6,0,2.12h0Z"/>
  </g>
  <g>
    <path class="cls-9" d="M570.62,892.47c-3.57-3.34-7.15-6.68-10.82-9.9,1.24,4.19,2.68,8.31,4.34,12.34"/>
    <path class="cls-8" d="M571.68,891.41c-3.57-3.34-7.15-6.68-10.82-9.9-1.07-.94-2.96-.06-2.51,1.46,1.24,4.19,2.69,8.3,4.34,12.34,.31,.75,1,1.28,1.85,1.05,.71-.19,1.36-1.09,1.05-1.85-1.65-4.04-3.1-8.16-4.34-12.34l-2.51,1.46c3.68,3.23,7.25,6.56,10.82,9.9,1.41,1.32,3.54-.8,2.12-2.12h0Z"/>
  </g>
  <g>
    <path class="cls-9" d="M346.98,851.07c-.01,4.89-.02,9.78,.12,14.67,2.22-3.76,4.25-7.62,6.08-11.59"/>
    <path class="cls-8" d="M345.48,851.07c-.01,4.89-.02,9.78,.12,14.67,.04,1.47,2.02,2.06,2.8,.76,2.22-3.76,4.25-7.62,6.08-11.59,.34-.73,.21-1.62-.54-2.05-.65-.38-1.71-.2-2.05,.54-1.83,3.96-3.86,7.83-6.08,11.59l2.8,.76c-.14-4.89-.13-9.78-.12-14.67,0-1.93-3-1.93-3,0h0Z"/>
  </g>
  <g>
    <path class="cls-9" d="M362.22,858.53c.86,4.81,1.72,9.63,2.73,14.41,1.52-4.09,2.83-8.26,3.92-12.48"/>
    <path class="cls-8" d="M360.77,858.93c.86,4.81,1.72,9.63,2.73,14.41,.13,.64,.82,1.1,1.45,1.1,.7,0,1.22-.48,1.45-1.1,1.51-4.09,2.82-8.26,3.92-12.48,.49-1.87-2.41-2.67-2.89-.8-1.1,4.22-2.41,8.39-3.92,12.48h2.89c-1.01-4.79-1.87-9.6-2.73-14.41-.14-.8-1.12-1.25-1.85-1.05-.84,.23-1.19,1.04-1.05,1.85h0Z"/>
  </g>
  <g>
    <path class="cls-9" d="M375.16,888.61c-.12-4.89-.25-9.78-.53-14.66-2.12,3.82-4.04,7.74-5.76,11.75"/>
    <path class="cls-8" d="M376.66,888.61c-.12-4.89-.25-9.78-.53-14.66-.08-1.42-2.04-2.12-2.8-.76-2.11,3.82-4.04,7.74-5.76,11.75-.32,.74-.22,1.61,.54,2.05,.63,.37,1.73,.21,2.05-.54,1.72-4.01,3.64-7.93,5.76-11.75l-2.8-.76c.28,4.88,.4,9.77,.53,14.66,.05,1.93,3.05,1.93,3,0h0Z"/>
  </g>
  <g>
    <path class="cls-9" d="M356.97,879.88c-.52-4.86-1.04-9.73-1.73-14.57-1.94,3.99-3.66,8.07-5.16,12.22"/>
    <path class="cls-8" d="M358.47,879.88c-.54-5-1.08-9.99-1.78-14.97-.18-1.27-2.21-1.46-2.74-.36-1.99,4.1-3.76,8.3-5.31,12.58-.28,.76,.31,1.64,1.05,1.85,.83,.23,1.57-.28,1.85-1.05,1.46-4.04,3.14-8,5.01-11.86l-2.74-.36c.66,4.71,1.17,9.44,1.68,14.17,.09,.81,.63,1.5,1.5,1.5,.74,0,1.59-.69,1.5-1.5h0Z"/>
  </g>
  <g>
    <path class="cls-9" d="M552.19,899.76c-2.35-4.29-4.71-8.57-7.19-12.78-.13,4.36-.04,8.73,.27,13.08"/>
    <path class="cls-8" d="M553.48,899.01c-2.35-4.29-4.71-8.57-7.19-12.78-.77-1.3-2.75-.71-2.8,.76-.13,4.36-.04,8.73,.27,13.08,.06,.81,.65,1.5,1.5,1.5,.77,0,1.56-.69,1.5-1.5-.31-4.35-.4-8.72-.27-13.08l-2.8,.76c2.49,4.21,4.84,8.5,7.19,12.78,.93,1.69,3.52,.18,2.59-1.51h0Z"/>
  </g>
  <g>
    <path class="cls-9" d="M512.73,907.16c-2.62-4.13-5.25-8.26-8-12.3,.15,4.36,.52,8.72,1.11,13.04"/>
    <path class="cls-8" d="M514.03,906.4c-2.62-4.13-5.25-8.25-8-12.3-.79-1.16-2.85-.82-2.8,.76,.16,4.5,.56,8.98,1.16,13.44,.11,.8,1.14,1.24,1.85,1.05,.87-.24,1.16-1.04,1.05-1.85-.57-4.19-.91-8.41-1.06-12.64l-2.8,.76c2.75,4.04,5.38,8.17,8,12.3,1.03,1.62,3.63,.12,2.59-1.51h0Z"/>
  </g>
  <g>
    <path class="cls-9" d="M495.69,908.1c-2.62-4.13-5.25-8.26-8-12.3,.15,4.36,.52,8.72,1.11,13.04"/>
    <path class="cls-8" d="M496.98,907.34c-2.62-4.13-5.25-8.25-8-12.3-.79-1.16-2.85-.82-2.8,.76,.16,4.5,.56,8.98,1.16,13.44,.11,.8,1.14,1.24,1.85,1.05,.87-.24,1.16-1.04,1.05-1.85-.57-4.19-.91-8.41-1.06-12.64l-2.8,.76c2.75,4.04,5.38,8.17,8,12.3,1.03,1.62,3.63,.12,2.59-1.51h0Z"/>
  </g>
  <path class="cls-3" d="M800.85,381.1c7.45-.22,47.39-2.13,71.69-33.55,4.21-5.44,18.54-24.61,16.56-53.54-1.8-26.26-17.06-60.97-40.57-70.56-5.16-2.1-12.78-3.84-22.2-10.68-2.87-2.08-11.51-8.89-16.19-19.57-7.35-16.76-4.56-42.79,13.07-55.32,14.28-10.15,34.11-8.45,47.23-1.09,26.47,14.84,30.39,55.38,33.02,82.53,1.74,17.97-.78,16.79,1.56,29.35,6.5,34.8,28.03,43.03,28.47,66.7,.45,24.12-11.63,40.6-21.93,54.23-30.45,40.27-74.6,53.74-93.07,57.95"/>
</svg>