<?xml version="1.0" encoding="UTF-8"?>
<svg id="Layer_2" data-name="Layer 2" xmlns="http://www.w3.org/2000/svg" viewBox="0 0 253.09 219.01">
  <defs>
    <style>
      .cls-1, .cls-2, .cls-3 {
        stroke-miterlimit: 10;
      }

      .cls-1, .cls-3 {
        stroke: #000;
      }

      .cls-4 {
        fill: #fff;
      }

      .cls-5, .cls-2 {
        fill: #333;
      }

      .cls-6 {
        fill: #b93100;
      }

      .cls-7 {
        fill: #bef4c2;
      }

      .cls-2 {
        stroke: #333;
      }

      .cls-2, .cls-3 {
        stroke-width: 4px;
      }

      .cls-3 {
        fill: #7ac943;
      }
    </style>
  </defs>
  <g id="Layer_1-2" data-name="Layer 1-2">
    <g>
      <path class="cls-3" d="M30.85,114.74c-.21,8.06,.32,29.8,13.68,50.95,25.94,41.05,76.35,42.05,82.09,42.07,7.62,.03,46.81,.15,73.88-31.79,21.25-25.07,21.92-54.45,21.89-61.23-.16-46.68-36.43-107.43-94.86-107.98-59.98-.55-95.52,62.8-96.68,107.98Z"/>
      <path class="cls-2" d="M104.28,130.63c-.99-4.18-4.12-14.9-13.68-23.37-2.91-2.58-7.84-6.84-15.51-8.41-2.89-.59-12.37-2.53-19.15,2.8-9.23,7.25-7,22.88-6.38,27.11,2.13,14.9,12.46,30.87,28.27,35.52,3.31,.97,14.4,4.24,21.89-1.87,10.11-8.25,5.66-27.1,4.56-31.79Z"/>
      <path class="cls-2" d="M170.26,171.49c3.96-1.45,14.02-5.78,21.23-16.42,2.2-3.24,5.81-8.72,6.52-16.7,.26-3.01,1.15-12.87-4.74-19.23-8.02-8.64-22.93-4.71-26.98-3.65-14.23,3.75-28.63,15.96-31.48,32.57-.59,3.47-2.59,15.13,4.12,22.11,9.08,9.42,26.89,2.91,31.32,1.29v.02Z"/>
      <path class="cls-7" d="M46.81,62.38c.78,.48,6.62-9.29,11.86-15.89,10.27-12.95,22.55-19.16,29.19-22.44,5.38-2.66,22.78-10.58,43.78-9.35,7.94,.47,16.46,2.25,16.42,2.8-.02,.19-1.01,.11-1.82,.93-.98,.99-.92,2.53-.91,2.8,.05,1.37,.74,2.43,2.74,4.67,2.02,2.27,3.04,3.4,4.56,4.67,1.64,1.36,3.89,3.23,7.3,4.67,4.66,1.97,8.56,1.93,10.95,1.87,2.63-.07,5.56-.17,6.38-1.87,.72-1.49-.62-3.27,0-3.74,.57-.43,2.15,.79,4.56,2.8,3.22,2.7,4.83,4.05,6.38,5.61,1.68,1.68,3.94,3.98,6.38,7.48,.75,1.08,1.19,1.79,1.82,2.8,6.45,10.31,7.11,9.83,9.12,14.02,2.47,5.13,3.24,9.5,4.56,9.35,.51-.06,.84-.77,.91-.93,.66-1.44-.49-3.17-1.82-5.61-1.92-3.5-.57-1.8-2.74-5.61-7.75-13.65-15.51-22.44-15.51-22.44-2-2.26-4.49-5.08-8.21-8.41-8.2-7.36-15.81-11.42-19.15-13.09-3.37-1.67-11.55-5.46-22.8-7.48-11.93-2.14-21.22-1.22-23.71-.93-4.11,.47-13.17,1.81-23.71,6.54-10.63,4.76-17.1,10.41-25.54,17.76,0,0-10.5,9.15-18.24,21.5-1.07,1.69-1.82,3.74-1.82,3.74-.28,.77-1.3,3.5-.91,3.74Z"/>
      <path class="cls-3" d="M192.75,56.77c3.01-1.92,10.69-6.23,20.98-5.61,3.19,.2,11.91,.72,19.15,7.48,1.64,1.53,5.61,5.24,7.3,11.22,2.34,8.3-1.95,12.99,1.82,19.63,.81,1.43,2.17,3.26,1.82,5.61-.29,1.94-1.69,3.81-3.65,4.67-2.16,.95-5.01,.66-6.38-.93-1.52-1.77-.47-4.21,0-8.41,0,0,.88-8-1.82-15.89-.73-2.13-2.75-8-7.3-11.22-6.53-4.62-17.13-2.96-26.45,3.74"/>
      <path class="cls-3" d="M65.97,52.1c-1.11-1.39-7.21-8.76-17.33-9.35-1.75-.1-7.85-.36-13.68,3.74-5.29,3.72-10.45,11.11-9.12,16.83,.29,1.25,1.01,2.94,.91,5.61-.06,1.78-.16,4.12-1.82,5.61-2.01,1.78-5.6,1.72-7.3,0-.98-.99-1.5-2.72,0-9.35,1.18-5.2,2.19-9.5,5.47-15.89,3.89-7.57,5.83-11.35,10.03-14.02,5.03-3.2,10.24-3.01,14.59-2.8,11.92,.57,20.91,6.56,25.54,10.28"/>
      <path class="cls-4" d="M138.94,142.78c-.3-.21,2.54-7.64,9.12-14.02,4.14-4.02,8.17-6.09,10.95-7.48,6.27-3.15,11.49-4.12,14.59-4.67,5.54-.99,8.85-1.53,12.77,0,3.81,1.49,5.89,4.05,6.38,4.67,1.88,2.4,2.33,4.6,2.74,6.54,.07,.35,.16,.85,0,.93-.47,.24-1.83-3.34-4.56-5.61-3.13-2.62-7.08-2.71-10.95-2.8-3.37-.08-5.86,.44-8.21,.93-.96,.2-5.43,1.17-10.95,3.74-3.59,1.67-6.15,3.33-8.21,4.67-2.18,1.43-4.18,2.73-6.38,4.67-5.02,4.42-7.06,8.57-7.3,8.41Z"/>
      <path class="cls-5" d="M137.61,151.2c-.21-.69-.94-3.59,3.62-10.03,.82-1.16,14.54-19.86,36.92-18.95,5.1,.21,12.56,.5,15.51,5.61,3.79,6.56-2.65,16.29-3.65,17.76-9.84,14.4-30.14,13.28-33.75,13.09-3.34-.19-16.66-.92-18.65-7.48Z"/>
      <path d="M137.11,154c-1.64,1.14,.38,11.21,7.3,15.89,5.44,3.68,11.84,2.63,16.42,1.87,5.12-.85,8.88-2.73,12.77-4.67,3.46-1.73,6.09-3.05,9.12-5.61,6.29-5.33,9-11.57,10.03-14.02,2.21-5.24,3.28-11.01,2.74-11.22-.12-.05-.36,.16-1.82,2.8-3.86,7-3.87,8.15-5.47,10.28-1.87,2.47-3.91,3.66-7.3,5.61-3.75,2.17-6.91,3.1-9.12,3.74-2.54,.73-7.41,1.91-13.68,1.87-4.62-.03-8.39-.05-12.77-1.87-5.43-2.26-7.2-5.38-8.21-4.67Z"/>
      <path d="M103.36,150.26c-.55-.26-1.23,.81-2.74,1.87-.72,.5-3.3,2.17-10.03,1.87-10.64-.48-19.56-5.33-20.07-5.61-3.76-2.08-8.13-4.52-11.86-9.35-7.23-9.37-6.6-20.66-7.3-20.57-.52,.07-.48,6.39,.91,13.09,1.25,5.99,3.15,10.15,3.65,11.22,1.37,2.93,3.59,7.58,8.21,12.15,4.29,4.25,8.49,6.31,10.95,7.48,4.48,2.14,8.85,4.23,14.59,3.74,2.35-.2,7.41-.63,10.95-4.67,3.62-4.14,3.94-10.65,2.74-11.22Z"/>
      <path class="cls-5" d="M102.45,147.32c-.72,1.1-2.58,3.05-10.03,2.94-4.34-.07-27.82-.41-36.48-19.11-2.69-5.81-5.57-16.88-.91-22.04,6.17-6.83,22.21,.35,30.1,5.88,1.19,.83,6.98,4.98,11.86,12.73,2.05,3.26,8.97,14.25,5.47,19.59h0Z"/>
      <path class="cls-4" d="M69.62,100.71c6.21,.8,11.95,4.18,12.77,4.67,4.44,2.66,7.24,5.53,9.12,7.48,1.28,1.33,5.72,6.08,9.12,13.09,.46,.93,2.15,4.52,2.74,9.35,.05,.47,.33,2.72,0,2.8-.44,.11-1.16-3.85-3.65-8.41-1.62-2.97-3.31-4.95-5.47-7.48-1.67-1.95-3.24-3.49-6.38-6.54-3.94-3.83-5.94-5.77-7.3-6.54-2.2-1.25-4.81-1.77-10.03-2.8-5.28-1.05-7.96-1.55-10.03-.93-4.45,1.34-6.6,5.23-7.3,4.67-.53-.42,.47-2.93,1.82-4.67,1.79-2.3,4.15-3.23,5.47-3.74,1.6-.63,2.9-.82,3.65-.93,.58-.08,2.65-.36,5.47,0Z"/>
      <path class="cls-1" d="M94.46,174.71c-1.61,.95-1.4,6.55,0,10.74,.58,1.75,2.14,5.57,8.88,10.74,5.31,4.08,9.36,7.18,15.55,8.06,11.23,1.59,19.37-5.56,22.22-8.06,0,0,4.89-4.29,6.67-10.74,.25-.91,.45-2,0-2.68-.86-1.3-3.51-.34-4.44,0-2.57,.93-4.28,2.53-4.44,2.68-4.23,3.95-10.78,4.97-13.33,5.38-3.27,.51-9.83,1.53-15.55-2.68-2.01-1.49-2.34-2.45-11.11-10.74-2.13-2.01-3.48-3.25-4.44-2.68h0Z"/>
      <path class="cls-1" d="M112.03,173.26c-.64,.34,.49,2.31,.91,2.94,.13,.19,.39,.56,.91,.74,.26,.08,.72,.17,.91,0,.13-.12,.04-.28,0-.74-.04-.41,.02-.5,0-.74-.05-.77-.78-1.36-.91-1.47-.41-.34-1.4-.96-1.82-.74h0Z"/>
      <path class="cls-1" d="M118.41,177.14c.24,.3,1.16,.29,1.82,0,.35-.15,.54-.35,.91-.74,.34-.35,.71-.84,.91-1.47,.1-.32,.18-.59,0-.74-.05-.05-.22-.14-.91,0-.64,.13-1.3,.27-1.82,.74-.67,.58-.91,1.47-.91,1.47h0s-.18,.5,0,.74Z"/>
      <path d="M81.94,88.94c6.74-1.7,13.2-4.5,19.08-8.28l-2.06-1.22c-.28,7.43-.32,14.87-.11,22.31,.05,1.8,2.79,1.8,2.74,0-.21-7.43-.17-14.87,.11-22.31,.04-1.05-1.19-1.77-2.06-1.22-5.7,3.66-11.89,6.36-18.42,8-1.71,.43-.99,3.13,.73,2.7h0Z"/>
      <path d="M170.4,99.17c-4.17-2.22-8.3-4.52-12.39-6.89-2.04-1.19-4.08-2.39-6.09-3.63-1.01-.62-2.01-1.24-3.02-1.86-.85-.51-1.73-.98-2.72-.53-.88,.41-1.14,1.25-1.19,2.18-.06,1.22,0,2.47,0,3.69v22.18c0,1.8,2.74,1.8,2.74,0v-25.42c.11-.68-.08-.65-.59,.07,0,.26,2.37,1.46,2.65,1.63,.88,.54,1.77,1.08,2.65,1.61,1.78,1.07,3.56,2.11,5.34,3.15,3.71,2.14,7.46,4.22,11.24,6.23,1.56,.83,2.95-1.59,1.38-2.42h0Z"/>
      <path class="cls-6" d="M96.8,179.19c-.05,1.77-.08,3.54-.13,5.31-.02,.59,.43,1.22,1,1.36,.63,.15,1.19-.11,1.54-.65,.67-.99,1.35-1.98,2.02-2.97,.41-.61,.13-1.58-.49-1.92-.7-.38-1.43-.14-1.87,.5-.67,.99-1.35,1.98-2.02,2.97l2.55,.71c.05-1.77,.08-3.54,.13-5.31,.02-.73-.64-1.44-1.37-1.4s-1.35,.62-1.37,1.4h0Z"/>
      <path class="cls-6" d="M104.27,186.52l-.27,4.48c-.04,.59,.45,1.22,1,1.36,.6,.14,1.22-.09,1.54-.65,.56-.95,1.08-1.93,1.55-2.92,.16-.35,.24-.7,.14-1.08-.09-.33-.33-.68-.63-.84-.61-.34-1.53-.2-1.87,.5-.47,.99-.99,1.97-1.55,2.92l2.55,.71,.27-4.48c.05-.73-.66-1.43-1.37-1.4-.78,.04-1.32,.62-1.37,1.4h0Z"/>
      <path class="cls-6" d="M113.52,193.46c0,1.08,.16,2.18,.53,3.2,.19,.53,.57,.93,1.14,1,.25,.04,.47,0,.71-.09,.26-.11,.53-.31,.66-.57,.54-1.17,1.08-2.33,1.61-3.5,.16-.35,.24-.7,.14-1.08-.09-.33-.33-.68-.63-.84-.63-.34-1.52-.2-1.87,.5l-.02,.04,.21-.28s-.04,.05-.05,.06l.27-.22-.04,.02,.33-.14s-.08,.03-.13,.04l.36-.05h-.15l.36,.05c-.28-.04-.57-.13-.86-.21-.31-.07-.62-.16-.93-.23-.35-.08-.74-.05-1.06,.14-.28,.17-.56,.5-.63,.84-.16,.72,.21,1.54,.96,1.73,.48,.12,.98,.24,1.46,.36,.34,.08,.67,.15,1.01,.09,.51-.07,.99-.34,1.24-.82l-2.36-1.41c-.54,1.17-1.08,2.33-1.61,3.5l2.5,.34c-.2-.55-.34-1.12-.41-1.7l.05,.37c-.05-.37-.07-.75-.06-1.12,0-.73-.63-1.44-1.37-1.4s-1.36,.62-1.37,1.4h0Z"/>
      <path class="cls-6" d="M121.99,194c.61,1.25,1.26,2.48,1.94,3.68,.27,.49,.83,.75,1.36,.67s1.01-.47,1.14-1c.35-1.47,.56-2.97,.65-4.48,.05-.73-.66-1.43-1.37-1.4-.78,.04-1.32,.62-1.37,1.4-.04,.59-.09,1.17-.16,1.75l.05-.37c-.11,.79-.25,1.58-.44,2.36l2.5-.34c-.68-1.21-1.33-2.43-1.94-3.68-.32-.65-1.28-.9-1.87-.5-.66,.43-.83,1.22-.49,1.92h0Z"/>
      <path class="cls-6" d="M133.67,191.22c.37,.23,.74,.5,1.09,.77l-.27-.22c.81,.65,1.53,1.39,2.16,2.22l-.21-.28s.05,.07,.08,.11c.18,.25,.36,.45,.66,.57,.27,.12,.6,.17,.89,.07,.57-.19,1.01-.72,1-1.36,0-.84-.1-1.69-.27-2.52s-.45-1.62-.78-2.39c-.13-.3-.53-.56-.82-.65-.33-.09-.77-.05-1.06,.14s-.55,.48-.63,.84l-.05,.37c0,.25,.06,.49,.18,.71l.03,.07-.14-.34c.36,.88,.6,1.8,.73,2.75l-.05-.37c.05,.46,.09,.93,.09,1.38l2.55-.71c-1.06-1.44-2.32-2.66-3.82-3.61-.61-.38-1.53-.16-1.87,.5s-.16,1.51,.49,1.92h0Z"/>
      <path class="cls-6" d="M140.69,187.16c.24,.27,.47,.56,.68,.85l-.21-.28c.34,.45,.65,.91,.93,1.38,.31,.5,.97,.84,1.54,.65,.23-.07,.43-.2,.6-.36,.27-.25,.37-.64,.4-.99,.08-1.19,.17-2.37,.26-3.56,.03-.35-.17-.76-.4-.99s-.63-.43-.97-.41-.72,.13-.97,.41-.37,.61-.4,.99c-.08,1.19-.17,2.37-.26,3.56l2.55-.71c-.54-.89-1.16-1.73-1.83-2.51-.22-.26-.64-.41-.97-.41s-.74,.15-.97,.41-.42,.62-.4,.99,.16,.7,.4,.99h0Z"/>
      <path class="cls-6" d="M135.86,197.85c-1.06-.97-2.22-1.84-3.44-2.56-.51-.3-1.25-.23-1.66,.22-.16,.18-.28,.38-.36,.62-.12,.37,0,.75,.14,1.08,.05,.13,.11,.25,.16,.38l-.14-.34c.44,1.08,.74,2.21,.89,3.36l-.05-.37v.07c.05,.38,.13,.7,.41,.99,.24,.24,.63,.43,.97,.41s.72-.13,.97-.41c.23-.25,.45-.64,.4-.99-.1-.79-.23-1.56-.44-2.32s-.49-1.49-.81-2.2l-1.87,1.92c.74,.44,1.45,.93,2.13,1.46l-.27-.22c.36,.28,.7,.58,1.04,.89,.27,.25,.59,.41,.97,.41,.34,0,.74-.15,.97-.41,.47-.53,.57-1.46,0-1.98h0Z"/>
      <path class="cls-6" d="M122.86,202c-.26-1.22-.66-2.37-1.13-3.52-.12-.22-.28-.37-.49-.5s-.45-.19-.69-.19c-.45,0-.98,.26-1.19,.69-.44,.93-.87,1.87-1.3,2.8-.16,.35-.24,.7-.14,1.08,.09,.33,.33,.68,.63,.84,.32,.17,.7,.26,1.06,.14,.32-.1,.67-.32,.82-.65,.44-.93,.87-1.87,1.3-2.8h-2.36l.02,.06-.14-.34c.41,1.01,.74,2.06,.97,3.12,.16,.72,1,1.21,1.69,.98,.73-.24,1.12-.95,.96-1.73h0Z"/>
      <path class="cls-6" d="M111.71,197.63c.04-1.14,.02-2.29-.05-3.43-.03-.57-.32-1.06-.84-1.28s-1.11-.11-1.5,.29c-.74,.78-1.41,1.6-2.05,2.46-.2,.27-.22,.78-.14,1.08,.09,.33,.33,.68,.63,.84,.32,.17,.7,.26,1.06,.14l.33-.14c.21-.12,.36-.29,.49-.5l.04-.05-.21,.28c.57-.74,1.17-1.45,1.81-2.12l-2.33-.99c.06,1.14,.07,2.29,.05,3.43-.02,.74,.65,1.44,1.37,1.4,.76-.04,1.34-.62,1.37-1.4h-.02Z"/>
      <path class="cls-6" d="M102.23,191.31c0-.72,0-1.44,0-2.15,0-.5-.26-.96-.67-1.22-.21-.13-.45-.19-.69-.19s-.47,.07-.69,.19c-.67,.32-1.28,.74-1.85,1.22-.14,.13-.23,.28-.28,.45-.08,.17-.13,.35-.12,.54,0,.35,.15,.76,.4,.99s.6,.43,.97,.41l.36-.05c.23-.07,.43-.19,.6-.36,.04-.03,.08-.07,.12-.09l-.27,.22c.46-.36,.94-.65,1.46-.9l-2.06-1.22c0,.72,0,1.44,0,2.15,0,.36,.16,.74,.4,.99s.63,.43,.97,.41,.72-.13,.97-.41,.4-.62,.4-.99h0Z"/>
      <path class="cls-6" d="M167.48,142.88s-.07-.02-.11-.03c-.15-.03-.3-.06-.45-.06-.13,0-.27,.03-.4,.06-.02,0-.03,0-.05,0-.06,.02-.15,.07-.2,.08-.06,.03-.15,.06-.2,.09-.12,.07-.24,.17-.35,.27-.03,.02-.05,.05-.06,.07-.12,.14-.24,.29-.31,.46s-.16,.35-.19,.53-.07,.39-.06,.58c0,.16,.04,.32,.05,.47,0,.04,0,.07,.03,.11,.05,.14,.1,.29,.16,.42,.02,.03,.03,.06,.05,.08,.07,.1,.17,.25,.27,.36s.23,.2,.36,.27c.27,.15,.59,.24,.9,.22,.25,0,.47-.07,.69-.19,.21-.12,.36-.29,.49-.5,.16-.36,.24-.61,.26-1.01v-.18c-.02-.18-.04-.36-.07-.53-.05-.22-.15-.44-.26-.64-.09-.14-.19-.28-.3-.4-.04-.05-.08-.09-.13-.13-.29-.25-.5-.38-.87-.51-.05-.02-.11-.04-.17-.05-.17-.03-.36-.07-.54-.06-.4,.04-.66,.1-1.01,.29-.05,.03-.11,.07-.16,.1-.14,.1-.28,.21-.4,.34-.27,.29-.43,.58-.57,.96-.05,.13-.06,.25-.08,.38s-.05,.27-.03,.41c0,.2,.04,.37,.12,.54,.05,.18,.15,.33,.28,.45,.24,.24,.63,.43,.97,.41s.72-.13,.97-.41c.23-.26,.44-.63,.4-.99v-.22l-.05,.37c0-.07,.03-.14,.05-.22l-.14,.34c.04-.08,.08-.17,.14-.24l-.21,.28c.05-.07,.13-.14,.2-.2l-.27,.22c.06-.05,.14-.09,.21-.13l-.33,.14c.07-.03,.16-.06,.24-.07l-.36,.05c.07,0,.15,0,.22,0l-.36-.05c.07,0,.15,.03,.21,.06l-.33-.14c.06,.03,.13,.07,.18,.11l-.27-.22c.07,.06,.14,.12,.19,.2l-.21-.28c.05,.07,.1,.15,.14,.24l-.14-.34c.04,.08,.05,.18,.07,.26l-.05-.37c0,.08,0,.17,0,.24l.05-.37c0,.07-.03,.15-.05,.22l.14-.34s0,.03-.02,.05l1.19-.69h-.1l.36,.05s-.07-.02-.11-.03l.33,.14s-.05-.03-.07-.04l.27,.22s-.05-.05-.07-.07l.21,.28s-.05-.07-.06-.11l.14,.34c-.02-.06-.04-.11-.05-.18l.05,.37c0-.08,0-.17,0-.25l-.05,.37c0-.08,.04-.17,.06-.25l-.14,.34c.03-.07,.05-.12,.09-.17l-.21,.28s.06-.07,.1-.1l-.27,.22s.05-.04,.08-.05l-.33,.14s.05-.02,.09-.03l-.36,.05h.11l-.36-.05s.07,.02,.11,.03c.18,.06,.36,.07,.55,.03,.18,0,.36-.07,.51-.17,.28-.17,.56-.5,.63-.84,.08-.36,.06-.76-.14-1.08l-.21-.28c-.17-.18-.37-.29-.6-.36h0l-.02,.03Z"/>
      <path class="cls-6" d="M80.02,128.81c-.14-.03-.29-.06-.44-.06-.08,0-.17,.02-.25,.03-.27,.04-.36,.07-.64,.21-.03,0-.05,.03-.06,.04-.12,.07-.23,.17-.34,.26-.13,.11-.22,.26-.32,.39s-.15,.31-.21,.46c-.05,.11-.05,.22-.06,.34,0,.08-.03,.18-.03,.26,0,.14,.03,.3,.05,.43,0,.03,0,.06,.02,.08,.05,.13,.1,.28,.16,.4,.08,.16,.2,.3,.36,.39,.13,.12,.28,.21,.47,.25l.36,.05c.19,0,.36-.04,.53-.12,.12-.04,.22-.09,.3-.18,.15-.1,.26-.23,.36-.39l.14-.34c.06-.25,.06-.5,0-.75-.04-.17-.12-.32-.18-.48-.03-.06-.05-.11-.08-.16-.09-.14-.19-.28-.3-.4-.04-.05-.08-.08-.13-.12-.13-.1-.26-.22-.39-.31s-.3-.15-.46-.21c-.05-.02-.11-.04-.16-.06-.08-.02-.17-.03-.26-.04-.09,0-.17-.03-.26-.03-.19,0-.36,.04-.53,.12-.17,.06-.32,.15-.44,.29-.14,.13-.23,.28-.28,.45-.08,.17-.13,.35-.12,.54l.05,.37c.06,.23,.18,.44,.36,.62l.27,.22c.21,.13,.45,.19,.69,.19h.08l-.36-.05c.08,0,.16,.04,.24,.07l-.33-.14c.08,.04,.16,.08,.23,.14l-.27-.22c.07,.06,.14,.12,.19,.2l-.21-.28c.05,.07,.09,.14,.13,.22l-.14-.34s.04,.09,.05,.14l2.5-1.08s-.02-.03-.03-.05l.14,.34s-.03-.07-.03-.12l.05,.37v-.12l-.05,.37c0-.06,.02-.1,.05-.16l-.14,.34s.05-.09,.08-.14l-.21,.28s.07-.08,.11-.11l-.27,.22s.07-.06,.12-.07l-.33,.14s.07-.03,.12-.03l-.36,.05h.1l-.36-.05h.04c.18,.06,.36,.07,.55,.03,.18,0,.36-.07,.51-.17,.16-.08,.29-.21,.38-.36,.12-.13,.2-.29,.25-.48l.05-.37c0-.25-.06-.49-.18-.71-.18-.29-.47-.58-.82-.65h0l-.02,.05Z"/>
    </g>
  </g>
</svg>