<?xml version="1.0" encoding="UTF-8"?>
<svg id="Layer_2" data-name="Layer 2" xmlns="http://www.w3.org/2000/svg" viewBox="0 0 253.09 219.01">
  <defs>
    <style>
      .cls-1, .cls-2, .cls-3 {
        stroke-miterlimit: 10;
      }

      .cls-1, .cls-3 {
        stroke: #000;
      }

      .cls-4 {
        fill: #fff;
      }

      .cls-5, .cls-2 {
        fill: #333;
      }

      .cls-6 {
        fill: #b93100;
      }

      .cls-7 {
        fill: #bef4c2;
      }

      .cls-2 {
        stroke: #333;
      }

      .cls-2, .cls-3 {
        stroke-width: 4px;
      }

      .cls-3 {
        fill: #7ac943;
      }
    </style>
  </defs>
  <g id="Layer_1-2" data-name="Layer 1">
    <g>
      <path class="cls-3" d="M17.53,117.5c-.23,8.62,.35,31.88,15,54.5,28.44,43.91,83.71,44.98,90,45,8.35,.03,51.32,.16,81-34,23.3-26.82,24.03-58.24,24-65.5-.17-49.93-39.94-114.92-104-115.5C57.77,1.41,18.8,69.18,17.53,117.5Z"/>
      <path class="cls-2" d="M98.03,134.5c-1.08-4.47-4.52-15.94-15-25-3.19-2.76-8.6-7.32-17-9-3.17-.63-13.56-2.71-21,3-10.12,7.76-7.67,24.47-7,29,2.34,15.94,13.66,33.02,31,38,3.63,1.04,15.79,4.54,24-2,11.08-8.83,6.21-28.99,5-34Z"/>
      <path class="cls-2" d="M170.37,178.21c4.34-1.55,15.37-6.18,23.28-17.56,2.41-3.47,6.37-9.33,7.15-17.86,.29-3.22,1.26-13.77-5.2-20.57-8.79-9.24-25.14-5.04-29.58-3.9-15.6,4.01-31.39,17.07-34.51,34.84-.65,3.71-2.84,16.18,4.52,23.65,9.95,10.08,29.48,3.11,34.34,1.38Z"/>
      <path class="cls-7" d="M35.03,61.5c.85,.51,7.26-9.94,13-17,11.26-13.85,24.72-20.5,32-24,5.9-2.84,24.98-11.32,48-10,8.71,.5,18.05,2.41,18,3-.02,.2-1.11,.12-2,1-1.07,1.06-1.01,2.71-1,3,.05,1.47,.81,2.6,3,5,2.22,2.43,3.33,3.64,5,5,1.8,1.46,4.26,3.45,8,5,5.11,2.11,9.38,2.06,12,2,2.88-.07,6.1-.18,7-2,.79-1.59-.68-3.5,0-4,.63-.46,2.36,.85,5,3,3.53,2.89,5.3,4.33,7,6,1.84,1.8,4.32,4.26,7,8,.82,1.15,1.31,1.92,2,3,7.07,11.03,7.79,10.51,10,15,2.71,5.49,3.55,10.16,5,10,.56-.06,.92-.82,1-1,.72-1.54-.54-3.39-2-6-2.1-3.74-.63-1.93-3-6-8.5-14.6-17-24-17-24-2.19-2.42-4.92-5.43-9-9-8.99-7.87-17.33-12.22-21-14-3.7-1.79-12.66-5.84-25-8-13.08-2.29-23.26-1.3-26-1-4.51,.5-14.44,1.94-26,7-11.65,5.09-18.75,11.14-28,19,0,0-11.51,9.79-20,23-1.17,1.81-2,4-2,4-.31,.82-1.43,3.74-1,4Z"/>
      <path class="cls-3" d="M195.03,55.5c3.3-2.05,11.72-6.66,23-6,3.5,.21,13.06,.77,21,8,1.8,1.64,6.15,5.6,8,12,2.57,8.88-2.14,13.89,2,21,.89,1.53,2.38,3.49,2,6-.32,2.08-1.85,4.08-4,5-2.37,1.02-5.49,.71-7-1-1.67-1.89-.51-4.5,0-9,0,0,.97-8.56-2-17-.8-2.28-3.01-8.56-8-12-7.16-4.94-18.78-3.17-29,4"/>
      <path class="cls-3" d="M56.03,50.5c-1.22-1.49-7.91-9.37-19-10-1.92-.11-8.61-.39-15,4-5.8,3.98-11.46,11.88-10,18,.32,1.34,1.11,3.14,1,6-.07,1.9-.17,4.41-2,6-2.2,1.9-6.14,1.84-8,0-1.07-1.06-1.65-2.91,0-10,1.29-5.56,2.4-10.16,6-17,4.26-8.1,6.39-12.14,11-15,5.52-3.42,11.23-3.22,16-3,13.07,.61,22.92,7.02,28,11"/>
      <path class="cls-4" d="M136.03,147.5c-.33-.22,2.79-8.17,10-15,4.54-4.3,8.96-6.51,12-8,6.87-3.37,12.6-4.41,16-5,6.07-1.06,9.7-1.64,14,0,4.18,1.59,6.46,4.33,7,5,2.06,2.57,2.56,4.92,3,7,.08,.37,.18,.91,0,1-.51,.26-2.01-3.57-5-6-3.43-2.8-7.76-2.9-12-3-3.7-.09-6.43,.47-9,1-1.05,.21-5.95,1.25-12,4-3.94,1.79-6.74,3.56-9,5-2.39,1.53-4.58,2.92-7,5-5.5,4.73-7.74,9.17-8,9Z"/>
      <path class="cls-5" d="M134.58,156.51c-.23-.74-1.03-3.84,3.97-10.73,.9-1.24,15.94-21.24,40.48-20.27,5.59,.22,13.77,.54,17,6,4.16,7.02-2.9,17.43-4,19-10.79,15.4-33.05,14.21-37,14-3.66-.2-18.27-.98-20.45-8Z"/>
      <path d="M134.03,159.5c-1.8,1.22,.42,11.99,8,17,5.96,3.94,12.98,2.81,18,2,5.61-.91,9.74-2.92,14-5,3.79-1.85,6.68-3.26,10-6,6.9-5.7,9.87-12.38,11-15,2.42-5.61,3.6-11.78,3-12-.13-.05-.4,.17-2,3-4.23,7.49-4.24,8.72-6,11-2.05,2.64-4.29,3.91-8,6-4.11,2.32-7.58,3.32-10,4-2.79,.78-8.12,2.04-15,2-5.07-.03-9.2-.05-14-2-5.95-2.42-7.89-5.75-9-5Z"/>
      <path d="M97.03,155.5c-.6-.28-1.35,.87-3,2-.79,.54-3.62,2.32-11,2-11.67-.51-21.45-5.7-22-6-4.12-2.23-8.91-4.83-13-10-7.93-10.02-7.24-22.1-8-22-.57,.08-.53,6.84,1,14,1.37,6.41,3.45,10.86,4,12,1.5,3.13,3.94,8.11,9,13,4.7,4.55,9.31,6.75,12,8,4.91,2.29,9.7,4.52,16,4,2.58-.21,8.12-.67,12-5,3.97-4.43,4.32-11.39,3-12Z"/>
      <path class="cls-5" d="M96.03,152.36c-.79,1.18-2.83,3.26-11,3.14-4.76-.07-30.5-.44-40-20.44-2.95-6.21-6.11-18.06-1-23.58,6.76-7.31,24.35,.37,33,6.29,1.3,.89,7.65,5.33,13,13.62,2.25,3.49,9.83,15.24,6,20.96Z"/>
      <path class="cls-4" d="M60.03,102.5c6.81,.86,13.1,4.47,14,5,4.87,2.85,7.94,5.91,10,8,1.4,1.42,6.27,6.5,10,14,.5,1,2.36,4.84,3,10,.06,.5,.36,2.91,0,3-.48,.12-1.27-4.12-4-9-1.78-3.18-3.63-5.3-6-8-1.83-2.09-3.55-3.73-7-7-4.32-4.1-6.51-6.17-8-7-2.41-1.34-5.27-1.89-11-3-5.79-1.12-8.73-1.66-11-1-4.88,1.43-7.24,5.59-8,5-.58-.45,.51-3.13,2-5,1.96-2.46,4.55-3.45,6-4,1.75-.67,3.18-.88,4-1,.64-.09,2.91-.39,6,0Z"/>
      <path class="cls-1" d="M87.27,181.65c-1.77,1.02-1.53,7.01,0,11.49,.64,1.87,2.35,5.96,9.74,11.49,5.82,4.36,10.26,7.68,17.05,8.62,12.31,1.7,21.24-5.95,24.36-8.62,0,0,5.36-4.59,7.31-11.49,.27-.97,.49-2.14,0-2.87-.94-1.39-3.85-.36-4.87,0-2.82,1-4.69,2.71-4.87,2.87-4.64,4.23-11.82,5.32-14.62,5.75-3.59,.55-10.78,1.64-17.05-2.87-2.2-1.59-2.57-2.62-12.18-11.49-2.33-2.15-3.82-3.48-4.87-2.87Z"/>
      <path class="cls-1" d="M106.53,180.1c-.7,.36,.54,2.47,1,3.14,.14,.2,.43,.6,1,.79,.29,.09,.79,.18,1,0,.14-.13,.04-.3,0-.79-.04-.44,.02-.54,0-.79-.06-.82-.85-1.45-1-1.57-.45-.36-1.53-1.03-2-.79Z"/>
      <path class="cls-1" d="M113.53,184.25c.26,.32,1.27,.31,2,0,.38-.16,.59-.37,1-.79,.37-.37,.78-.9,1-1.57,.11-.34,.2-.63,0-.79-.06-.05-.24-.15-1,0-.7,.14-1.42,.29-2,.79-.73,.62-1,1.57-1,1.57h0s-.2,.54,0,.79Z"/>
      <path d="M73.54,89.91c7.39-1.82,14.47-4.81,20.92-8.86l-2.26-1.3c-.31,7.95-.35,15.91-.12,23.86,.06,1.93,3.06,1.93,3,0-.23-7.95-.19-15.91,.12-23.86,.04-1.12-1.31-1.89-2.26-1.3-6.25,3.92-13.04,6.8-20.2,8.56-1.87,.46-1.08,3.35,.8,2.89h0Z"/>
      <path d="M170.53,100.85c-4.57-2.37-9.1-4.83-13.58-7.37-2.24-1.27-4.47-2.56-6.68-3.88-1.11-.66-2.2-1.33-3.31-1.99-.93-.55-1.9-1.05-2.98-.57-.97,.44-1.25,1.34-1.3,2.33-.07,1.31,0,2.64,0,3.95,0,2.64,0,5.27,0,7.91,0,5.27,0,10.55,0,15.82,0,1.93,3,1.93,3,0,0-4.78,0-9.56,0-14.34,0-2.31,0-4.61,0-6.92,0-1.15,0-2.31,0-3.46,0-.49,0-.99,0-1.48,0-.33,0-.66,0-.99,.12-.73-.09-.7-.65,.08,.01,.28,2.6,1.56,2.9,1.74,.97,.58,1.94,1.15,2.91,1.72,1.95,1.14,3.9,2.26,5.86,3.37,4.07,2.29,8.18,4.51,12.32,6.66,1.71,.89,3.23-1.7,1.51-2.59h0Z"/>
      <path class="cls-6" d="M89.83,186.44c-.05,1.89-.09,3.79-.14,5.68-.02,.63,.47,1.3,1.1,1.45,.69,.16,1.3-.12,1.69-.69,.74-1.06,1.48-2.12,2.22-3.18,.45-.65,.14-1.69-.54-2.05-.77-.41-1.57-.15-2.05,.54-.74,1.06-1.48,2.12-2.22,3.18l2.8,.76c.05-1.89,.09-3.79,.14-5.68,.02-.78-.7-1.54-1.5-1.5s-1.48,.66-1.5,1.5h0Z"/>
      <path class="cls-6" d="M98.02,194.29l-.3,4.79c-.04,.63,.49,1.31,1.1,1.45,.66,.15,1.34-.1,1.69-.69,.61-1.02,1.18-2.06,1.7-3.12,.18-.37,.26-.75,.15-1.16-.1-.35-.36-.73-.69-.9-.67-.36-1.68-.21-2.05,.54-.52,1.06-1.09,2.11-1.7,3.12l2.8,.76,.3-4.79c.05-.78-.72-1.53-1.5-1.5-.85,.04-1.45,.66-1.5,1.5h0Z"/>
      <path class="cls-6" d="M108.16,201.71c0,1.15,.18,2.33,.58,3.42,.21,.57,.62,.99,1.25,1.07,.27,.04,.52,0,.78-.1,.28-.12,.58-.33,.72-.61,.59-1.25,1.18-2.49,1.77-3.74,.18-.37,.26-.75,.15-1.16-.1-.35-.36-.73-.69-.9-.69-.36-1.67-.21-2.05,.54l-.02,.04,.23-.3s-.04,.05-.06,.06l.3-.23-.04,.02,.36-.15s-.09,.03-.14,.04l.4-.05c-.05,0-.1,0-.16,0l.4,.05c-.31-.04-.63-.14-.94-.22-.34-.08-.68-.17-1.02-.25-.38-.09-.81-.05-1.16,.15-.31,.18-.61,.54-.69,.9-.18,.77,.23,1.65,1.05,1.85,.53,.13,1.07,.26,1.6,.39,.37,.09,.73,.16,1.11,.1,.56-.08,1.09-.36,1.36-.88l-2.59-1.51c-.59,1.25-1.18,2.49-1.77,3.74l2.74,.36c-.22-.59-.37-1.2-.45-1.82l.05,.4c-.05-.4-.08-.8-.07-1.2,0-.78-.69-1.54-1.5-1.5s-1.49,.66-1.5,1.5h0Z"/>
      <path class="cls-6" d="M117.45,202.29c.67,1.34,1.38,2.65,2.13,3.94,.3,.52,.91,.8,1.49,.72s1.11-.5,1.25-1.07c.38-1.57,.61-3.18,.71-4.79,.05-.78-.72-1.53-1.5-1.5-.85,.04-1.45,.66-1.5,1.5-.04,.63-.1,1.25-.18,1.87l.05-.4c-.12,.85-.27,1.69-.48,2.52l2.74-.36c-.75-1.29-1.46-2.6-2.13-3.94-.35-.7-1.4-.96-2.05-.54-.72,.46-.91,1.3-.54,2.05h0Z"/>
      <path class="cls-6" d="M130.26,199.31c.41,.25,.81,.53,1.2,.82l-.3-.23c.89,.69,1.68,1.49,2.37,2.38l-.23-.3s.06,.08,.09,.12c.2,.27,.4,.48,.72,.61,.3,.13,.66,.18,.98,.08,.63-.2,1.11-.77,1.1-1.45,0-.9-.11-1.81-.3-2.7s-.49-1.73-.85-2.56c-.14-.32-.58-.6-.9-.69-.36-.1-.84-.05-1.16,.15s-.6,.51-.69,.9l-.05,.4c0,.27,.07,.52,.2,.76l.03,.08-.15-.36c.4,.94,.66,1.93,.8,2.94l-.05-.4c.06,.49,.1,.99,.1,1.48l2.8-.76c-1.16-1.54-2.54-2.85-4.19-3.86-.67-.41-1.68-.17-2.05,.54s-.18,1.61,.54,2.05h0Z"/>
      <path class="cls-6" d="M137.95,194.97c.26,.29,.51,.6,.75,.91l-.23-.3c.37,.48,.71,.97,1.02,1.48,.34,.54,1.06,.9,1.69,.69,.25-.08,.47-.21,.66-.39,.3-.27,.41-.68,.44-1.06,.09-1.27,.19-2.54,.28-3.81,.03-.37-.19-.81-.44-1.06s-.69-.46-1.06-.44-.79,.14-1.06,.44-.41,.65-.44,1.06c-.09,1.27-.19,2.54-.28,3.81l2.8-.76c-.59-.95-1.27-1.85-2.01-2.69-.24-.28-.7-.44-1.06-.44s-.81,.16-1.06,.44-.46,.66-.44,1.06,.17,.75,.44,1.06h0Z"/>
      <path class="cls-6" d="M132.66,206.4c-1.16-1.04-2.43-1.97-3.77-2.74-.56-.32-1.37-.25-1.82,.23-.18,.19-.31,.41-.39,.66-.13,.4-.01,.8,.15,1.16,.06,.14,.12,.27,.18,.41l-.15-.36c.48,1.15,.81,2.36,.98,3.59l-.05-.4v.07c.06,.41,.14,.75,.45,1.06,.26,.26,.69,.46,1.06,.44s.79-.14,1.06-.44c.25-.27,.49-.68,.44-1.06-.11-.84-.25-1.67-.48-2.48s-.54-1.59-.89-2.35l-2.05,2.05c.81,.47,1.59,.99,2.33,1.56l-.3-.23c.39,.3,.77,.62,1.14,.95,.3,.27,.65,.44,1.06,.44,.37,0,.81-.16,1.06-.44,.52-.57,.63-1.56,0-2.12h0Z"/>
      <path class="cls-6" d="M118.41,210.84c-.29-1.3-.72-2.54-1.24-3.76-.13-.23-.31-.4-.54-.54-.23-.14-.49-.2-.76-.2-.49,0-1.07,.28-1.3,.74-.48,1-.95,2-1.43,3-.18,.37-.26,.75-.15,1.16,.1,.35,.36,.73,.69,.9,.35,.18,.77,.28,1.16,.15,.35-.11,.73-.34,.9-.69,.48-1,.95-2,1.43-3h-2.59l.02,.06-.15-.36c.45,1.08,.81,2.2,1.06,3.34,.17,.77,1.1,1.29,1.85,1.05,.8-.26,1.23-1.02,1.05-1.85h0Z"/>
      <path class="cls-6" d="M106.18,206.17c.04-1.22,.02-2.45-.05-3.67-.03-.61-.35-1.13-.92-1.37s-1.22-.12-1.64,.31c-.81,.83-1.55,1.71-2.25,2.63-.22,.29-.24,.83-.15,1.16,.1,.35,.36,.73,.69,.9,.35,.18,.77,.28,1.16,.15l.36-.15c.23-.13,.4-.31,.54-.54l.04-.05-.23,.3c.62-.79,1.28-1.55,1.98-2.27l-2.56-1.06c.07,1.22,.08,2.45,.05,3.67-.02,.79,.71,1.54,1.5,1.5,.83-.04,1.47-.66,1.5-1.5h0Z"/>
      <path class="cls-6" d="M95.79,199.41c0-.77,0-1.54-.01-2.3,0-.53-.28-1.03-.74-1.3-.23-.14-.49-.2-.76-.2-.27,0-.52,.07-.76,.2-.74,.34-1.4,.79-2.03,1.3-.15,.14-.25,.3-.31,.48-.09,.18-.14,.37-.13,.58,0,.37,.16,.81,.44,1.06s.66,.46,1.06,.44l.4-.05c.25-.07,.47-.2,.66-.39,.04-.03,.09-.07,.13-.1l-.3,.23c.5-.38,1.03-.7,1.6-.96l-2.26-1.3c0,.77,0,1.54,.01,2.3,0,.39,.17,.79,.44,1.06s.69,.46,1.06,.44,.79-.14,1.06-.44,.44-.66,.44-1.06h0Z"/>
      <path class="cls-6" d="M167.33,147.61s-.08-.02-.12-.03c-.16-.03-.33-.06-.49-.06-.14,0-.3,.03-.44,.06-.02,0-.03,0-.05,.01-.07,.02-.16,.07-.22,.09-.07,.03-.16,.06-.22,.1-.13,.08-.26,.18-.38,.29-.03,.02-.05,.05-.07,.08-.13,.15-.26,.31-.34,.49s-.18,.37-.21,.57-.08,.42-.07,.62c0,.17,.04,.34,.06,.5,0,.04,.01,.08,.03,.12,.05,.15,.11,.31,.18,.45,.02,.03,.03,.06,.05,.09,.08,.11,.19,.27,.3,.38s.25,.21,.39,.29c.3,.16,.65,.26,.99,.24,.27,0,.52-.07,.76-.2,.23-.13,.4-.31,.54-.54,.18-.39,.26-.65,.29-1.08,0-.06,0-.12,0-.19-.02-.19-.04-.38-.08-.57-.06-.24-.16-.47-.29-.68-.1-.15-.21-.3-.33-.43-.04-.05-.09-.1-.14-.14-.32-.27-.55-.41-.95-.55-.06-.02-.12-.04-.19-.05-.19-.03-.4-.07-.59-.06-.44,.04-.72,.11-1.11,.31-.06,.03-.12,.07-.18,.11-.15,.11-.31,.22-.44,.36-.3,.31-.47,.62-.62,1.03-.05,.14-.07,.27-.09,.41s-.05,.29-.03,.44c0,.21,.04,.4,.13,.58,.06,.19,.16,.35,.31,.48,.26,.26,.69,.46,1.06,.44s.79-.14,1.06-.44c.25-.28,.48-.67,.44-1.06,0-.08,0-.16,0-.24l-.05,.4c.01-.08,.03-.15,.06-.23l-.15,.36c.04-.09,.09-.18,.15-.26l-.23,.3c.06-.08,.14-.15,.22-.21l-.3,.23c.07-.05,.15-.1,.23-.14l-.36,.15c.08-.03,.17-.06,.26-.07l-.4,.05c.08,0,.16-.01,.24,0l-.4-.05c.08,.01,.16,.03,.23,.06l-.36-.15c.07,.03,.14,.07,.2,.12l-.3-.23c.08,.06,.15,.13,.21,.21l-.23-.3c.06,.08,.11,.16,.15,.26l-.15-.36c.04,.09,.06,.19,.08,.28l-.05-.4c.01,.09,.01,.18,0,.26l.05-.4c-.01,.08-.03,.16-.06,.23l.15-.36s-.01,.03-.02,.05l1.3-.74s-.07,0-.11,0l.4,.05s-.08-.02-.12-.03l.36,.15s-.05-.03-.08-.04l.3,.23s-.06-.05-.08-.08l.23,.3s-.05-.08-.07-.12l.15,.36c-.02-.06-.04-.12-.05-.19l.05,.4c-.01-.09-.01-.18,0-.27l-.05,.4c.01-.09,.04-.18,.07-.27l-.15,.36c.03-.07,.06-.13,.1-.18l-.23,.3s.07-.08,.11-.11l-.3,.23s.06-.04,.09-.05l-.36,.15s.06-.02,.1-.03l-.4,.05s.08,0,.12,0l-.4-.05s.08,.02,.12,.03c.2,.06,.4,.07,.6,.03,.2,0,.39-.07,.56-.18,.31-.18,.61-.54,.69-.9,.09-.38,.07-.81-.15-1.16l-.23-.3c-.19-.19-.41-.31-.66-.39h0Z"/>
      <path class="cls-6" d="M71.44,132.56c-.15-.03-.32-.06-.48-.06-.09,0-.19,.02-.27,.03-.3,.04-.39,.07-.7,.22-.03,.01-.05,.03-.07,.04-.13,.08-.25,.18-.37,.28-.14,.12-.24,.28-.35,.42s-.16,.33-.23,.49c-.05,.12-.06,.23-.07,.36-.01,.09-.03,.19-.03,.28,0,.15,.03,.32,.06,.46,0,.03,.01,.06,.02,.09,.05,.14,.11,.3,.18,.43,.09,.17,.22,.32,.39,.42,.14,.13,.31,.22,.51,.27l.4,.05c.21,0,.4-.04,.58-.13,.13-.04,.24-.1,.33-.19,.16-.11,.29-.25,.39-.42l.15-.36c.07-.27,.07-.53,0-.8-.04-.18-.13-.34-.2-.51-.03-.06-.05-.12-.09-.17-.1-.15-.21-.3-.33-.43-.04-.05-.09-.09-.14-.13-.14-.11-.28-.23-.43-.33s-.33-.16-.5-.22c-.06-.02-.12-.04-.18-.06-.09-.02-.19-.03-.28-.04-.1-.01-.19-.03-.29-.03-.21,0-.4,.04-.58,.13-.19,.06-.35,.16-.48,.31-.15,.14-.25,.3-.31,.48-.09,.18-.14,.37-.13,.58l.05,.4c.07,.25,.2,.47,.39,.66l.3,.23c.23,.14,.49,.2,.76,.2,.03,0,.06,0,.09,0l-.4-.05c.09,.01,.18,.04,.26,.07l-.36-.15c.09,.04,.18,.09,.25,.15l-.3-.23c.08,.06,.15,.13,.21,.21l-.23-.3c.05,.07,.1,.15,.14,.23l-.15-.36s.04,.1,.05,.15l2.74-1.16s-.02-.03-.03-.05l.15,.36s-.03-.08-.03-.13l.05,.4s0-.09,0-.13l-.05,.4c0-.06,.02-.11,.05-.17l-.15,.36c.02-.05,.05-.1,.09-.15l-.23,.3s.08-.09,.12-.12l-.3,.23s.08-.06,.13-.08l-.36,.15s.08-.03,.13-.03l-.4,.05s.08,0,.11,0l-.4-.05s.03,0,.04,0c.2,.06,.4,.07,.6,.03,.2,0,.39-.07,.56-.18,.17-.09,.32-.22,.42-.39,.13-.14,.22-.31,.27-.51l.05-.4c0-.27-.07-.52-.2-.76-.2-.31-.52-.62-.9-.69h0Z"/>
    </g>
  </g>
</svg>