<?xml version="1.0" encoding="UTF-8"?>
<svg id="game_over" xmlns="http://www.w3.org/2000/svg" viewBox="0 0 178 195">
  <defs>
    <style>
      .cls-1 {
        fill: #ed1c24;
      }

      .cls-2 {
        fill: #b6d994;
      }

      .cls-3 {
        fill: #333;
      }

      .cls-4 {
        fill: #87c663;
      }

      .cls-4, .cls-5 {
        stroke: #000;
        stroke-miterlimit: 10;
        stroke-width: 2px;
      }

      .cls-5 {
        fill: none;
      }

      .cls-6, .cls-7 {
        opacity: .5;
      }

      .cls-7 {
        fill: #e6e6e6;
      }
    </style>
  </defs>
  <g>
    <path class="cls-4" d="M42.94,61.86c-4.45,5.37-6.1,6.37-9,11-.52,.83-2.33,4.41-5,10-2.31,4.82-5.15,13.2-6,23-.31,3.57-.84,10.37,1,19,.54,2.53,2.26,9.8,7,18,4.4,7.62,9.31,12.43,15,18,3.78,3.7,2.44,1.87,8,7,3.86,3.57,8.73,5.87,9,6,1.78,.82,3.21,1.26,6.06,2.14,3.4,1.04,5.38,1.65,8,2,1.88,.25,2.09,.1,10,0,5.42-.07,5.54,0,6.94-.14,1.84-.18,5.36-.17,9-2,16.06-8.07,14.96-7.31,16-8,8.16-5.43,13.32-11.1,15-13,3.56-4.04,9.28-10.66,13-21,4.23-11.76,3.48-21.7,3-28-.88-11.56-4.14-19.08-5-21-.51-1.14-1.6-3.21-2-4-.16-.31-3.78-7.41-7-13-1.82-3.15-5.74-9.95-11.5-17.5-5.01-6.56-9.87-12.92-18-19-7.71-5.77-12.48-9.21-19-9-7.06,.23-12.24,4.68-22.5,13.5-2.31,1.99-6.43,5.55-11,11-5.3,6.32-4.84,7.57-11,15Z"/>
    <path class="cls-4" d="M40.94,70.86c-1.2-.91-4.02-2.77-8-3-1.68-.1-5.38-.31-8,2-2.07,1.82-1.16,3.2-4,6-.95,.94-2.07,1.79-2,3,.05,.84,.62,1.03,1,2,.61,1.55,.14,3.59-1,5-1.83,2.27-4.7,2.03-5,2-2.06-.21-4.3-1.58-5-4-.72-2.48,.46-5.01,2-6,.83-.53,1.33-.34,2-1,1.12-1.09,.83-2.67,1-4,.29-2.28,2.2-3.85,6-7,3.48-2.88,5.22-4.31,8-5,3.22-.79,6.25-.29,8,0,1.69,.28,2.96,.67,4,1,2.95,.93,5.3,2.06,7,3"/>
    <path class="cls-4" d="M133.94,75.86c2.07-.92,6-2.32,11-2,3.97,.26,6.89,1.49,8,2,2.2,1.01,3.57,2.09,6,4,2.8,2.2,4.21,3.31,5,5,.75,1.6,0,1.31,1,6,.75,3.49,1.28,4.18,1,6-.12,.79-.33,1.37,0,2,.62,1.2,2.23,.79,3,2,.57,.91,.26,2.06,0,3-.2,.74-.64,2.35-2,3-.61,.29-1.42,.2-3,0-2.25-.28-3.37-.43-4-1-1.07-.98-1.51-2.72-1-4,.43-1.08,1.25-1.07,2-2,1.68-2.08,.45-5.68,0-7-1-2.94-2.72-4.7-5-7-3.45-3.47-5.18-5.21-8-6-4.94-1.39-9.47,1.07-11,2"/>
    <g>
      <g>
        <path class="cls-1" d="M66.06,155.68c2.19-1.83,5.12-2.77,7.97-2.56,1.21,.09,2.39,.38,3.59,.58,4.71,.81,9.53,.38,14.31,.44,1.59,.02,3.22,.11,4.67,.76,1.76,.8,3.28,2.44,5.21,2.38-.49,.83-1.05,1.63-1.75,2.28-1.22,1.13-2.84,1.76-4.46,2.13s-3.3,.5-4.94,.78c-2.55,.44-5.03,1.24-7.35,2.37-1.14,.56-2.27,1.21-3.52,1.46-.91,.18-1.85,.14-2.76-.01-3.32-.58-6.29-2.86-7.7-5.92-.09-.19-.17-.38-.34-.5-.18-.12-.4-.14-.61-.17-1.01-.16-1.9-.93-2.21-1.91"/>
        <path d="M67.13,156.74c2.38-1.91,5.35-2.45,8.31-1.93,3.19,.57,6.31,.9,9.56,.89s6.5-.46,9.57,.14c2.66,.52,4.43,2.89,7.25,2.94l-1.3-2.26c-.93,1.51-2.02,2.62-3.71,3.26-1.59,.6-3.31,.78-4.98,1.01-3.56,.49-6.84,1.54-10.05,3.14-1.61,.8-3.09,1.22-4.89,.8-1.33-.31-2.59-.91-3.66-1.76-1.17-.93-1.9-2.07-2.62-3.36-.37-.66-.79-1.09-1.53-1.31-.63-.19-1.2-.19-1.48-.92-.69-1.78-3.59-1.01-2.89,.8,.31,.8,.7,1.47,1.36,2.03,.38,.32,.79,.56,1.25,.73,.24,.09,.78,.1,.97,.25-.56-.43,.18,.78,.25,.89,.19,.31,.39,.6,.61,.89,.5,.68,1.07,1.32,1.7,1.88,2.73,2.4,6.8,3.87,10.36,2.6,1.94-.7,3.7-1.8,5.67-2.47s4.1-1.08,6.22-1.36,3.99-.61,5.85-1.5,3.13-2.36,4.18-4.08c.61-.99-.18-2.24-1.3-2.26-1.33-.03-2.4-1-3.49-1.65-1.31-.79-2.71-1.21-4.22-1.38-3.48-.39-7.05,0-10.55-.07-1.77-.03-3.55-.12-5.3-.4-1.61-.26-3.2-.67-4.83-.7-3.11-.05-6.02,1.1-8.42,3.03-1.5,1.21,.63,3.32,2.12,2.12h0Z"/>
      </g>
      <path d="M72.22,155.39c.24,.77,.51,1.52,.81,2.27,.07,.25,.2,.47,.39,.66,.14,.15,.3,.25,.48,.31,.44,.18,.92,.17,1.33-.08,.5-.29,.96-.64,1.39-1.02s.8-.82,1.15-1.28c.11-.17,.17-.36,.18-.56,.04-.2,.04-.4-.03-.6-.1-.35-.36-.73-.69-.9-.35-.18-.77-.28-1.16-.15l-.36,.15c-.23,.13-.4,.31-.54,.54l-.03,.04,.23-.3c-.36,.46-.77,.87-1.23,1.23l.3-.23c-.24,.18-.48,.35-.74,.5l2.2,.9c-.29-.75-.56-1.51-.81-2.27-.12-.37-.35-.7-.69-.9-.32-.19-.8-.27-1.16-.15s-.71,.34-.9,.69-.27,.77-.15,1.16h0Z"/>
      <path d="M78.53,156.41l.53,.99,.26,.5c.04,.08,.08,.15,.12,.23,.21,.35,.57,.64,.96,.75,.42,.12,.88,.04,1.26-.18,.17-.1,.33-.25,.48-.38,.12-.11,.24-.22,.35-.33,.3-.32,.58-.67,.82-1.04,.11-.17,.17-.36,.18-.56,.04-.2,.04-.4-.03-.6-.1-.35-.36-.73-.69-.9-.35-.18-.77-.28-1.16-.15s-.67,.35-.9,.69c-.08,.12-.15,.23-.24,.34l.23-.3c-.25,.32-.53,.6-.84,.85l.3-.23s-.04,.03-.06,.04l.36-.15h-.03c.13,0,.27-.03,.4-.04h-.04c.25,.07,.5,.13,.76,.2h-.02c.1,.07,.2,.15,.3,.22-.01,0-.03-.02-.04-.04l.23,.3c-.17-.27-.31-.57-.46-.85l-.47-.88c-.17-.32-.55-.59-.9-.69-.2-.06-.4-.07-.6-.03-.2,0-.39,.07-.56,.18-.32,.21-.6,.51-.69,.9-.09,.4-.04,.79,.15,1.16h0Z"/>
      <path d="M86.83,156.2c.03,.49,.1,.99,.26,1.46s.36,.92,.64,1.32c.13,.23,.31,.4,.54,.54,.23,.14,.49,.2,.76,.2,.27,0,.52-.07,.76-.2,.23-.13,.4-.31,.54-.54,.24-.36,.5-.71,.76-1.05l-.23,.3c.3-.39,.62-.77,.95-1.14,.27-.3,.44-.65,.44-1.06,0-.37-.16-.81-.44-1.06s-.66-.46-1.06-.44-.8,.14-1.06,.44c-.7,.79-1.35,1.62-1.94,2.5h2.59c-.16-.23-.29-.47-.4-.73l.15,.36c-.13-.31-.22-.63-.26-.96l.05,.4c-.01-.11-.03-.22-.03-.33-.02-.4-.15-.77-.44-1.06-.26-.26-.69-.46-1.06-.44s-.79,.14-1.06,.44-.46,.66-.44,1.06h0Z"/>
      <path d="M83.22,160.82c.5,.68,1.03,1.34,1.6,1.96,.14,.15,.3,.25,.48,.31,.18,.09,.37,.14,.58,.13,.21,0,.4-.04,.58-.13,.19-.06,.35-.16,.48-.31,.26-.29,.46-.66,.44-1.06l-.05-.4c-.07-.25-.2-.47-.39-.66-.39-.43-.77-.87-1.12-1.33l.23,.3c-.08-.11-.16-.21-.24-.32-.09-.17-.22-.32-.39-.42-.14-.13-.31-.22-.51-.27-.2-.06-.4-.07-.6-.03-.2,0-.39,.07-.56,.18-.32,.21-.6,.51-.69,.9l-.05,.4c0,.27,.07,.52,.2,.76h0Z"/>
      <path d="M83.4,160.69l-.93,2.75c-.12,.36-.03,.84,.15,1.16s.54,.61,.9,.69c.38,.09,.81,.07,1.16-.15s.56-.51,.69-.9l.93-2.75c.12-.36,.03-.84-.15-1.16s-.54-.61-.9-.69c-.38-.09-.81-.07-1.16,.15s-.56,.51-.69,.9h0Z"/>
      <path d="M76.61,162.73c.14,.28,.27,.56,.4,.85l-.15-.36c.23,.55,.42,1.11,.57,1.68,.09,.36,.37,.71,.69,.9s.8,.27,1.16,.15,.71-.34,.9-.69,.26-.76,.15-1.16c-.26-1-.64-1.97-1.11-2.88-.17-.32-.55-.59-.9-.69s-.84-.05-1.16,.15-.6,.51-.69,.9c-.09,.41-.04,.78,.15,1.16h0Z"/>
      <path d="M76.35,161.29c-.44,.8-.88,1.59-1.33,2.39-.19,.34-.26,.77-.15,1.16,.1,.35,.36,.73,.69,.9,.35,.18,.77,.28,1.16,.15s.7-.34,.9-.69c.44-.8,.88-1.59,1.33-2.39,.19-.34,.26-.77,.15-1.16-.1-.35-.36-.73-.69-.9-.35-.18-.77-.28-1.16-.15s-.7,.34-.9,.69h0Z"/>
      <path d="M71.17,160.25c-.29,.45-.55,.91-.79,1.39-.11,.17-.17,.36-.18,.56-.04,.2-.04,.4,.03,.6,.05,.2,.14,.37,.27,.51,.11,.16,.25,.29,.42,.39l.36,.15c.27,.07,.53,.07,.8,0l.36-.15c.23-.13,.4-.31,.54-.54,.23-.48,.5-.95,.79-1.39,.11-.17,.17-.36,.18-.56,.04-.2,.04-.4-.03-.6-.05-.2-.14-.37-.27-.51-.11-.16-.25-.29-.42-.39l-.36-.15c-.27-.07-.53-.07-.8,0l-.36,.15c-.23,.13-.4,.31-.54,.54h0Z"/>
      <path d="M71.81,159.26h-2.68c-.38,0-.79,.17-1.06,.44s-.46,.69-.44,1.06,.14,.79,.44,1.06,.65,.44,1.06,.44h2.68c.38,0,.79-.17,1.06-.44s.46-.69,.44-1.06-.14-.79-.44-1.06-.65-.44-1.06-.44h0Z"/>
      <path d="M92.74,159.7c.02,.19,.01,.39-.01,.58l.05-.4c-.03,.22-.08,.43-.16,.63-.06,.2-.07,.4-.03,.6,0,.2,.07,.39,.18,.56,.09,.17,.22,.32,.39,.42,.14,.13,.31,.22,.51,.27l.4,.05c.27,0,.52-.07,.76-.2l.3-.23c.19-.19,.31-.41,.39-.66,.08-.2,.13-.4,.16-.61,.05-.34,.1-.67,.07-1,0-.21-.04-.4-.13-.58-.06-.19-.16-.35-.31-.48-.14-.15-.3-.25-.48-.31-.18-.09-.37-.14-.58-.13l-.4,.05c-.25,.07-.47,.2-.66,.39l-.23,.3c-.14,.23-.2,.49-.2,.76h0Z"/>
      <path d="M94.24,161.23c.11,.02,.21,.05,.31,.1l-.36-.15c.18,.08,.34,.18,.49,.3l-.3-.23c.24,.18,.45,.4,.65,.61,.14,.15,.3,.25,.48,.31,.18,.09,.37,.14,.58,.13,.21,0,.4-.04,.58-.13,.19-.06,.35-.16,.48-.31l.23-.3c.14-.23,.2-.49,.2-.76l-.05-.4c-.07-.25-.2-.47-.39-.66-.11-.11-.22-.23-.33-.34-.2-.19-.41-.35-.63-.52-.12-.09-.25-.17-.38-.24-.18-.09-.36-.17-.55-.23-.07-.03-.15-.05-.22-.06-.2-.06-.4-.07-.6-.03-.2,0-.39,.07-.56,.18-.17,.09-.32,.22-.42,.39-.13,.14-.22,.31-.27,.51l-.05,.4c0,.27,.07,.52,.2,.76l.23,.3c.19,.19,.41,.31,.66,.39h0Z"/>
    </g>
    <path d="M83.62,143.27c-.11,0-.21,.02-.32,.03-.1,.01-.21,.02-.3,.05-.21,.06-.41,.14-.59,.26-.36,.22-.64,.51-.86,.86-.11,.17-.19,.38-.25,.57-.07,.21-.09,.44-.11,.65-.03,.42,.11,.84,.29,1.21,.13,.27,.33,.52,.57,.7,.34,.27,.65,.48,1.08,.59s.85,.11,1.29,.02c.2-.04,.39-.14,.58-.22,.09-.04,.17-.09,.25-.15,.37-.27,.7-.57,.92-.98s.34-.84,.37-1.32c.03-.37-.19-.81-.44-1.06s-.69-.46-1.06-.44-.79,.14-1.06,.44l-.23,.3c-.14,.23-.2,.49-.2,.76,0,.03,0,.07,0,.1l.05-.4c-.02,.12-.05,.24-.1,.35l.15-.36c-.05,.11-.11,.22-.18,.31l.23-.3c-.07,.09-.15,.16-.23,.23l.3-.23c-.09,.07-.18,.12-.28,.17l.36-.15c-.09,.04-.18,.06-.28,.08l.4-.05c-.09,.01-.19,.01-.28,0l.4,.05c-.1-.01-.2-.04-.3-.08l.36,.15c-.1-.04-.19-.09-.27-.15l.3,.23c-.08-.06-.15-.13-.22-.22l.23,.3c-.05-.07-.09-.14-.12-.21l.15,.36c-.03-.08-.05-.16-.07-.24l.05,.4c0-.08,0-.16,0-.25l-.05,.4c.01-.08,.04-.16,.07-.24l-.15,.36c.04-.09,.08-.17,.14-.24l-.23,.3c.06-.07,.12-.14,.2-.2l-.3,.23c.07-.05,.14-.09,.21-.12l-.36,.15c.07-.03,.13-.04,.21-.06l-.4,.05s.08,0,.12,0c.38,0,.79-.17,1.06-.44s.46-.69,.44-1.06-.14-.79-.44-1.06-.65-.44-1.06-.44h0Z"/>
    <path d="M76.06,142.78c-.22,.02-.45,.05-.66,.1-.23,.06-.44,.16-.66,.25-.31,.14-.58,.34-.83,.57-.77,.68-1.08,1.83-.55,2.74,.27,.47,.73,.76,1.23,.93,.3,.1,.62,.12,.93,.15,.73,.06,1.46,0,2.11-.35,.2-.11,.39-.26,.56-.42s.31-.35,.42-.55c.08-.15,.15-.31,.2-.47,.02-.05,.03-.1,.04-.15,.08-.39,.07-.68,0-1.07-.07-.35-.39-.72-.69-.9-.32-.19-.8-.27-1.16-.15s-.71,.34-.9,.69l-.15,.36c-.07,.27-.07,.53,0,.8v.04c-.01-.13-.03-.27-.05-.4,0,.07,0,.13,0,.2l.05-.4c-.01,.07-.03,.13-.05,.19l.15-.36c-.04,.09-.09,.17-.14,.24l.23-.3c-.05,.06-.11,.12-.18,.18l.3-.23c-.09,.07-.18,.12-.29,.17l.36-.15c-.13,.05-.25,.08-.39,.1l.4-.05c-.35,.04-.71,.02-1.06-.03l.4,.05c-.13-.02-.25-.04-.37-.09l.36,.15c-.07-.03-.13-.06-.19-.1l.3,.23s-.07-.06-.1-.1l.23,.3s-.04-.06-.05-.09l.15,.36s-.03-.07-.03-.12l.05,.4c0-.06,0-.11,0-.17l-.05,.4c.01-.06,.03-.11,.05-.16l-.15,.36c.03-.07,.07-.13,.11-.19l-.23,.3c.09-.12,.2-.22,.32-.31l-.3,.23c.13-.1,.27-.18,.43-.25l-.36,.15c.17-.07,.34-.11,.52-.14l-.4,.05h.04c.21,0,.4-.04,.58-.13,.19-.06,.35-.16,.48-.31,.26-.26,.46-.69,.44-1.06s-.14-.79-.44-1.06c-.27-.25-.67-.48-1.06-.44h0Z"/>
    <path class="cls-5" d="M77.44,116.36c-1.48-3.6-3.93-8.31-8-13-5.98-6.9-12.34-10.18-14-11-3.11-1.54-5.91-2.45-8-3"/>
    <path class="cls-5" d="M92.44,117.36c3.11-2.9,6.76-5.97,11-9,6.08-4.35,11.91-7.59,17-10"/>
    <g>
      <path class="cls-3" d="M73.44,129.36c.6,4.81-.48,12.45-6,16-6.45,4.16-14.81,.06-19-2-2.46-1.2-10.25-5.03-14-14-2.24-5.37-4.88-16.97,2-23,6.49-5.69,16.58-2.15,17-2,4.54,1.66,7.02,4.77,12,11,4.94,6.18,7.41,9.27,8,14Z"/>
      <path class="cls-3" d="M96.44,125.36c-2.06,2.68-3.21,5.23-4,7-.83,1.86-1.59,3.57-2,6-.31,1.83-.63,3.71,0,6,.19,.67,.92,3.2,3,5,1.28,1.1,3.07,1.93,10,2,6.43,.07,9.65,.1,13-1,5.04-1.65,8.25-4.45,10-6,2.63-2.34,7.58-6.74,9-14,.4-2.04,1.25-6.38-1-11-.5-1.02-2.49-4.97-7-7-4.56-2.05-8.88-.86-12,0-3.95,1.09-6.45,2.83-11,6-3.35,2.33-5.67,3.98-8,7Z"/>
      <path class="cls-7" d="M36.44,118.36c.77-.11-.03-3.29,2-6,1.68-2.24,4.32-2.84,5-3,3.5-.8,6.48,.69,9,2,5.79,3.01,9.51,7.77,12,11,2.51,3.25,4.31,6.32,5,6,.51-.24,.14-2.27,0-3-.15-.79-.38-1.57-1-3-.49-1.13-1.06-2.46-2-4-.75-1.23-1.98-3.01-5-6-3.34-3.3-4.99-4.98-7-6-1.32-.67-5.1-2.53-10-2-1.63,.18-3.83,.41-6,2-.5,.37-3.92,2.95-4,7-.05,2.62,1.31,5.09,2,5Z"/>
      <path class="cls-7" d="M95.44,130.36c-1.06,2.18-1.51,4.77-1,5,.39,.18,1.28-1.01,2-2,1.55-2.12,4.37-4.08,10-8,4.13-2.87,6.2-4.31,8-5,2.21-.85,5.88-2.19,10-1,.95,.27,3.2,.95,5,3,.95,1.07,2.08,2.36,2,4-.04,.79-.34,1.34,0,2,.4,.78,1.49,1.31,2,1,.53-.32,.1-1.36,0-4-.09-2.49,.26-2.65,0-4-.39-2.07-1.55-3.5-2-4-1.92-2.17-4.42-2.68-6-3-2.14-.44-3.77-.26-6,0-1.57,.18-4.48,.55-8,2-4.04,1.67-6.65,3.86-8,5-1.02,.87-2.02,1.91-4,4-2.92,3.07-3.55,4.07-4,5Z"/>
    </g>
  </g>
  <g class="cls-6">
    <path class="cls-2" d="M60.37,47.59c2.14-3.44,4.81-6.51,7.94-9.1,1.61-1.34,3.34-2.52,5.16-3.56s3.66-1.7,5.23-2.94c.79-.63,1.44-1.43,2.25-2.04,.88-.67,1.91-1.12,2.95-1.48,1.6-.54,3.27-.86,4.96-.93,3.44-.14,6.92,.62,9.99,2.17,3.47,1.75,6.36,4.41,8.25,7.81l2.05-2.05c-2.72-1.67-5.44-3.35-8.17-5.02-1.21-.75-2.41-1.54-3.72-2.11-1.39-.6-2.84-.78-4.35-.84-5.39-.19-11.16,.45-15.64,3.71-1.57,1.14-.25,3.38,1.51,2.59l-.95-.09v.45c-.06,.3,.03,.76,.1,1.06,.13,.52,.36,1.02,.72,1.42,.66,.72,1.58,1.11,2.49,1.41,2.49,.8,5.21,1.38,7.81,.85,3.79-.78,7.04-5.32,4.64-8.97-.47-.72-1.73-1.11-2.36-.3-2.48,3.19-6.23,4.85-10.26,4.5l1.5,1.5c-.02-.53-.04-1.05-.07-1.58l-1.1,1.45c3.18-1.04,6.36-2.08,9.54-3.12,1.83-.6,1.04-3.5-.8-2.89-3.18,1.04-6.36,2.08-9.54,3.12-.61,.2-1.13,.77-1.1,1.45,.02,.53,.04,1.05,.07,1.58,.04,.86,.66,1.43,1.5,1.5,4.7,.41,9.48-1.65,12.38-5.38l-2.36-.3c.76,1.16,.28,2.48-.63,3.42-1.37,1.44-3.6,1.4-5.42,1.07-1.02-.19-2.04-.46-3.02-.77-.28-.09-.75-.18-.95-.41-.29-.32-.15-.83-.18-1.25-.15-1.88-1.77-3.07-3.54-2.28l1.51,2.59c4.09-2.97,9.21-3.47,14.13-3.3,1.33,.05,2.56,.24,3.75,.86s2.29,1.36,3.42,2.05c2.52,1.55,5.04,3.1,7.55,4.65,1.31,.81,2.76-.77,2.05-2.05-3.78-6.81-11.23-11.08-18.95-11.46-3.85-.19-8.3,.59-11.46,2.92-.93,.68-1.65,1.59-2.56,2.29s-1.98,1.12-2.98,1.63c-1.98,1-3.88,2.17-5.65,3.5-4.1,3.07-7.58,6.84-10.29,11.2-1.02,1.64,1.57,3.15,2.59,1.51h0Z"/>
  </g>
</svg>