<?xml version="1.0" encoding="UTF-8"?>
<svg id="Layer_7" data-name="Layer 7" xmlns="http://www.w3.org/2000/svg" viewBox="0 0 898.47 964.96">
  <defs>
    <style>
      .cls-1, .cls-2, .cls-3 {
        stroke-miterlimit: 10;
      }

      .cls-1, .cls-3 {
        stroke: #000;
      }

      .cls-4 {
        fill: #fff;
      }

      .cls-5 {
        fill: #bef4c2;
      }

      .cls-2 {
        fill: #333;
        stroke: #333;
      }

      .cls-2, .cls-3 {
        stroke-width: 4px;
      }

      .cls-3 {
        fill: #7ac943;
      }
    </style>
  </defs>
  <path class="cls-3" d="M85.44,688.67c12.2,31.93,49.35,116.05,136.05,174.11,168.3,112.7,368.28,23.42,390.88,12.89,29.99-13.97,184.44-85.94,239.4-260.97,43.15-137.42-1.65-253.61-12.69-280.11C763.12,152.19,522.35-18.54,291.6,87.36,54.69,196.08,17.08,509.75,85.44,688.67Z"/>
  <path class="cls-5" d="M66.44,454.35c3.84,.43,11.05-48.6,21.01-84.12,19.52-69.65,57.8-116.68,78.63-141.76,16.88-20.32,72.58-83.56,157.17-117.52,32.01-12.85,68.42-21.62,69.12-19.37,.24,.76-3.81,2.32-5.67,7.03-2.24,5.7,.46,11.62,.94,12.66,2.42,5.29,6.82,8.15,18.31,13.24,11.62,5.15,17.43,7.72,25.49,9.86,8.68,2.31,20.49,5.45,36.25,4.8,21.52-.89,36.78-8.28,46.08-12.92,10.25-5.1,21.62-10.93,22.1-19.12,.43-7.15-7.71-11.67-6.03-14.63,1.56-2.76,9.76-.89,22.47,2.55,17.03,4.61,25.54,6.91,34.17,10.15,9.31,3.49,21.92,8.29,37.19,17.47,4.69,2.82,7.61,4.83,11.7,7.6,42.01,28.42,43.81,25.33,58.52,38.02,17.99,15.52,28.08,31.16,33.03,28.16,1.93-1.17,2.05-4.54,2.08-5.34,.25-6.86-7.04-11.5-16.23-18.58-13.18-10.16-5.16-6-19.82-16.89-52.53-39.07-97.22-59.15-97.22-59.15-11.52-5.18-25.85-11.56-45.88-17.75-44.12-13.65-80.64-15.49-96.49-15.81-15.99-.33-54.24,0-101.79,12.88-50.38,13.66-85.44,34.46-94.82,40.18-15.45,9.43-48.87,31.45-82.75,69.45-34.13,38.29-50.51,72.37-71.82,116.73,0,0-26.55,55.25-37.08,117.87-1.45,8.6-1.14,18.01-1.14,18.01,.11,3.51,.52,16.1,2.45,16.32Z"/>
  <path class="cls-3" d="M159.51,341.46c-28.06,10.61-44.85,5.81-54.07,.95-18.69-9.87-31.59-33.39-35.17-39.91-10.82-19.73-10.93-30.99-22.54-33.75-8.45-2.01-17.24,1.85-22.32-7.84-.37-.7-5.55-10.95-1.26-20.39,4.55-10,16.64-12.31,18.83-12.73,5.37-1.03,10.55-.14,24.04,10.77,7.64,6.18,11.45,9.27,16.9,15.57,11.56,13.38,17.12,25.74,20.19,30.95,7.32,12.41,23.34,22.93,62.23,11.58"/>
  <g>
    <path class="cls-2" d="M666.11,493.64c8.88-16.47,29.77-60.49,24.62-116.42-1.57-17.05-4.53-45.54-23.51-73.47-7.17-10.55-30.64-45.08-66.58-48.05-48.89-4.05-86.46,53.15-96.65,68.67-35.84,54.56-49.68,137.02-14.54,199.26,7.35,13.01,32.01,56.69,72.29,59.24,54.39,3.44,94.41-70.77,104.36-89.23Z"/>
    <path class="cls-4" d="M488.6,494.18c-1.52,.26-12.18-32.28-8.02-72.57,2.62-25.35,10.09-44.05,15.32-56.84,11.79-28.87,26.05-47.62,34.56-58.64,15.22-19.72,24.43-31.36,41.15-38.08,16.26-6.54,29.8-4.48,33.04-3.92,12.44,2.17,19.78,7.92,26.28,13.01,1.17,.92,2.79,2.26,2.49,3.02-.84,2.16-14.81-5.31-29.66-4.55-17.07,.87-30.05,12.34-42.75,23.57-11.1,9.81-17.73,18.93-23.96,27.51-2.54,3.49-14.35,19.96-25.29,44.74-7.12,16.11-10.93,29.09-13.98,39.6-3.23,11.12-6.18,21.3-8.1,34.16-4.38,29.28,.1,48.79-1.07,48.98Z"/>
    <path d="M512.65,535.91c-2.24,8.58,31.15,35.13,65.91,29.66,27.35-4.31,45.17-26.8,57.89-42.91,14.22-18.01,21.33-35.31,28.68-53.2,6.52-15.88,11.51-28.02,14.43-45.35,6.06-36-1.86-64.29-5.08-75.29-6.88-23.55-18.79-45.43-21.11-44.46-.51,.21-.75,1.6,1.6,14.51,6.23,34.16,9.31,37.91,9.8,49.59,.57,13.56-2.86,23.48-8.55,39.91-6.29,18.19-14.01,30.67-19.42,39.3-6.23,9.95-18.77,28.24-39.1,46.85-14.96,13.7-27.16,24.87-46.14,32.03-23.51,8.87-37.54,4.08-38.92,9.36Z"/>
  </g>
  <g>
    <path class="cls-2" d="M430.1,465.89c.22-18.25-1.79-65.62-33.12-110.47-9.55-13.67-25.82-36.36-56.38-50.8-11.54-5.46-49.33-23.31-83.4-8.42-46.35,20.26-53.22,86.89-55.08,104.96-6.55,63.55,20.18,140.06,81.77,175.71,12.88,7.45,56.1,32.48,93.92,15.12,51.05-23.44,52.04-105.65,52.29-126.1Z"/>
    <path d="M405.81,545.76c-2.05-1.65-6.02,2.08-13.44,4.85-3.55,1.32-16.14,5.49-44.1-2.76-44.21-13.05-76.65-42.34-78.46-44-13.6-12.51-29.43-27.06-40.07-50.84-20.63-46.09-6.19-91.95-9.22-92.27-2.28-.24-8.71,25.81-9.81,54.83-.98,25.96,2.65,45.06,3.64,49.99,2.7,13.49,7.2,34.94,21.82,58.59,13.6,21.99,29.11,34.82,38.19,42.2,16.6,13.49,32.77,26.63,57.42,30.6,10.11,1.63,31.76,5.12,50.86-7.84,19.55-13.27,27.64-39.75,23.19-43.33Z"/>
    <path class="cls-4" d="M322.22,297.86c25.28,9.78,45.85,29.67,48.78,32.55,15.88,15.6,24.66,30.31,30.53,40.29,4,6.81,17.7,30.96,24.68,63.39,.93,4.33,4.34,20.86,1.75,41.34-.25,1.97-1.46,11.55-2.92,11.55-1.95-.01-.85-17.05-6.56-38.44-3.72-13.91-8.76-23.83-15.2-36.49-4.97-9.78-9.98-17.72-20-33.59-12.57-19.91-18.95-29.95-23.84-34.54-7.93-7.45-18.36-12.3-39.23-22-21.08-9.8-31.82-14.7-41.18-14.3-20.1,.84-33.2,14.62-35.53,11.64-1.79-2.28,4.99-11.55,12.54-17.34,9.91-7.6,20.77-8.94,26.89-9.69,7.34-.9,13.04-.37,16.3-.05,2.55,.25,11.52,1.27,22.99,5.7Z"/>
  </g>
  <path class="cls-1" d="M356.56,608.36c-6.16,3.44-5.26,22.7,.13,36.96,2.24,5.95,8.25,18.95,34.03,36.07,20.3,13.49,35.77,23.76,59.43,26.17,42.86,4.35,73.85-21.07,84.67-29.94,0,0,18.59-15.25,25.3-37.63,.94-3.15,1.69-6.92-.03-9.24-3.27-4.4-13.39-.82-16.95,.44-9.82,3.48-16.3,9.14-16.92,9.68-16.11,14.02-41.06,18.19-50.8,19.81-12.5,2.09-37.5,6.26-59.37-7.69-7.68-4.9-8.96-8.2-42.51-35.85-8.14-6.71-13.32-10.84-16.98-8.8Z"/>
  <path class="cls-1" d="M439.92,596.77c-1.97,2.52,5.66,8.13,8.33,9.82,.79,.5,2.44,1.47,4.77,1.19,1.18-.14,3.12-.68,3.59-1.69,.33-.7-.29-1.16-1.19-2.88-.8-1.54-.74-2-1.19-2.88-1.47-2.91-5.22-3.88-5.96-4.06-2.15-.55-7.04-1.19-8.36,.5Z"/>
  <path class="cls-1" d="M484.18,601.58c1.4,.75,5.03-1.02,7.18-3.37,1.14-1.24,1.56-2.35,2.4-4.56,.76-1.99,1.46-4.6,1.22-7.44-.12-1.43-.25-2.64-1.19-2.88-.3-.07-1.1-.16-3.59,1.69-2.3,1.7-4.65,3.44-5.99,6.25-1.67,3.49-1.22,7.44-1.22,7.44h0s.1,2.29,1.19,2.88Z"/>
  <path class="cls-3" d="M703.58,255.5c29.86-.58,43.86-11.33,50.76-19.31,14.01-16.18,17.87-42.94,18.94-50.37,3.24-22.44-.58-32.99,9.3-39.9,7.18-5.03,16.73-4.71,18.1-15.65,.1-.79,1.37-12.29-5.92-19.49-7.72-7.63-19.81-5.27-21.99-4.84-5.37,1.05-9.89,3.81-18.68,19.03-4.97,8.62-7.46,12.92-10.35,20.84-6.13,16.8-7.02,30.41-8.07,36.41-2.51,14.31-13.8,30.1-54.02,34.05"/>
</svg>