<?xml version="1.0" encoding="UTF-8"?>
<svg id="Layer_2" data-name="Layer 2" xmlns="http://www.w3.org/2000/svg" viewBox="0 0 393.72 286.12">
  <defs>
    <style>
      .cls-1 {
        fill: #fff;
        stroke-width: 5px;
      }

      .cls-1, .cls-2, .cls-3 {
        stroke: #000;
        stroke-miterlimit: 10;
      }

      .cls-3 {
        fill: #1b1464;
      }

      .cls-4 {
        opacity: .36;
      }

      .cls-5 {
        fill: #e6e6e6;
        opacity: .48;
      }
    </style>
  </defs>
  <g id="Layer_3" data-name="Layer 3">
    <g>
      <path class="cls-1" d="M362.15,78.16c-7.62-3.09-14.77-3.32-24.94-9.75-9.16-5.79-13.66-12.12-15.59-14.62-16.76-21.79-54.74-35.2-65.47-38.99-6.37-2.25-32.45-11.1-68.59-12.19-28.39-.85-49.75,3.49-56.12,4.87-34.68,7.54-57.34,21.45-65.47,26.81-22.38,14.75-34.04,30.21-40.53,38.99-6.27,8.49-13.9,18.98-18.71,34.12-4.68,14.73-4.16,26.88-3.12,51.18,.59,13.82,2.01,18.76,3.12,21.93,2.98,8.52,4.21,12.87,6.24,17.06,1.03,2.14,2.67,5.19,5.17,8.66,4.05,6.86,10.02,15.68,18.53,24.77,2.49,2.67,9.82,10.29,21.07,18.41,22.38,16.16,43.97,22.49,61.92,27.64,9.45,2.71,19.06,4.93,28.77,6.53,19.31-1.7,38.75-1.73,58.17-1.67,.07-.08,.19-.19,.34-.33,4.1-3.81,9.79-2.55,14.79-2.98,3.38-.29,4.58-1.19,11.81-4.34,6.17-2.69,15.78-6.6,30.78-11.91,.58-.64,1.58-1.53,3.03-1.88,.24-.06,.48-.1,.7-.12,4.11-2.01,9.59-5.04,15.55-9.47,2.47-1.84,8.82-6.73,16.02-14.88,12.95-14.66,25.83-36.6,26.98-39.51,.15-.37,.77-1,1.37-2.01,2.75-4.67,2.92-9.61,3.09-9.58,.11,.02-.33,1.92,.1,2.13,.83,.39,2.89-6.39,8.05-10.47,5.76-4.55,8.63-.4,14.85-4.93,4.4-3.2,5.77-7.32,11.95-9.46,1.34-.46,2.34-.64,2.76-.72,7.11-1.48,18.27-13.82,21.45-27.24,5.14-21.7-10.05-48.75-28.06-56.05Z"/>
      <path class="cls-1" d="M330.37,163.37c-1.5-1.32-4.27-2.88-9.35-7.31-9.07-7.9-14.23-15.11-15.59-17.06-4.23-6.06-12.93-18.54-12.47-34.12,.4-13.62,7.37-15.29,6.24-24.37-.46-3.65-3.09-15.41-37.41-31.68-19.01-9.02-49.2-23.33-93.53-24.37-15.3-.36-78.16-1.83-124.71,36.56C-1.47,98.13,1.97,145.12,3,156.06c2.86,30.33,18.85,52.49,28.06,63.37,1.42,1.96,22.89,30.53,63.65,49.38,8.29,3.19,16.71,5.9,24.93,8.26,9.46,2.72,19.09,4.93,28.81,6.53,9.16-.11,18.46-.29,27.9-.57,9.76-.29,19.38-.66,28.84-1.11,.57-.11,1.15-.21,1.72-.32,10.23-1.73,21.4-4.29,33.23-8.04,4.88-1.55,9.54-3.19,13.97-4.89,7.8-3.44,18.35-8.97,29.48-17.78,7.32-5.79,12.19-10.86,16.02-14.88,17.78-18.66,25-34.28,25.62-36.3,.07-.24,.69-1.48,1.37-3.21,.32-.82,.79-1.47,1.33-1.97,1.25-2.58,2.35-5.09,3.23-7.5-.42-1.5-.16-3.19,1.21-4.65,.12-.13,.25-.25,.38-.38,2.23-8.4,1.65-15.12-2.37-18.64Z"/>
      <path class="cls-3" d="M2.63,149.88c3.47,60.31,74.46,115.85,155.89,116.98,73.45,1.02,123.34-42.67,137.18-60.93,7.46-9.84,16.19-27.75,18.71-43.87,.91-5.82,.67-9.21,0-12.19-2.27-10.15-8.63-11.77-15.59-24.37-4.49-8.14-7.9-14.3-6.24-21.93,1.2-5.5,4.12-7.62,3.12-12.19-1.39-6.31-8.73-10.16-12.47-12.19-27.18-14.67-21.67-17.1-43.65-26.81-12.76-5.64-42.77-18.89-84.18-19.5-13.33-.19-61.67-.9-102.89,26.81C18.01,82.91,.79,117.76,2.63,149.88Z"/>
      <path class="cls-5" d="M17.67,167.58c-3.1-1.11-2.82-5.06-3.12-19.5-.34-16.33-.83-17.93,0-24.37,.52-4.05,1.2-9.3,3.12-14.62,4.61-12.8,14.49-20.8,24.94-29.25,10.66-8.62,23.25-18.8,43.65-24.37,7.33-2,14.24-2.96,28.06-4.87,15.24-2.11,7.9-.22,28.06-2.44,5.47-.6,8.66-1.03,9.35,0,1.4,2.1-8.72,8.5-15.59,12.19-12.64,6.8-18.25,6.58-31.18,12.19-11.83,5.13-19.59,10.72-24.94,14.62-6.08,4.43-16.38,12.07-24.94,24.37-4.33,6.22-8.08,11.61-9.35,19.5-1.44,8.88,0,17.06,0,17.06,.83,4.71,1.99,7.21,0,9.75-1.83,2.34-4.51,2.38-12.47,4.87-11.56,3.62-13.06,5.78-15.59,4.87Z"/>
      <path class="cls-4" d="M113.14,253.28c-.16-2.15,6.38-3.97,18.71-7.31,57.57-15.61,57.25-14.85,62.36-17.06,15.75-6.81,25.05-18.35,43.65-41.43,13.4-16.63,20.53-25.48,24.94-38.99,3.99-12.22,10.54-24.04,12.47-36.56,.38-2.43,.99-7.03,3.12-7.31,1.19-.16,3.97,.88,12.47,19.5,8.18,17.9,12.27,26.85,12.47,34.12,.37,13.25-5.56,22.89-12.47,34.12-11.23,18.26-25.66,29.91-31.18,34.12-7.09,5.41-43.58,32.19-96.65,34.12-23.2,.84-49.57-3.06-49.89-7.31Z"/>
      <path class="cls-1" d="M353.44,168.72c14.42-12.81,23.49-31.8,22.55-49.33-1.54-28.6-29.94-56.83-66.05-61.4-4.03-.51-30.96-3.61-49.53,9.21-23.01,15.88-15.18,43.75-12.38,53.72,6.91,24.61,33.19,64.64,70.17,62.93,5.6-.26,11.02-1.47,16.15-3.43,5.62-5.17,12.32-8.47,19.09-11.72Z"/>
      <path class="cls-1" d="M267.76,117.76c6.21,24.29,36.44,49.74,62.45,45.56,21.91-3.52,34.9-27.11,33.31-45.56-2.59-30.09-44.97-57.66-70.78-51.63-20.92,4.89-30.09,31.67-24.98,51.63Z"/>
      <ellipse class="cls-2" cx="328.61" cy="114.53" rx="9.26" ry="10.69" transform="translate(-5.25 212.73) rotate(-35.6)"/>
    </g>
  </g>
</svg>