<?xml version="1.0" encoding="UTF-8"?>
<svg id="Layer_1" data-name="Layer 1" xmlns="http://www.w3.org/2000/svg" xmlns:xlink="http://www.w3.org/1999/xlink" viewBox="0 0 601 483">
  <defs>
    <style>
      .cls-1 {
        fill: none;
      }

      .cls-1, .cls-2, .cls-3, .cls-4, .cls-5 {
        stroke: #000;
        stroke-miterlimit: 10;
        stroke-width: 15px;
      }

      .cls-2 {
        fill: url(#Sky);
      }

      .cls-3 {
        fill: #fff;
      }

      .cls-4 {
        fill: #e6e6e6;
      }

      .cls-5 {
        fill: #f2f2f2;
      }
    </style>
    <linearGradient id="Sky" x1="112.83" y1="224.1" x2="484.74" y2="224.1" gradientUnits="userSpaceOnUse">
      <stop offset="0" stop-color="#cce0f4"/>
      <stop offset=".06" stop-color="#c2dcf2"/>
      <stop offset=".17" stop-color="#a9d2ee"/>
      <stop offset=".31" stop-color="#7fc2e7"/>
      <stop offset=".46" stop-color="#46abdd"/>
      <stop offset=".57" stop-color="#1e9cd7"/>
      <stop offset=".87" stop-color="#0075be"/>
      <stop offset=".99" stop-color="#005b97"/>
    </linearGradient>
  </defs>
  <path class="cls-3" d="M91.07,346.24c-43.56-85.55-3.57-232.66,105.83-292.46,75.81-41.45,176.77-36.5,248.47,26.95,81.02,71.69,98.57,194.97,55.98,270.27-75.39,133.29-344.18,125.07-410.28-4.76Z"/>
  <path class="cls-2" d="M482.99,303.71c-26.79,76.67-321.46,92.5-364.05-5.78-27.93-64.45,42.77-200.55,153.84-214.99,123.51-16.05,191.06,132.1,207.34,186.07,5.71,18.91,5.45,27.33,2.87,34.71Z"/>
  <rect class="cls-4" x="33.5" y="227.38" width="37.34" height="69.38" rx="12" ry="12"/>
  <rect class="cls-5" x="526.66" y="227.38" width="37.34" height="69.38" rx="12" ry="12"/>
  <path class="cls-1" d="M460.44,219.3c0,52.49-58.61,94.97-131.04,94.97"/>
  <path d="M326.22,351.18c4.96,.19,9.58-.85,13.87-3.1,4.46-1.45,8.33-3.93,11.59-7.44,3.51-3.26,5.99-7.12,7.44-11.59,2.25-4.29,3.29-8.91,3.1-13.87l-1.29-9.57c-1.71-6.1-4.8-11.39-9.26-15.89l-7.29-5.63c-5.61-3.26-11.67-4.89-18.17-4.92-4.96-.19-9.58,.85-13.87,3.1-4.46,1.45-8.33,3.93-11.59,7.44-3.51,3.26-5.99,7.12-7.44,11.59-2.25,4.29-3.29,8.91-3.1,13.87l1.29,9.57c1.71,6.1,4.8,11.39,9.26,15.89l7.29,5.63c5.61,3.26,11.67,4.89,18.17,4.92h0Z"/>
  <path d="M398.39,88.1c11.15,7.71,21.16,16.98,29.8,27.42,1.03,1.25,3.17,1.07,4.24,0,1.24-1.24,1.04-2.99,0-4.24-8.98-10.84-19.45-20.35-31.02-28.36-1.33-.92-3.33-.25-4.1,1.08-.87,1.49-.26,3.18,1.08,4.1h0Z"/>
</svg>