<?xml version="1.0" encoding="utf-8"?>
<!-- Generator: Adobe Illustrator 27.0.0, SVG Export Plug-In . SVG Version: 6.00 Build 0)  -->
<svg version="1.1" xmlns="http://www.w3.org/2000/svg" xmlns:xlink="http://www.w3.org/1999/xlink" x="0px" y="0px"
	 viewBox="0 0 1920 1080" style="enable-background:new 0 0 1920 1080;" xml:space="preserve">
<style type="text/css">
	.st0{fill:none;}
	.st1{fill:#FFDD00;}
	.st2{fill:#FFEC5F;}
	.st3{fill:#F0BF08;}
	.st4{fill:#FFF197;}
	.st5{opacity:0.61;fill:#FFFFFF;stroke:#313F76;stroke-width:9;stroke-miterlimit:10;}
	.st6{fill:#313F76;}
	.st7{font-family:'AlfaSlabOne-Regular';}
	.st8{font-size:72px;}
	.st9{fill:#841618;}
	.st10{fill:#7AC943;stroke:#000000;stroke-width:4;stroke-miterlimit:10;}
	.st11{fill:#BEF4C2;}
	.st12{fill:#333333;stroke:#333333;stroke-width:4;stroke-miterlimit:10;}
	.st13{fill:#FFFFFF;}
	.st14{stroke:#000000;stroke-miterlimit:10;}
	.st15{fill:#333333;}
	.st16{stroke:#DF2B00;stroke-width:2;stroke-miterlimit:10;}
	.st17{fill:#D8CCD7;}
</style>
<g id="Layer_4">
	
		<image style="overflow:visible;" width="1920" height="1080" xlink:href="instructions.png"  transform="matrix(1 0 0 1 -2179.686 0)">
	</image>
</g>
<g id="Layer_2_00000046321973879754371680000001115522105211094408_">
	
		<image style="overflow:visible;" width="1920" height="1080" xlink:href="game_back.png"  transform="matrix(1.0033 0 0 1 -6.3804 0)">
	</image>
	<g>
		<g>
			<g>
				<g>
					<g>
						<path class="st0" d="M40,82"/>
						<g>
							<polygon class="st1" points="24.1,97.3 31.7,83.1 20.5,71.6 36.3,74.4 43.9,60.1 46.1,76.1 62,78.9 47.5,85.9 49.7,101.9 
								38.6,90.3 							"/>
						</g>
						<g>
							<polygon class="st2" points="19.5,99.6 27.1,85.4 15.9,73.8 20.5,71.6 31.7,83.1 24.1,97.3 							"/>
						</g>
						<g>
							<polygon class="st3" points="45.1,104.1 34,92.5 38.6,90.3 49.7,101.9 							"/>
						</g>
						<g>
							<polygon class="st4" points="33.2,73.8 39.3,62.4 43.9,60.1 36.3,74.4 							"/>
						</g>
					</g>
				</g>
			</g>
		</g>
		<g>
			<g>
				<g>
					<g>
						<path class="st0" d="M93,157.7"/>
						<g>
							<polygon class="st1" points="82.9,177.4 85.4,161.5 71.1,154.2 87,151.7 89.6,135.8 96.8,150.2 112.7,147.7 101.3,159.1 
								108.6,173.4 94.3,166.1 							"/>
						</g>
						<g>
							<polygon class="st2" points="79.2,181 81.8,165.1 67.5,157.8 71.1,154.2 85.4,161.5 82.9,177.4 							"/>
						</g>
						<g>
							<polygon class="st3" points="105,177 90.6,169.7 94.3,166.1 108.6,173.4 							"/>
						</g>
						<g>
							<polygon class="st4" points="83.9,152.2 85.9,139.4 89.6,135.8 87,151.7 							"/>
						</g>
					</g>
				</g>
			</g>
		</g>
		<g>
			<g>
				<g>
					<g>
						<path class="st0" d="M312.6,22.7"/>
						<g>
							<polygon class="st1" points="294.2,35 304.1,22.4 295.2,9 310.3,14.6 320.2,1.9 319.6,18 334.7,23.5 319.2,27.9 318.6,44 
								309.7,30.6 							"/>
						</g>
						<g>
							<polygon class="st2" points="289.2,36.4 299.2,23.8 290.2,10.4 295.2,9 304.1,22.4 294.2,35 							"/>
						</g>
						<g>
							<polygon class="st3" points="313.7,45.4 304.7,32 309.7,30.6 318.6,44 							"/>
						</g>
						<g>
							<polygon class="st4" points="307.3,13.5 315.3,3.3 320.2,1.9 310.3,14.6 							"/>
						</g>
					</g>
				</g>
			</g>
		</g>
		<g>
			<g>
				<g>
					<g>
						<path class="st0" d="M385.1,145.9"/>
						<g>
							<polygon class="st1" points="365,155.3 376.8,144.3 370,129.7 384.1,137.5 395.8,126.5 392.7,142.3 406.8,150.1 390.9,152.1 
								387.8,167.9 381,153.3 							"/>
						</g>
						<g>
							<polygon class="st2" points="359.9,155.9 371.7,144.9 364.9,130.3 370,129.7 376.8,144.3 365,155.3 							"/>
						</g>
						<g>
							<polygon class="st3" points="382.7,168.5 375.9,153.9 381,153.3 387.8,167.9 							"/>
						</g>
						<g>
							<polygon class="st4" points="381.3,136 390.7,127.1 395.8,126.5 384.1,137.5 							"/>
						</g>
					</g>
				</g>
			</g>
		</g>
		<g>
			<g>
				<g>
					<g>
						<path class="st0" d="M216.6,97"/>
						<g>
							<polygon class="st1" points="206.4,116.6 209,100.8 194.8,93.3 210.7,90.9 213.3,75.1 220.5,89.5 236.4,87.1 225,98.4 
								232.2,112.7 217.9,105.3 							"/>
						</g>
						<g>
							<polygon class="st2" points="202.8,120.2 205.4,104.3 191.1,96.9 194.8,93.3 209,100.8 206.4,116.6 							"/>
						</g>
						<g>
							<polygon class="st3" points="228.5,116.3 214.2,108.9 217.9,105.3 232.2,112.7 							"/>
						</g>
						<g>
							<polygon class="st4" points="207.5,91.4 209.7,78.7 213.3,75.1 210.7,90.9 							"/>
						</g>
					</g>
				</g>
			</g>
		</g>
		<g>
			<g>
				<g>
					<g>
						<path class="st0" d="M525.6,103.6"/>
						<g>
							<polygon class="st1" points="511.1,120.4 517.3,105.5 505.1,95.1 521.2,96.4 527.4,81.5 531.1,97.2 547.1,98.5 533.4,106.9 
								537.1,122.5 524.9,112 							"/>
						</g>
						<g>
							<polygon class="st2" points="506.8,123.1 513,108.2 500.8,97.7 505.1,95.1 517.3,105.5 511.1,120.4 							"/>
						</g>
						<g>
							<polygon class="st3" points="532.7,125.2 520.5,114.7 524.9,112 537.1,122.5 							"/>
						</g>
						<g>
							<polygon class="st4" points="518,96.1 523,84.2 527.4,81.5 521.2,96.4 							"/>
						</g>
					</g>
				</g>
			</g>
		</g>
		<g>
			<g>
				<g>
					<g>
						<path class="st0" d="M631.2-20.8"/>
						<g>
							<polygon class="st1" points="623.7,0 624.2,-16.1 609,-21.5 624.5,-26 624.9,-42.1 634,-28.8 649.5,-33.4 639.6,-20.6 
								648.7,-7.3 633.6,-12.7 							"/>
						</g>
						<g>
							<polygon class="st2" points="620.6,4.1 621.1,-12 605.9,-17.4 609,-21.5 624.2,-16.1 623.7,0 							"/>
						</g>
						<g>
							<polygon class="st3" points="645.6,-3.3 630.4,-8.7 633.6,-12.7 648.7,-7.3 							"/>
						</g>
						<g>
							<polygon class="st4" points="621.4,-25.1 621.8,-38 624.9,-42.1 624.5,-26 							"/>
						</g>
					</g>
				</g>
			</g>
		</g>
		<g>
			<g>
				<g>
					<g>
						<path class="st0" d="M734.7,109"/>
						<g>
							<polygon class="st1" points="725.6,129.2 727.3,113.2 712.6,106.6 728.4,103.3 730.2,87.3 738.1,101.3 753.9,98 743.1,109.9 
								751.1,123.9 736.4,117.3 							"/>
						</g>
						<g>
							<polygon class="st2" points="722.1,133 723.9,117 709.2,110.4 712.6,106.6 727.3,113.2 725.6,129.2 							"/>
						</g>
						<g>
							<polygon class="st3" points="747.6,127.7 732.9,121.1 736.4,117.3 751.1,123.9 							"/>
						</g>
						<g>
							<polygon class="st4" points="725.3,103.9 726.7,91.1 730.2,87.3 728.4,103.3 							"/>
						</g>
					</g>
				</g>
			</g>
		</g>
		<g>
			<g>
				<g>
					<g>
						<path class="st0" d="M634.3,96.7"/>
						<g>
							<polygon class="st1" points="615.4,108.1 625.9,95.9 617.6,82.2 632.4,88.4 642.9,76.2 641.6,92.3 656.4,98.5 640.7,102.2 
								639.4,118.2 631.1,104.5 							"/>
						</g>
						<g>
							<polygon class="st2" points="610.4,109.3 620.9,97.1 612.6,83.3 617.6,82.2 625.9,95.9 615.4,108.1 							"/>
						</g>
						<g>
							<polygon class="st3" points="634.4,119.4 626.1,105.6 631.1,104.5 639.4,118.2 							"/>
						</g>
						<g>
							<polygon class="st4" points="629.5,87.2 637.9,77.4 642.9,76.2 632.4,88.4 							"/>
						</g>
					</g>
				</g>
			</g>
		</g>
		<g>
			<g>
				<g>
					<g>
						<path class="st0" d="M458.5,30.8"/>
						<g>
							<polygon class="st1" points="451.1,51.6 451.5,35.5 436.3,30.2 451.7,25.6 452.2,9.5 461.3,22.8 476.7,18.2 466.9,31 
								476,44.2 460.9,38.9 							"/>
						</g>
						<g>
							<polygon class="st2" points="447.9,55.7 448.4,39.6 433.2,34.2 436.3,30.2 451.5,35.5 451.1,51.6 							"/>
						</g>
						<g>
							<polygon class="st3" points="472.9,48.3 457.7,42.9 460.9,38.9 476,44.2 							"/>
						</g>
						<g>
							<polygon class="st4" points="448.7,26.5 449,13.6 452.2,9.5 451.7,25.6 							"/>
						</g>
					</g>
				</g>
			</g>
		</g>
	</g>
	<g>
		<g>
			<g>
				<g>
					<g>
						<path class="st0" d="M696.6,109.6"/>
						<g>
							<polygon class="st1" points="680.7,125 688.3,110.8 677.1,99.2 692.9,102 700.5,87.8 702.7,103.8 718.6,106.6 704.1,113.6 
								706.3,129.6 695.2,118 							"/>
						</g>
						<g>
							<polygon class="st2" points="676.1,127.3 683.7,113.1 672.5,101.5 677.1,99.2 688.3,110.8 680.7,125 							"/>
						</g>
						<g>
							<polygon class="st3" points="701.7,131.8 690.6,120.2 695.2,118 706.3,129.6 							"/>
						</g>
						<g>
							<polygon class="st4" points="689.8,101.5 695.9,90.1 700.5,87.8 692.9,102 							"/>
						</g>
					</g>
				</g>
			</g>
		</g>
		<g>
			<g>
				<g>
					<g>
						<path class="st0" d="M725,185.4"/>
						<g>
							<polygon class="st1" points="714.9,205.1 717.4,189.2 703.1,181.9 719,179.4 721.6,163.5 728.8,177.9 744.7,175.4 
								733.3,186.7 740.6,201.1 726.3,193.8 							"/>
						</g>
						<g>
							<polygon class="st2" points="711.2,208.7 713.8,192.8 699.5,185.5 703.1,181.9 717.4,189.2 714.9,205.1 							"/>
						</g>
						<g>
							<polygon class="st3" points="736.9,204.7 722.6,197.4 726.3,193.8 740.6,201.1 							"/>
						</g>
						<g>
							<polygon class="st4" points="715.9,179.9 717.9,167.1 721.6,163.5 719,179.4 							"/>
						</g>
					</g>
				</g>
			</g>
		</g>
		<g>
			<g>
				<g>
					<g>
						<path class="st0" d="M841.9,50.4"/>
						<g>
							<polygon class="st1" points="823.5,62.7 833.4,50.1 824.5,36.7 839.6,42.3 849.5,29.6 848.9,45.7 864,51.2 848.5,55.6 
								847.9,71.7 839,58.3 							"/>
						</g>
						<g>
							<polygon class="st2" points="818.6,64.1 828.5,51.5 819.6,38.1 824.5,36.7 833.4,50.1 823.5,62.7 							"/>
						</g>
						<g>
							<polygon class="st3" points="843,73.1 834.1,59.7 839,58.3 847.9,71.7 							"/>
						</g>
						<g>
							<polygon class="st4" points="836.6,41.2 844.6,31 849.5,29.6 839.6,42.3 							"/>
						</g>
					</g>
				</g>
			</g>
		</g>
		<g>
			<g>
				<g>
					<g>
						<path class="st0" d="M880.5,173.6"/>
						<g>
							<polygon class="st1" points="860.4,182.9 872.2,172 865.4,157.4 879.4,165.2 891.2,154.2 888.1,170 902.2,177.8 886.2,179.8 
								883.2,195.6 876.4,181 							"/>
						</g>
						<g>
							<polygon class="st2" points="855.3,183.6 867.1,172.6 860.3,158 865.4,157.4 872.2,172 860.4,182.9 							"/>
						</g>
						<g>
							<polygon class="st3" points="878.1,196.2 871.3,181.6 876.4,181 883.2,195.6 							"/>
						</g>
						<g>
							<polygon class="st4" points="876.7,163.7 886.1,154.8 891.2,154.2 879.4,165.2 							"/>
						</g>
					</g>
				</g>
			</g>
		</g>
		<g>
			<g>
				<g>
					<g>
						<path class="st0" d="M790.9,124.7"/>
						<g>
							<polygon class="st1" points="780.7,144.3 783.3,128.4 769.1,121 785,118.6 787.6,102.8 794.8,117.1 810.7,114.7 799.3,126 
								806.5,140.4 792.2,133 							"/>
						</g>
						<g>
							<polygon class="st2" points="777.1,147.9 779.7,132 765.4,124.6 769.1,121 783.3,128.4 780.7,144.3 							"/>
						</g>
						<g>
							<polygon class="st3" points="802.8,144 788.5,136.6 792.2,133 806.5,140.4 							"/>
						</g>
						<g>
							<polygon class="st4" points="781.8,119.1 783.9,106.4 787.6,102.8 785,118.6 							"/>
						</g>
					</g>
				</g>
			</g>
		</g>
		<g>
			<g>
				<g>
					<g>
						<path class="st0" d="M955.6,131.3"/>
						<g>
							<polygon class="st1" points="941.2,148.1 947.4,133.2 935.2,122.7 951.2,124.1 957.4,109.2 961.2,124.9 977.2,126.2 
								963.4,134.6 967.1,150.2 954.9,139.7 							"/>
						</g>
						<g>
							<polygon class="st2" points="936.8,150.7 943,135.9 930.8,125.4 935.2,122.7 947.4,133.2 941.2,148.1 							"/>
						</g>
						<g>
							<polygon class="st3" points="962.8,152.9 950.6,142.4 954.9,139.7 967.1,150.2 							"/>
						</g>
						<g>
							<polygon class="st4" points="948.1,123.8 953.1,111.9 957.4,109.2 951.2,124.1 							"/>
						</g>
					</g>
				</g>
			</g>
		</g>
		<g>
			<g>
				<g>
					<g>
						<path class="st0" d="M1012,6.8"/>
						<g>
							<polygon class="st1" points="1004.6,27.7 1005,11.6 989.9,6.2 1005.3,1.7 1005.8,-14.4 1014.9,-1.1 1030.3,-5.7 1020.5,7.1 
								1029.6,20.4 1014.4,15 							"/>
						</g>
						<g>
							<polygon class="st2" points="1001.5,31.8 1001.9,15.7 986.8,10.3 989.9,6.2 1005,11.6 1004.6,27.7 							"/>
						</g>
						<g>
							<polygon class="st3" points="1026.4,24.4 1011.3,19 1014.4,15 1029.6,20.4 							"/>
						</g>
						<g>
							<polygon class="st4" points="1002.3,2.6 1002.6,-10.3 1005.8,-14.4 1005.3,1.7 							"/>
						</g>
					</g>
				</g>
			</g>
		</g>
		<g>
			<g>
				<g>
					<g>
						<path class="st0" d="M1067.2,136.7"/>
						<g>
							<polygon class="st1" points="1058.1,156.9 1059.9,140.9 1045.2,134.3 1061,131 1062.7,115 1070.7,129 1086.4,125.7 
								1075.6,137.6 1083.6,151.6 1068.9,145 							"/>
						</g>
						<g>
							<polygon class="st2" points="1054.7,160.7 1056.4,144.7 1041.8,138.1 1045.2,134.3 1059.9,140.9 1058.1,156.9 							"/>
						</g>
						<g>
							<polygon class="st3" points="1080.2,155.4 1065.5,148.7 1068.9,145 1083.6,151.6 							"/>
						</g>
						<g>
							<polygon class="st4" points="1057.9,131.6 1059.3,118.8 1062.7,115 1061,131 							"/>
						</g>
					</g>
				</g>
			</g>
		</g>
		<g>
			<g>
				<g>
					<g>
						<path class="st0" d="M1013.5,124.3"/>
						<g>
							<polygon class="st1" points="994.5,135.8 1005,123.6 996.7,109.9 1011.6,116.1 1022.1,103.9 1020.7,120 1035.5,126.2 
								1019.9,129.9 1018.5,145.9 1010.2,132.1 							"/>
						</g>
						<g>
							<polygon class="st2" points="989.5,137 1000.1,124.8 991.7,111 996.7,109.9 1005,123.6 994.5,135.8 							"/>
						</g>
						<g>
							<polygon class="st3" points="1013.5,147.1 1005.2,133.3 1010.2,132.1 1018.5,145.9 							"/>
						</g>
						<g>
							<polygon class="st4" points="1008.6,114.9 1017.1,105.1 1022.1,103.9 1011.6,116.1 							"/>
						</g>
					</g>
				</g>
			</g>
		</g>
		<g>
			<g>
				<g>
					<g>
						<path class="st0" d="M919.9,58.4"/>
						<g>
							<polygon class="st1" points="912.5,79.3 912.9,63.2 897.8,57.9 913.2,53.3 913.6,37.2 922.7,50.5 938.2,45.9 928.4,58.7 
								937.5,71.9 922.3,66.6 							"/>
						</g>
						<g>
							<polygon class="st2" points="909.4,83.4 909.8,67.3 894.6,61.9 897.8,57.9 912.9,63.2 912.5,79.3 							"/>
						</g>
						<g>
							<polygon class="st3" points="934.4,76 919.2,70.6 922.3,66.6 937.5,71.9 							"/>
						</g>
						<g>
							<polygon class="st4" points="910.2,54.2 910.5,41.3 913.6,37.2 913.2,53.3 							"/>
						</g>
					</g>
				</g>
			</g>
		</g>
	</g>
</g>
<g id="Layer_3">
	<path class="st5" d="M880.4,575.9H153c-23.6,0-42.7-19.1-42.7-42.7V112.6c0-23.6,19.1-42.7,42.7-42.7h727.4
		c23.6,0,42.7,19.1,42.7,42.7v420.7C923.1,556.8,904,575.9,880.4,575.9z"/>
	<text transform="matrix(1 0 0 1 181.773 158.4296)" class="st6 st7 st8">INSTRUCTIONS !</text>
	<g>
		<g>
			<path d="M192.1,284.8c-1.3,0-2.5-0.2-3.5-0.6c-1.1-0.4-2-1-2.8-1.8c-0.8-0.8-1.4-1.7-1.8-2.7c-0.4-1-0.7-2.2-0.7-3.4
				c0-1.2,0.2-2.4,0.7-3.4c0.4-1,1.1-1.9,1.9-2.7c0.8-0.8,1.7-1.4,2.8-1.8s2.3-0.6,3.5-0.6s2.5,0.2,3.5,0.6c1.1,0.4,2,1,2.7,1.8
				l-1.1,1.1c-0.7-0.7-1.5-1.2-2.3-1.5c-0.8-0.3-1.8-0.5-2.7-0.5c-1,0-2,0.2-2.9,0.5s-1.6,0.8-2.3,1.5c-0.6,0.6-1.2,1.4-1.5,2.2
				s-0.5,1.8-0.5,2.8c0,1,0.2,1.9,0.5,2.8c0.4,0.8,0.9,1.6,1.5,2.2c0.6,0.6,1.4,1.1,2.3,1.5c0.9,0.3,1.8,0.5,2.8,0.5
				c1,0,1.9-0.1,2.7-0.4c0.9-0.3,1.6-0.8,2.4-1.5l1,1.3c-0.8,0.7-1.7,1.2-2.8,1.6C194.4,284.6,193.3,284.8,192.1,284.8z
				 M196.6,282.4v-6.2h1.7v6.4L196.6,282.4z"/>
			<path d="M208.3,284.7c-1.3,0-2.5-0.3-3.5-0.8c-1-0.6-1.8-1.3-2.3-2.3c-0.6-1-0.8-2.1-0.8-3.3c0-1.2,0.3-2.4,0.8-3.3
				s1.3-1.7,2.2-2.3c0.9-0.6,2-0.8,3.2-0.8c1.2,0,2.2,0.3,3.2,0.8s1.6,1.3,2.2,2.3c0.5,1,0.8,2.1,0.8,3.3c0,0.1,0,0.2,0,0.3
				s0,0.2,0,0.3h-11v-1.3H213l-0.7,0.5c0-0.9-0.2-1.7-0.6-2.4c-0.4-0.7-0.9-1.3-1.6-1.7c-0.7-0.4-1.4-0.6-2.3-0.6
				c-0.9,0-1.6,0.2-2.3,0.6c-0.7,0.4-1.2,1-1.6,1.7c-0.4,0.7-0.6,1.5-0.6,2.5v0.3c0,1,0.2,1.8,0.6,2.5c0.4,0.7,1,1.3,1.8,1.7
				s1.6,0.6,2.6,0.6c0.8,0,1.5-0.1,2.1-0.4s1.2-0.7,1.7-1.2l1,1.1c-0.6,0.7-1.3,1.2-2.1,1.5C210.2,284.6,209.3,284.7,208.3,284.7z"
				/>
			<path d="M215.5,273.4V272h7.8v1.4H215.5z M221.4,284.7c-1.2,0-2.1-0.3-2.7-1c-0.6-0.6-1-1.5-1-2.7v-11.8h1.7V281
				c0,0.7,0.2,1.3,0.6,1.7c0.4,0.4,0.9,0.6,1.6,0.6c0.8,0,1.4-0.2,1.9-0.6l0.6,1.2c-0.3,0.3-0.7,0.5-1.2,0.7
				C222.4,284.7,221.9,284.7,221.4,284.7z"/>
			<path class="st9" d="M236,284.6v-18.8l0.9,1h-5.5V265h6.6v19.6H236z"/>
			<path class="st9" d="M250.5,284.8c-1.5,0-2.9-0.4-4-1.2c-1.2-0.8-2.1-1.9-2.8-3.4c-0.7-1.5-1-3.3-1-5.4s0.3-3.9,1-5.4
				s1.6-2.6,2.8-3.4c1.2-0.8,2.5-1.2,4-1.2c1.5,0,2.9,0.4,4,1.2c1.2,0.8,2.1,1.9,2.8,3.4s1,3.3,1,5.4s-0.3,3.9-1,5.4
				c-0.7,1.5-1.6,2.6-2.8,3.4C253.3,284.4,252,284.8,250.5,284.8z M250.5,282.9c1.2,0,2.2-0.3,3-0.9c0.9-0.6,1.5-1.5,2-2.7
				s0.7-2.7,0.7-4.4s-0.2-3.2-0.7-4.4s-1.2-2.1-2-2.7c-0.9-0.6-1.9-0.9-3-0.9c-1.1,0-2.1,0.3-3,0.9c-0.9,0.6-1.6,1.5-2,2.7
				s-0.7,2.7-0.7,4.4s0.2,3.2,0.7,4.4s1.2,2.1,2,2.7C248.3,282.6,249.3,282.9,250.5,282.9z"/>
			<path class="st9" d="M270.3,284.6V265h2.1v19.6H270.3z M272.1,279.7l-0.1-2.5l11.9-12.2h2.4l-8.7,9.1l-1.2,1.3L272.1,279.7z
				 M284.3,284.6l-8.5-9.7l1.4-1.5l9.5,11.3H284.3z"/>
			<path class="st9" d="M290.2,284.6V265h2.1v19.6H290.2z"/>
			<path class="st9" d="M298.6,284.6V265h2.1v17.8h11v1.8H298.6z"/>
			<path class="st9" d="M315.1,284.6V265h2.1v17.8h11v1.8H315.1z"/>
			<path class="st9" d="M337,284.8c-1.5,0-2.9-0.2-4.2-0.7c-1.3-0.5-2.4-1.1-3.1-1.8l0.8-1.6c0.7,0.7,1.6,1.2,2.8,1.7
				c1.2,0.5,2.4,0.7,3.7,0.7c1.2,0,2.2-0.2,3-0.5c0.8-0.3,1.3-0.7,1.7-1.2c0.4-0.5,0.5-1.1,0.5-1.7c0-0.8-0.2-1.4-0.7-1.8
				s-1-0.8-1.7-1.1c-0.7-0.3-1.5-0.5-2.4-0.7c-0.9-0.2-1.7-0.4-2.6-0.7s-1.6-0.5-2.4-0.9c-0.7-0.4-1.3-0.9-1.7-1.6
				c-0.4-0.6-0.7-1.5-0.7-2.5c0-1,0.3-1.9,0.8-2.7c0.5-0.8,1.3-1.5,2.4-2c1.1-0.5,2.4-0.7,4.1-0.7c1.1,0,2.2,0.2,3.3,0.5
				c1.1,0.3,2,0.7,2.8,1.3l-0.7,1.7c-0.8-0.6-1.7-1-2.7-1.2c-0.9-0.3-1.9-0.4-2.7-0.4c-1.2,0-2.1,0.2-2.9,0.5
				c-0.8,0.3-1.3,0.7-1.7,1.3s-0.5,1.1-0.5,1.8c0,0.8,0.2,1.4,0.7,1.8s1,0.8,1.7,1.1c0.7,0.3,1.5,0.5,2.4,0.7
				c0.9,0.2,1.7,0.4,2.6,0.7c0.8,0.2,1.6,0.6,2.4,0.9c0.7,0.4,1.3,0.9,1.7,1.5s0.7,1.5,0.7,2.5c0,1-0.3,1.8-0.8,2.6
				c-0.5,0.8-1.3,1.5-2.4,2C340.1,284.5,338.7,284.8,337,284.8z"/>
			<path d="M354.7,284.6v-16.8h7.2c1.9,0,3.3,0.4,4.4,1.1s1.5,1.8,1.5,3.2c0,0.9-0.2,1.7-0.6,2.3s-1,1.1-1.7,1.4
				c-0.7,0.3-1.5,0.5-2.4,0.5l0.4-0.6c1.1,0,2,0.2,2.8,0.5c0.8,0.3,1.4,0.8,1.8,1.5c0.4,0.6,0.6,1.5,0.6,2.4c0,1.4-0.5,2.5-1.6,3.3
				s-2.6,1.2-4.7,1.2H354.7z M356.4,283.2h5.9c1.5,0,2.6-0.3,3.4-0.8c0.8-0.5,1.2-1.3,1.2-2.4c0-1.1-0.4-1.9-1.2-2.4
				c-0.8-0.5-1.9-0.8-3.4-0.8h-6.1v-1.5h5.5c1.3,0,2.4-0.3,3.1-0.8s1.1-1.3,1.1-2.3c0-1-0.4-1.8-1.1-2.3s-1.8-0.8-3.1-0.8h-5.4
				V283.2z"/>
			<path d="M374.5,283.1h10.1v1.5h-11.9v-16.8h11.5v1.5h-9.7V283.1z M374.3,275.3h8.9v1.5h-8.9V275.3z"/>
			<path d="M390.6,284.6h-1.8v-16.8h11.5v1.5h-9.7V284.6z M390.4,276h8.9v1.5h-8.9V276z"/>
			<path d="M411.3,284.8c-1.3,0-2.4-0.2-3.5-0.6c-1.1-0.4-2-1-2.8-1.8s-1.4-1.7-1.8-2.7c-0.4-1-0.7-2.2-0.7-3.4
				c0-1.2,0.2-2.4,0.7-3.4c0.4-1,1.1-1.9,1.8-2.7s1.7-1.4,2.8-1.8s2.2-0.6,3.5-0.6c1.3,0,2.4,0.2,3.5,0.6c1.1,0.4,2,1,2.8,1.8
				c0.8,0.8,1.4,1.7,1.8,2.7c0.4,1,0.7,2.2,0.7,3.4c0,1.2-0.2,2.4-0.7,3.4c-0.4,1-1.1,1.9-1.8,2.7c-0.8,0.8-1.7,1.4-2.8,1.8
				C413.8,284.6,412.6,284.8,411.3,284.8z M411.3,283.2c1,0,1.9-0.2,2.8-0.5c0.9-0.3,1.6-0.8,2.2-1.5c0.6-0.6,1.1-1.4,1.5-2.2
				c0.4-0.8,0.5-1.8,0.5-2.8c0-1-0.2-1.9-0.5-2.8c-0.4-0.8-0.8-1.6-1.5-2.2c-0.6-0.6-1.4-1.1-2.2-1.5c-0.9-0.3-1.8-0.5-2.8-0.5
				s-1.9,0.2-2.8,0.5c-0.9,0.3-1.6,0.8-2.3,1.5s-1.1,1.4-1.5,2.2c-0.4,0.8-0.5,1.8-0.5,2.8c0,1,0.2,1.9,0.5,2.8
				c0.4,0.8,0.8,1.6,1.5,2.2s1.4,1.1,2.3,1.5C409.4,283,410.3,283.2,411.3,283.2z"/>
			<path d="M424.1,284.6v-16.8h6.3c1.4,0,2.6,0.2,3.7,0.7c1,0.5,1.8,1.1,2.4,2c0.6,0.9,0.8,1.9,0.8,3.1c0,1.2-0.3,2.2-0.8,3.1
				c-0.6,0.9-1.3,1.5-2.4,2c-1,0.5-2.2,0.7-3.7,0.7h-5.3l0.8-0.8v6.1H424.1z M425.9,278.6l-0.8-0.8h5.3c1.7,0,3-0.4,3.8-1.1
				c0.9-0.7,1.3-1.8,1.3-3.1c0-1.3-0.4-2.4-1.3-3.1c-0.9-0.7-2.1-1.1-3.8-1.1h-5.3l0.8-0.8V278.6z M435.6,284.6l-4.3-6.1h1.9
				l4.3,6.1H435.6z"/>
			<path d="M443.3,283.1h10.1v1.5h-11.9v-16.8H453v1.5h-9.7V283.1z M443.1,275.3h8.9v1.5h-8.9V275.3z"/>
			<path d="M467.1,284.6v-15.3h-5.9v-1.5h13.6v1.5h-5.9v15.3H467.1z"/>
			<path d="M477.6,284.6v-16.8h1.8v16.8H477.6z"/>
			<path d="M484.9,284.6v-16.8h1.5l7.7,13.1h-0.8l7.6-13.1h1.5v16.8h-1.7v-14.1h0.4l-7,12h-0.8l-7.1-12h0.5v14.1H484.9z"/>
			<path d="M509.6,283.1h10.1v1.5h-11.9v-16.8h11.5v1.5h-9.7V283.1z M509.4,275.3h8.9v1.5h-8.9V275.3z"/>
			<path d="M530.1,284.6v-16.8h1.8v16.8H530.1z"/>
			<path d="M542,284.8c-1.2,0-2.4-0.2-3.6-0.6c-1.1-0.4-2-0.9-2.7-1.6l0.7-1.4c0.6,0.6,1.4,1.1,2.4,1.5c1,0.4,2.1,0.6,3.2,0.6
				c1.1,0,1.9-0.1,2.6-0.4c0.7-0.3,1.2-0.6,1.5-1.1c0.3-0.4,0.5-0.9,0.5-1.5c0-0.7-0.2-1.2-0.6-1.6c-0.4-0.4-0.9-0.7-1.5-0.9
				c-0.6-0.2-1.3-0.4-2-0.6c-0.7-0.2-1.5-0.4-2.2-0.6c-0.7-0.2-1.4-0.5-2-0.8s-1.1-0.8-1.5-1.3s-0.6-1.3-0.6-2.2
				c0-0.8,0.2-1.6,0.7-2.3c0.4-0.7,1.1-1.3,2-1.7s2.1-0.6,3.5-0.6c0.9,0,1.9,0.1,2.8,0.4c0.9,0.3,1.7,0.6,2.4,1.1l-0.6,1.4
				c-0.7-0.5-1.5-0.8-2.3-1.1c-0.8-0.2-1.6-0.3-2.3-0.3c-1,0-1.8,0.1-2.5,0.4c-0.7,0.3-1.1,0.6-1.5,1.1c-0.3,0.5-0.5,1-0.5,1.5
				c0,0.7,0.2,1.2,0.6,1.6s0.9,0.7,1.5,0.9c0.6,0.2,1.3,0.4,2,0.6c0.7,0.2,1.5,0.4,2.2,0.6c0.7,0.2,1.4,0.5,2,0.8
				c0.6,0.3,1.1,0.8,1.5,1.3c0.4,0.5,0.6,1.3,0.6,2.1c0,0.8-0.2,1.6-0.7,2.3s-1.1,1.3-2.1,1.7C544.6,284.6,543.4,284.8,542,284.8z"
				/>
			<path d="M565.2,284.8c-2.1,0-3.8-0.6-5.1-1.8c-1.2-1.2-1.8-3.1-1.8-5.5v-9.6h1.8v9.6c0,2,0.4,3.4,1.3,4.4
				c0.9,0.9,2.2,1.4,3.8,1.4c1.6,0,2.9-0.5,3.8-1.4c0.9-0.9,1.3-2.4,1.3-4.4v-9.6h1.7v9.6c0,2.4-0.6,4.2-1.8,5.5
				C569,284.1,567.3,284.8,565.2,284.8z"/>
			<path d="M577.4,284.6v-16.8h6.3c1.4,0,2.6,0.2,3.7,0.7c1,0.5,1.8,1.1,2.4,2c0.6,0.9,0.8,1.9,0.8,3.1c0,1.2-0.3,2.2-0.8,3.1
				c-0.6,0.9-1.3,1.5-2.4,2c-1,0.5-2.2,0.7-3.7,0.7h-5.3l0.8-0.8v6.1H577.4z M579.2,278.6l-0.8-0.9h5.3c1.7,0,3-0.4,3.8-1.1
				c0.9-0.7,1.3-1.8,1.3-3.1c0-1.3-0.4-2.4-1.3-3.1c-0.9-0.7-2.1-1.1-3.8-1.1h-5.3l0.8-0.8V278.6z"/>
			<path d="M601.3,284.7c-0.4,0-0.7-0.1-0.9-0.4s-0.4-0.5-0.4-0.9c0-0.4,0.1-0.6,0.4-0.9c0.2-0.2,0.5-0.3,0.9-0.3
				c0.4,0,0.7,0.1,0.9,0.3c0.2,0.2,0.3,0.5,0.3,0.9c0,0.3-0.1,0.6-0.3,0.9C602,284.6,601.7,284.7,601.3,284.7z M600.7,279.6
				l-0.3-11.8h2l-0.4,11.8H600.7z"/>
		</g>
	</g>
	<g>
		<g>
			<path d="M188.8,378.4v-6.2l0.4,1.1l-7.1-11.7h1.9l6.3,10.2h-1l6.3-10.2h1.8l-7.1,11.7l0.4-1.1v6.2H188.8z"/>
			<path d="M207.3,378.6c-1.3,0-2.4-0.2-3.5-0.6c-1.1-0.4-2-1-2.8-1.8s-1.4-1.7-1.8-2.7c-0.4-1-0.7-2.2-0.7-3.4
				c0-1.2,0.2-2.4,0.7-3.4c0.4-1,1.1-1.9,1.8-2.7s1.7-1.4,2.8-1.8s2.2-0.6,3.5-0.6c1.3,0,2.4,0.2,3.5,0.6c1.1,0.4,2,1,2.8,1.8
				c0.8,0.8,1.4,1.7,1.8,2.7c0.4,1,0.7,2.2,0.7,3.4c0,1.2-0.2,2.4-0.7,3.4c-0.4,1-1.1,1.9-1.8,2.7c-0.8,0.8-1.7,1.4-2.8,1.8
				C209.8,378.3,208.6,378.6,207.3,378.6z M207.3,377c1,0,1.9-0.2,2.8-0.5c0.9-0.3,1.6-0.8,2.2-1.5c0.6-0.6,1.1-1.4,1.5-2.2
				c0.4-0.8,0.5-1.8,0.5-2.8c0-1-0.2-1.9-0.5-2.8c-0.4-0.8-0.8-1.6-1.5-2.2c-0.6-0.6-1.4-1.1-2.2-1.5c-0.9-0.3-1.8-0.5-2.8-0.5
				s-1.9,0.2-2.8,0.5c-0.9,0.3-1.6,0.8-2.3,1.5s-1.1,1.4-1.5,2.2c-0.4,0.8-0.5,1.8-0.5,2.8c0,1,0.2,1.9,0.5,2.8
				c0.4,0.8,0.8,1.6,1.5,2.2s1.4,1.1,2.3,1.5C205.4,376.8,206.3,377,207.3,377z"/>
			<path d="M226.9,378.6c-2.1,0-3.8-0.6-5.1-1.8c-1.2-1.2-1.8-3.1-1.8-5.5v-9.6h1.8v9.6c0,2,0.4,3.4,1.3,4.4
				c0.9,0.9,2.2,1.4,3.8,1.4c1.6,0,2.9-0.5,3.8-1.4c0.9-0.9,1.3-2.4,1.3-4.4v-9.6h1.7v9.6c0,2.4-0.6,4.2-1.8,5.5
				C230.7,377.9,229,378.6,226.9,378.6z"/>
			<path d="M252.8,378.6c-1.3,0-2.4-0.2-3.5-0.6c-1.1-0.4-2-1-2.8-1.8s-1.4-1.7-1.8-2.7c-0.4-1-0.7-2.2-0.7-3.4
				c0-1.2,0.2-2.4,0.7-3.4c0.4-1,1.1-1.9,1.8-2.7s1.7-1.4,2.8-1.8s2.2-0.6,3.5-0.6c1.3,0,2.4,0.2,3.5,0.6c1.1,0.4,2,1,2.8,1.8
				c0.8,0.8,1.4,1.7,1.8,2.7c0.4,1,0.7,2.2,0.7,3.4c0,1.2-0.2,2.4-0.7,3.4c-0.4,1-1.1,1.9-1.8,2.7c-0.8,0.8-1.7,1.4-2.8,1.8
				C255.2,378.3,254,378.6,252.8,378.6z M252.8,377c1,0,1.9-0.2,2.8-0.5c0.9-0.3,1.6-0.8,2.2-1.5c0.6-0.6,1.1-1.4,1.5-2.2
				c0.4-0.8,0.5-1.8,0.5-2.8c0-1-0.2-1.9-0.5-2.8c-0.4-0.8-0.8-1.6-1.5-2.2c-0.6-0.6-1.4-1.1-2.2-1.5c-0.9-0.3-1.8-0.5-2.8-0.5
				s-1.9,0.2-2.8,0.5c-0.9,0.3-1.6,0.8-2.3,1.5s-1.1,1.4-1.5,2.2c-0.4,0.8-0.5,1.8-0.5,2.8c0,1,0.2,1.9,0.5,2.8
				c0.4,0.8,0.8,1.6,1.5,2.2s1.4,1.1,2.3,1.5C250.8,376.8,251.8,377,252.8,377z"/>
			<path d="M265.6,378.4v-16.8h1.5l11.6,14.6h-0.8v-14.6h1.8v16.8h-1.5l-11.6-14.6h0.8v14.6H265.6z"/>
			<path d="M285.1,378.4v-16.8h1.8v15.3h9.4v1.5H285.1z"/>
			<path d="M303.2,378.4v-6.2l0.4,1.1l-7.1-11.7h1.9l6.3,10.2h-1l6.3-10.2h1.8l-7.1,11.7l0.4-1.1v6.2H303.2z"/>
			<path d="M322.5,378.4h-1.8v-16.8h1.8V378.4z M333.2,370.7h-10.9v-1.6h10.9V370.7z M333,361.6h1.8v16.8H333V361.6z"/>
			<path d="M337.6,378.4l7.7-16.8h1.8l7.7,16.8h-1.9l-7.1-15.8h0.7l-7.1,15.8H337.6z M340.6,373.9l0.5-1.4h9.8l0.5,1.4H340.6z"/>
			<path d="M362.2,378.4l-7.4-16.8h1.9l7,15.8h-1.1l7-15.8h1.8l-7.4,16.8H362.2z"/>
			<path d="M376,376.9h10.1v1.5h-11.9v-16.8h11.5v1.5H376V376.9z M375.8,369.1h8.9v1.5h-8.9V369.1z"/>
			<path class="st9" d="M402.2,378.6c-1.4,0-2.8-0.2-4-0.7c-1.3-0.5-2.3-1.1-3-1.8l1-1.6c0.6,0.7,1.5,1.2,2.6,1.6
				c1.1,0.4,2.2,0.6,3.5,0.6c1.6,0,2.9-0.4,3.7-1.1c0.9-0.7,1.3-1.7,1.3-2.9s-0.4-2.1-1.3-2.9c-0.8-0.7-2.2-1.1-4-1.1h-1.4v-1.5
				l6-7.6l0.3,0.8h-10.9v-1.8h12.6v1.4l-6,7.6l-1-0.6h0.8c2.4,0,4.1,0.5,5.3,1.6c1.2,1,1.8,2.4,1.8,4c0,1.1-0.3,2.1-0.8,3
				c-0.5,0.9-1.3,1.6-2.4,2.1S403.8,378.6,402.2,378.6z"/>
			<path class="st9" d="M419.9,378.6c-1.5,0-2.9-0.4-4-1.2c-1.2-0.8-2.1-1.9-2.8-3.4c-0.7-1.5-1-3.3-1-5.4s0.3-3.9,1-5.4
				s1.6-2.6,2.8-3.4c1.2-0.8,2.5-1.2,4-1.2c1.5,0,2.9,0.4,4,1.2c1.2,0.8,2.1,1.9,2.8,3.4s1,3.3,1,5.4s-0.3,3.9-1,5.4
				c-0.7,1.5-1.6,2.6-2.8,3.4C422.8,378.2,421.4,378.6,419.9,378.6z M419.9,376.7c1.2,0,2.2-0.3,3-0.9c0.9-0.6,1.5-1.5,2-2.7
				s0.7-2.7,0.7-4.4s-0.2-3.2-0.7-4.4s-1.2-2.1-2-2.7c-0.9-0.6-1.9-0.9-3-0.9c-1.1,0-2.1,0.3-3,0.9c-0.9,0.6-1.6,1.5-2,2.7
				s-0.7,2.7-0.7,4.4s0.2,3.2,0.7,4.4s1.2,2.1,2,2.7C417.8,376.4,418.8,376.7,419.9,376.7z"/>
			<path class="st9" d="M445.1,378.6c-1.5,0-2.9-0.2-4.2-0.7c-1.3-0.5-2.4-1.1-3.1-1.8l0.8-1.6c0.7,0.7,1.6,1.2,2.8,1.7
				c1.2,0.5,2.4,0.7,3.7,0.7c1.2,0,2.2-0.2,3-0.5c0.8-0.3,1.3-0.7,1.7-1.2c0.4-0.5,0.5-1.1,0.5-1.7c0-0.8-0.2-1.4-0.7-1.8
				s-1-0.8-1.7-1.1c-0.7-0.3-1.5-0.5-2.4-0.7c-0.9-0.2-1.7-0.4-2.6-0.7s-1.6-0.5-2.4-0.9c-0.7-0.4-1.3-0.9-1.7-1.6
				c-0.4-0.6-0.7-1.5-0.7-2.5c0-1,0.3-1.9,0.8-2.7c0.5-0.8,1.3-1.5,2.4-2c1.1-0.5,2.4-0.7,4.1-0.7c1.1,0,2.2,0.2,3.3,0.5
				c1.1,0.3,2,0.7,2.8,1.3l-0.7,1.7c-0.8-0.6-1.7-1-2.7-1.2c-0.9-0.3-1.9-0.4-2.7-0.4c-1.2,0-2.1,0.2-2.9,0.5
				c-0.8,0.3-1.3,0.7-1.7,1.3s-0.5,1.1-0.5,1.8c0,0.8,0.2,1.4,0.7,1.8s1,0.8,1.7,1.1c0.7,0.3,1.5,0.5,2.4,0.7
				c0.9,0.2,1.7,0.4,2.6,0.7c0.8,0.2,1.6,0.6,2.4,0.9c0.7,0.4,1.3,0.9,1.7,1.5s0.7,1.5,0.7,2.5c0,1-0.3,1.8-0.8,2.6
				c-0.5,0.8-1.3,1.5-2.4,2C448.2,378.3,446.8,378.6,445.1,378.6z"/>
			<path class="st9" d="M459,376.6h11.8v1.8h-13.9v-19.6h13.4v1.8H459V376.6z M458.8,367.6h10.4v1.8h-10.4V367.6z"/>
			<path class="st9" d="M484.2,378.6c-1.5,0-2.8-0.2-4.1-0.7c-1.3-0.5-2.3-1.2-3.2-2.1c-0.9-0.9-1.6-2-2.1-3.2
				c-0.5-1.2-0.8-2.5-0.8-4s0.3-2.8,0.8-4c0.5-1.2,1.2-2.3,2.2-3.2c0.9-0.9,2-1.6,3.3-2.1c1.3-0.5,2.6-0.7,4.1-0.7
				c1.4,0,2.8,0.2,4,0.7c1.2,0.5,2.3,1.2,3.2,2.1l-1.3,1.3c-0.8-0.8-1.7-1.4-2.7-1.8s-2-0.5-3.1-0.5c-1.2,0-2.3,0.2-3.3,0.6
				c-1,0.4-1.9,1-2.6,1.7c-0.7,0.7-1.3,1.6-1.8,2.6c-0.4,1-0.6,2.1-0.6,3.2s0.2,2.3,0.6,3.2c0.4,1,1,1.8,1.8,2.6
				c0.7,0.7,1.6,1.3,2.6,1.7s2.1,0.6,3.3,0.6c1.1,0,2.2-0.2,3.1-0.6c1-0.4,1.9-1,2.7-1.8l1.3,1.3c-0.9,1-1.9,1.7-3.2,2.2
				C487,378.3,485.6,378.6,484.2,378.6z"/>
			<path class="st9" d="M504.4,378.6c-1.5,0-2.8-0.2-4.1-0.7c-1.3-0.5-2.4-1.2-3.3-2.1s-1.6-2-2.2-3.2s-0.8-2.5-0.8-4s0.3-2.8,0.8-4
				s1.2-2.3,2.2-3.2s2-1.6,3.3-2.1c1.3-0.5,2.6-0.7,4.1-0.7c1.5,0,2.8,0.2,4.1,0.7c1.3,0.5,2.3,1.2,3.3,2.1c0.9,0.9,1.6,2,2.2,3.2
				c0.5,1.2,0.8,2.5,0.8,4s-0.3,2.8-0.8,4c-0.5,1.2-1.2,2.3-2.2,3.2c-0.9,0.9-2,1.6-3.3,2.1C507.2,378.3,505.8,378.6,504.4,378.6z
				 M504.4,376.7c1.2,0,2.3-0.2,3.3-0.6c1-0.4,1.9-1,2.6-1.7c0.7-0.7,1.3-1.6,1.7-2.6c0.4-1,0.6-2.1,0.6-3.2s-0.2-2.3-0.6-3.2
				c-0.4-1-1-1.8-1.7-2.6c-0.7-0.7-1.6-1.3-2.6-1.7c-1-0.4-2.1-0.6-3.3-0.6s-2.3,0.2-3.3,0.6c-1,0.4-1.9,1-2.6,1.7
				c-0.7,0.7-1.3,1.6-1.7,2.6c-0.4,1-0.6,2.1-0.6,3.2c0,1.2,0.2,2.2,0.6,3.2c0.4,1,1,1.9,1.7,2.6c0.7,0.7,1.6,1.3,2.6,1.7
				C502.1,376.5,503.2,376.7,504.4,376.7z"/>
			<path class="st9" d="M519.3,378.4v-19.6h1.7l13.5,17h-0.9v-17h2v19.6H534l-13.5-17h0.9v17H519.3z"/>
			<path class="st9" d="M542.1,378.4v-19.6h8c2.1,0,3.9,0.4,5.5,1.2c1.6,0.8,2.8,2,3.7,3.5c0.9,1.5,1.3,3.2,1.3,5.1
				s-0.4,3.6-1.3,5.1c-0.9,1.5-2.1,2.6-3.7,3.5c-1.6,0.8-3.4,1.2-5.5,1.2H542.1z M544.1,376.6h5.8c1.7,0,3.2-0.3,4.5-1
				c1.3-0.7,2.3-1.6,3-2.8c0.7-1.2,1.1-2.6,1.1-4.2c0-1.6-0.4-3-1.1-4.2c-0.7-1.2-1.7-2.1-3-2.8c-1.3-0.7-2.8-1-4.5-1h-5.8V376.6z"
				/>
			<path class="st9" d="M570.6,378.6c-1.5,0-2.9-0.2-4.2-0.7c-1.3-0.5-2.4-1.1-3.1-1.8l0.8-1.6c0.7,0.7,1.6,1.2,2.8,1.7
				c1.2,0.5,2.4,0.7,3.7,0.7c1.2,0,2.2-0.2,3-0.5c0.8-0.3,1.3-0.7,1.7-1.2c0.4-0.5,0.5-1.1,0.5-1.7c0-0.8-0.2-1.4-0.7-1.8
				s-1-0.8-1.7-1.1c-0.7-0.3-1.5-0.5-2.4-0.7c-0.9-0.2-1.7-0.4-2.6-0.7s-1.6-0.5-2.4-0.9c-0.7-0.4-1.3-0.9-1.7-1.6
				c-0.4-0.6-0.7-1.5-0.7-2.5c0-1,0.3-1.9,0.8-2.7c0.5-0.8,1.3-1.5,2.4-2c1.1-0.5,2.4-0.7,4.1-0.7c1.1,0,2.2,0.2,3.3,0.5
				c1.1,0.3,2,0.7,2.8,1.3l-0.7,1.7c-0.8-0.6-1.7-1-2.7-1.2c-0.9-0.3-1.9-0.4-2.7-0.4c-1.2,0-2.1,0.2-2.9,0.5
				c-0.8,0.3-1.3,0.7-1.7,1.3s-0.5,1.1-0.5,1.8c0,0.8,0.2,1.4,0.7,1.8s1,0.8,1.7,1.1c0.7,0.3,1.5,0.5,2.4,0.7
				c0.9,0.2,1.7,0.4,2.6,0.7c0.8,0.2,1.6,0.6,2.4,0.9c0.7,0.4,1.3,0.9,1.7,1.5s0.7,1.5,0.7,2.5c0,1-0.3,1.8-0.8,2.6
				c-0.5,0.8-1.3,1.5-2.4,2C573.6,378.3,572.3,378.6,570.6,378.6z"/>
			<path d="M591.5,378.4v-15.3h-5.9v-1.5h13.6v1.5h-5.9v15.3H591.5z"/>
			<path d="M609.4,378.6c-1.3,0-2.4-0.2-3.5-0.6c-1.1-0.4-2-1-2.8-1.8s-1.4-1.7-1.8-2.7c-0.4-1-0.7-2.2-0.7-3.4
				c0-1.2,0.2-2.4,0.7-3.4c0.4-1,1.1-1.9,1.8-2.7s1.7-1.4,2.8-1.8s2.2-0.6,3.5-0.6c1.3,0,2.4,0.2,3.5,0.6c1.1,0.4,2,1,2.8,1.8
				c0.8,0.8,1.4,1.7,1.8,2.7c0.4,1,0.7,2.2,0.7,3.4c0,1.2-0.2,2.4-0.7,3.4c-0.4,1-1.1,1.9-1.8,2.7c-0.8,0.8-1.7,1.4-2.8,1.8
				C611.8,378.3,610.6,378.6,609.4,378.6z M609.4,377c1,0,1.9-0.2,2.8-0.5c0.9-0.3,1.6-0.8,2.2-1.5c0.6-0.6,1.1-1.4,1.5-2.2
				c0.4-0.8,0.5-1.8,0.5-2.8c0-1-0.2-1.9-0.5-2.8c-0.4-0.8-0.8-1.6-1.5-2.2c-0.6-0.6-1.4-1.1-2.2-1.5c-0.9-0.3-1.8-0.5-2.8-0.5
				s-1.9,0.2-2.8,0.5c-0.9,0.3-1.6,0.8-2.3,1.5s-1.1,1.4-1.5,2.2c-0.4,0.8-0.5,1.8-0.5,2.8c0,1,0.2,1.9,0.5,2.8
				c0.4,0.8,0.8,1.6,1.5,2.2s1.4,1.1,2.3,1.5C607.4,376.8,608.3,377,609.4,377z"/>
			<path d="M635.2,378.6c-2.1,0-3.8-0.6-5.1-1.8c-1.2-1.2-1.8-3.1-1.8-5.5v-9.6h1.8v9.6c0,2,0.4,3.4,1.3,4.4
				c0.9,0.9,2.2,1.4,3.8,1.4c1.6,0,2.9-0.5,3.8-1.4c0.9-0.9,1.3-2.4,1.3-4.4v-9.6h1.7v9.6c0,2.4-0.6,4.2-1.8,5.5
				C639,377.9,637.3,378.6,635.2,378.6z"/>
			<path d="M647.4,378.4v-16.8h1.8v15.3h9.4v1.5H647.4z"/>
			<path d="M664.8,378.4v-15.3h-5.9v-1.5h13.6v1.5h-5.9v15.3H664.8z"/>
			<path d="M675.4,378.4v-16.8h1.8v16.8H675.4z"/>
			<path d="M682.6,378.4v-16.8h1.5l7.7,13.1H691l7.6-13.1h1.5v16.8h-1.7v-14.1h0.4l-7,12h-0.8l-7.1-12h0.5v14.1H682.6z"/>
			<path d="M702.8,378.4l7.7-16.8h1.8l7.7,16.8h-1.9l-7.1-15.8h0.7l-7.1,15.8H702.8z M705.9,373.9l0.5-1.4h9.8l0.5,1.4H705.9z"/>
			<path d="M726,378.4v-15.3h-5.9v-1.5h13.6v1.5h-5.9v15.3H726z"/>
			<path d="M738.3,376.9h10.1v1.5h-11.9v-16.8H748v1.5h-9.7V376.9z M738.1,369.1h8.9v1.5h-8.9V369.1z"/>
			<path d="M758.8,378.4v-16.8h6.8c1.8,0,3.4,0.4,4.7,1.1c1.4,0.7,2.4,1.7,3.2,3c0.8,1.3,1.1,2.7,1.1,4.4c0,1.6-0.4,3.1-1.1,4.4
				c-0.8,1.3-1.8,2.3-3.2,3c-1.4,0.7-2.9,1.1-4.7,1.1H758.8z M760.6,376.9h5c1.5,0,2.8-0.3,3.9-0.9c1.1-0.6,1.9-1.4,2.6-2.4
				c0.6-1,0.9-2.2,0.9-3.6c0-1.4-0.3-2.6-0.9-3.6c-0.6-1-1.5-1.8-2.6-2.4c-1.1-0.6-2.4-0.9-3.9-0.9h-5V376.9z"/>
			<path d="M780.4,376.9h10.1v1.5h-11.9v-16.8h11.5v1.5h-9.7V376.9z M780.3,369.1h8.9v1.5h-8.9V369.1z"/>
			<path d="M796.5,378.4h-1.8v-16.8h11.5v1.5h-9.7V378.4z M796.3,369.7h8.9v1.5h-8.9V369.7z"/>
			<path d="M811.7,376.9h10.1v1.5h-11.9v-16.8h11.5v1.5h-9.7V376.9z M811.5,369.1h8.9v1.5h-8.9V369.1z"/>
			<path d="M823.3,378.4l7.7-16.8h1.8l7.7,16.8h-1.9l-7.1-15.8h0.7l-7.1,15.8H823.3z M826.3,373.9l0.5-1.4h9.8l0.5,1.4H826.3z"/>
			<path d="M846.4,378.4v-15.3h-5.9v-1.5h13.6v1.5h-5.9v15.3H846.4z"/>
		</g>
	</g>
	<g>
		<g>
			<path d="M184.4,473.4v-16.8h1.5l7.7,13.1h-0.8l7.6-13.1h1.5v16.8h-1.7v-14.1h0.4l-7,12h-0.8l-7.1-12h0.5v14.1H184.4z"/>
			<path d="M214.7,473.6c-1.3,0-2.4-0.2-3.5-0.6c-1.1-0.4-2-1-2.8-1.8s-1.4-1.7-1.8-2.7c-0.4-1-0.7-2.2-0.7-3.4
				c0-1.2,0.2-2.4,0.7-3.4c0.4-1,1.1-1.9,1.8-2.7s1.7-1.4,2.8-1.8s2.2-0.6,3.5-0.6c1.3,0,2.4,0.2,3.5,0.6c1.1,0.4,2,1,2.8,1.8
				c0.8,0.8,1.4,1.7,1.8,2.7c0.4,1,0.7,2.2,0.7,3.4c0,1.2-0.2,2.4-0.7,3.4c-0.4,1-1.1,1.9-1.8,2.7c-0.8,0.8-1.7,1.4-2.8,1.8
				C217.1,473.4,215.9,473.6,214.7,473.6z M214.7,472c1,0,1.9-0.2,2.8-0.5c0.9-0.3,1.6-0.8,2.2-1.5c0.6-0.6,1.1-1.4,1.5-2.2
				c0.4-0.8,0.5-1.8,0.5-2.8c0-1-0.2-1.9-0.5-2.8c-0.4-0.8-0.8-1.6-1.5-2.2c-0.6-0.6-1.4-1.1-2.2-1.5c-0.9-0.3-1.8-0.5-2.8-0.5
				s-1.9,0.2-2.8,0.5c-0.9,0.3-1.6,0.8-2.3,1.5s-1.1,1.4-1.5,2.2c-0.4,0.8-0.5,1.8-0.5,2.8c0,1,0.2,1.9,0.5,2.8
				c0.4,0.8,0.8,1.6,1.5,2.2s1.4,1.1,2.3,1.5C212.7,471.8,213.7,472,214.7,472z"/>
			<path d="M230.7,473.4v-15.3h-5.9v-1.5h13.6v1.5h-5.9v15.3H230.7z"/>
			<path d="M243,473.4h-1.8v-16.8h1.8V473.4z M253.7,465.7h-10.9v-1.6h10.9V465.7z M253.5,456.6h1.8v16.8h-1.8V456.6z"/>
			<path d="M262.5,471.9h10.1v1.5h-11.9v-16.8h11.5v1.5h-9.7V471.9z M262.3,464.1h8.9v1.5h-8.9V464.1z"/>
			<path d="M276.8,473.4v-16.8h6.3c1.4,0,2.6,0.2,3.7,0.7c1,0.5,1.8,1.1,2.4,2c0.6,0.9,0.8,1.9,0.8,3.1c0,1.2-0.3,2.2-0.8,3.1
				c-0.6,0.9-1.3,1.5-2.4,2c-1,0.5-2.2,0.7-3.7,0.7h-5.3l0.8-0.8v6.1H276.8z M278.6,467.4l-0.8-0.8h5.3c1.7,0,3-0.4,3.8-1.1
				c0.9-0.7,1.3-1.8,1.3-3.1c0-1.3-0.4-2.4-1.3-3.1c-0.9-0.7-2.1-1.1-3.8-1.1h-5.3l0.8-0.8V467.4z M288.3,473.4l-4.3-6.1h1.9
				l4.3,6.1H288.3z"/>
			<path d="M302.2,471.9h10.1v1.5h-11.9v-16.8H312v1.5h-9.7V471.9z M302,464.1h8.9v1.5H302V464.1z"/>
			<path d="M313.8,473.4l7.7-16.8h1.8l7.7,16.8h-1.9l-7.1-15.8h0.7l-7.1,15.8H313.8z M316.8,468.9l0.5-1.4h9.8l0.5,1.4H316.8z"/>
			<path d="M333.7,473.4v-16.8h6.3c1.4,0,2.6,0.2,3.7,0.7c1,0.5,1.8,1.1,2.4,2c0.6,0.9,0.8,1.9,0.8,3.1c0,1.2-0.3,2.2-0.8,3.1
				c-0.6,0.9-1.3,1.5-2.4,2c-1,0.5-2.2,0.7-3.7,0.7h-5.3l0.8-0.8v6.1H333.7z M335.5,467.4l-0.8-0.8h5.3c1.7,0,3-0.4,3.8-1.1
				c0.9-0.7,1.3-1.8,1.3-3.1c0-1.3-0.4-2.4-1.3-3.1c-0.9-0.7-2.1-1.1-3.8-1.1h-5.3l0.8-0.8V467.4z M345.2,473.4l-4.3-6.1h1.9
				l4.3,6.1H345.2z"/>
			<path d="M354.3,473.4v-15.3h-5.9v-1.5H362v1.5h-5.9v15.3H354.3z"/>
			<path d="M366.6,473.4h-1.8v-16.8h1.8V473.4z M377.3,465.7h-10.9v-1.6h10.9V465.7z M377.1,456.6h1.8v16.8h-1.8V456.6z"/>
			<path d="M398,473.6c-1.3,0-2.5-0.2-3.5-0.6c-1.1-0.4-2-1-2.8-1.8c-0.8-0.8-1.4-1.7-1.8-2.7c-0.4-1-0.7-2.2-0.7-3.4
				c0-1.2,0.2-2.4,0.7-3.4c0.4-1,1.1-1.9,1.9-2.7c0.8-0.8,1.7-1.4,2.8-1.8s2.3-0.6,3.5-0.6s2.5,0.2,3.5,0.6c1.1,0.4,2,1,2.7,1.8
				l-1.1,1.1c-0.7-0.7-1.5-1.2-2.3-1.5c-0.8-0.3-1.8-0.5-2.7-0.5c-1,0-2,0.2-2.9,0.5s-1.6,0.8-2.3,1.5c-0.6,0.6-1.2,1.4-1.5,2.2
				s-0.5,1.8-0.5,2.8c0,1,0.2,1.9,0.5,2.8c0.4,0.8,0.9,1.6,1.5,2.2c0.6,0.6,1.4,1.1,2.3,1.5c0.9,0.3,1.8,0.5,2.8,0.5
				c1,0,1.9-0.1,2.7-0.4c0.9-0.3,1.6-0.8,2.4-1.5l1,1.3c-0.8,0.7-1.7,1.2-2.8,1.6C400.3,473.4,399.2,473.6,398,473.6z M402.5,471.2
				V465h1.7v6.4L402.5,471.2z"/>
			<path d="M409.2,473.4v-16.8h6.3c1.4,0,2.6,0.2,3.7,0.7c1,0.5,1.8,1.1,2.4,2c0.6,0.9,0.8,1.9,0.8,3.1c0,1.2-0.3,2.2-0.8,3.1
				c-0.6,0.9-1.3,1.5-2.4,2c-1,0.5-2.2,0.7-3.7,0.7h-5.3l0.8-0.8v6.1H409.2z M411,467.4l-0.8-0.8h5.3c1.7,0,3-0.4,3.8-1.1
				c0.9-0.7,1.3-1.8,1.3-3.1c0-1.3-0.4-2.4-1.3-3.1c-0.9-0.7-2.1-1.1-3.8-1.1h-5.3l0.8-0.8V467.4z M420.7,473.4l-4.3-6.1h1.9
				l4.3,6.1H420.7z"/>
			<path d="M423.9,473.4l7.7-16.8h1.8l7.7,16.8h-1.9l-7.1-15.8h0.7l-7.1,15.8H423.9z M426.9,468.9l0.5-1.4h9.8l0.5,1.4H426.9z"/>
			<path d="M443.8,473.4v-16.8h1.5l11.6,14.6H456v-14.6h1.8v16.8h-1.5l-11.6-14.6h0.8v14.6H443.8z"/>
			<path d="M463.3,473.4v-16.8h6.8c1.8,0,3.4,0.4,4.7,1.1c1.4,0.7,2.4,1.7,3.2,3c0.8,1.3,1.1,2.7,1.1,4.4c0,1.6-0.4,3.1-1.1,4.4
				c-0.8,1.3-1.8,2.3-3.2,3c-1.4,0.7-2.9,1.1-4.7,1.1H463.3z M465,471.9h5c1.5,0,2.8-0.3,3.9-0.9c1.1-0.6,1.9-1.4,2.6-2.4
				c0.6-1,0.9-2.2,0.9-3.6c0-1.4-0.3-2.6-0.9-3.6c-0.6-1-1.5-1.8-2.6-2.4c-1.1-0.6-2.4-0.9-3.9-0.9h-5V471.9z"/>
			<path d="M487.7,473.6c-1.2,0-2.4-0.2-3.6-0.6c-1.1-0.4-2-0.9-2.7-1.6l0.7-1.4c0.6,0.6,1.4,1.1,2.4,1.5c1,0.4,2.1,0.6,3.2,0.6
				c1.1,0,1.9-0.1,2.6-0.4c0.7-0.3,1.2-0.6,1.5-1.1c0.3-0.4,0.5-0.9,0.5-1.5c0-0.7-0.2-1.2-0.6-1.6c-0.4-0.4-0.9-0.7-1.5-0.9
				c-0.6-0.2-1.3-0.4-2-0.6c-0.7-0.2-1.5-0.4-2.2-0.6c-0.7-0.2-1.4-0.5-2-0.8s-1.1-0.8-1.5-1.3s-0.6-1.3-0.6-2.2
				c0-0.8,0.2-1.6,0.7-2.3c0.4-0.7,1.1-1.3,2-1.7s2.1-0.6,3.5-0.6c0.9,0,1.9,0.1,2.8,0.4c0.9,0.3,1.7,0.6,2.4,1.1l-0.6,1.4
				c-0.7-0.5-1.5-0.8-2.3-1.1c-0.8-0.2-1.6-0.3-2.3-0.3c-1,0-1.8,0.1-2.5,0.4c-0.7,0.3-1.1,0.6-1.5,1.1c-0.3,0.5-0.5,1-0.5,1.5
				c0,0.7,0.2,1.2,0.6,1.6s0.9,0.7,1.5,0.9c0.6,0.2,1.3,0.4,2,0.6c0.7,0.2,1.5,0.4,2.2,0.6c0.7,0.2,1.4,0.5,2,0.8
				c0.6,0.3,1.1,0.8,1.5,1.3c0.4,0.5,0.6,1.3,0.6,2.1c0,0.8-0.2,1.6-0.7,2.3s-1.1,1.3-2.1,1.7C490.3,473.4,489.2,473.6,487.7,473.6z
				"/>
			<path d="M508.1,473.4v-6.2l0.4,1.1l-7.1-11.7h1.9l6.3,10.2h-1l6.3-10.2h1.8l-7.1,11.7l0.4-1.1v6.2H508.1z"/>
			<path d="M526.7,473.6c-1.3,0-2.4-0.2-3.5-0.6c-1.1-0.4-2-1-2.8-1.8s-1.4-1.7-1.8-2.7c-0.4-1-0.7-2.2-0.7-3.4
				c0-1.2,0.2-2.4,0.7-3.4c0.4-1,1.1-1.9,1.8-2.7s1.7-1.4,2.8-1.8s2.2-0.6,3.5-0.6c1.3,0,2.4,0.2,3.5,0.6c1.1,0.4,2,1,2.8,1.8
				c0.8,0.8,1.4,1.7,1.8,2.7c0.4,1,0.7,2.2,0.7,3.4c0,1.2-0.2,2.4-0.7,3.4c-0.4,1-1.1,1.9-1.8,2.7c-0.8,0.8-1.7,1.4-2.8,1.8
				C529.2,473.4,528,473.6,526.7,473.6z M526.7,472c1,0,1.9-0.2,2.8-0.5c0.9-0.3,1.6-0.8,2.2-1.5c0.6-0.6,1.1-1.4,1.5-2.2
				c0.4-0.8,0.5-1.8,0.5-2.8c0-1-0.2-1.9-0.5-2.8c-0.4-0.8-0.8-1.6-1.5-2.2c-0.6-0.6-1.4-1.1-2.2-1.5c-0.9-0.3-1.8-0.5-2.8-0.5
				s-1.9,0.2-2.8,0.5c-0.9,0.3-1.6,0.8-2.3,1.5s-1.1,1.4-1.5,2.2c-0.4,0.8-0.5,1.8-0.5,2.8c0,1,0.2,1.9,0.5,2.8
				c0.4,0.8,0.8,1.6,1.5,2.2s1.4,1.1,2.3,1.5C524.8,471.8,525.7,472,526.7,472z"/>
			<path d="M546.3,473.6c-2.1,0-3.8-0.6-5.1-1.8c-1.2-1.2-1.8-3.1-1.8-5.5v-9.6h1.8v9.6c0,2,0.4,3.4,1.3,4.4
				c0.9,0.9,2.2,1.4,3.8,1.4c1.6,0,2.9-0.5,3.8-1.4c0.9-0.9,1.3-2.4,1.3-4.4v-9.6h1.7v9.6c0,2.4-0.6,4.2-1.8,5.5
				C550.1,473,548.4,473.6,546.3,473.6z"/>
			<path class="st9" d="M569.7,473.6c-1.4,0-2.7-0.2-4-0.7c-1.3-0.5-2.3-1.1-3-1.8l1-1.6c0.6,0.7,1.5,1.2,2.5,1.6
				c1.1,0.4,2.2,0.6,3.5,0.6c1.7,0,2.9-0.4,3.8-1.1s1.3-1.7,1.3-2.9c0-0.8-0.2-1.6-0.6-2.2c-0.4-0.6-1.1-1.1-2-1.4s-2.3-0.5-3.9-0.5
				h-4.2l1-9.8h10.7v1.8h-9.9l1-1l-0.9,8.2l-1-1h3.7c2,0,3.6,0.2,4.8,0.7c1.2,0.5,2.1,1.2,2.6,2c0.5,0.9,0.8,1.9,0.8,3
				c0,1.1-0.3,2.1-0.8,3s-1.3,1.6-2.4,2.1C572.6,473.3,571.3,473.6,569.7,473.6z"/>
			<path class="st9" d="M588.4,473.4v-19.6h2.1v17.8h11v1.8H588.4z"/>
			<path class="st9" d="M604.9,473.4v-19.6h2.1v19.6H604.9z"/>
			<path class="st9" d="M619,473.4l-8.7-19.6h2.2l8.1,18.5h-1.2l8.2-18.5h2.1l-8.7,19.6H619z"/>
			<path class="st9" d="M635,471.6h11.8v1.8h-13.9v-19.6h13.4v1.8H635V471.6z M634.8,462.6h10.4v1.8h-10.4V462.6z"/>
			<path class="st9" d="M657.1,473.6c-1.5,0-2.9-0.2-4.2-0.7c-1.3-0.5-2.4-1.1-3.1-1.8l0.8-1.6c0.7,0.7,1.6,1.2,2.8,1.7
				c1.2,0.5,2.4,0.7,3.7,0.7c1.2,0,2.2-0.2,3-0.5c0.8-0.3,1.3-0.7,1.7-1.2c0.4-0.5,0.5-1.1,0.5-1.7c0-0.8-0.2-1.4-0.7-1.8
				s-1-0.8-1.7-1.1c-0.7-0.3-1.5-0.5-2.4-0.7c-0.9-0.2-1.7-0.4-2.6-0.7s-1.6-0.5-2.4-0.9c-0.7-0.4-1.3-0.9-1.7-1.6
				c-0.4-0.6-0.7-1.5-0.7-2.5c0-1,0.3-1.9,0.8-2.7c0.5-0.8,1.3-1.5,2.4-2c1.1-0.5,2.4-0.7,4.1-0.7c1.1,0,2.2,0.2,3.3,0.5
				c1.1,0.3,2,0.7,2.8,1.3l-0.7,1.7c-0.8-0.6-1.7-1-2.7-1.2c-0.9-0.3-1.9-0.4-2.7-0.4c-1.2,0-2.1,0.2-2.9,0.5
				c-0.8,0.3-1.3,0.7-1.7,1.3s-0.5,1.1-0.5,1.8c0,0.8,0.2,1.4,0.7,1.8s1,0.8,1.7,1.1c0.7,0.3,1.5,0.5,2.4,0.7
				c0.9,0.2,1.7,0.4,2.6,0.7c0.8,0.2,1.6,0.6,2.4,0.9c0.7,0.4,1.3,0.9,1.7,1.5s0.7,1.5,0.7,2.5c0,1-0.3,1.8-0.8,2.6
				c-0.5,0.8-1.3,1.5-2.4,2C660.1,473.4,658.8,473.6,657.1,473.6z"/>
			<path d="M187.7,502.2V487h-5.9v-1.5h13.6v1.5h-5.9v15.3H187.7z"/>
			<path d="M205.5,502.4c-1.3,0-2.4-0.2-3.5-0.6c-1.1-0.4-2-1-2.8-1.8s-1.4-1.7-1.8-2.7c-0.4-1-0.7-2.2-0.7-3.4
				c0-1.2,0.2-2.4,0.7-3.4c0.4-1,1.1-1.9,1.8-2.7s1.7-1.4,2.8-1.8s2.2-0.6,3.5-0.6c1.3,0,2.4,0.2,3.5,0.6c1.1,0.4,2,1,2.8,1.8
				c0.8,0.8,1.4,1.7,1.8,2.7c0.4,1,0.7,2.2,0.7,3.4c0,1.2-0.2,2.4-0.7,3.4c-0.4,1-1.1,1.9-1.8,2.7c-0.8,0.8-1.7,1.4-2.8,1.8
				C208,502.2,206.8,502.4,205.5,502.4z M205.5,500.8c1,0,1.9-0.2,2.8-0.5c0.9-0.3,1.6-0.8,2.2-1.5c0.6-0.6,1.1-1.4,1.5-2.2
				c0.4-0.8,0.5-1.8,0.5-2.8c0-1-0.2-1.9-0.5-2.8c-0.4-0.8-0.8-1.6-1.5-2.2c-0.6-0.6-1.4-1.1-2.2-1.5c-0.9-0.3-1.8-0.5-2.8-0.5
				s-1.9,0.2-2.8,0.5c-0.9,0.3-1.6,0.8-2.3,1.5s-1.1,1.4-1.5,2.2c-0.4,0.8-0.5,1.8-0.5,2.8c0,1,0.2,1.9,0.5,2.8
				c0.4,0.8,0.8,1.6,1.5,2.2s1.4,1.1,2.3,1.5C203.6,500.6,204.5,500.8,205.5,500.8z"/>
			<path d="M226.4,502.2h-1.8v-16.8h1.8V502.2z M237.1,494.5h-10.9v-1.6h10.9V494.5z M236.9,485.4h1.8v16.8h-1.8V485.4z"/>
			<path d="M245.9,500.7H256v1.5h-11.9v-16.8h11.5v1.5h-9.7V500.7z M245.7,492.9h8.9v1.5h-8.9V492.9z"/>
			<path d="M260.2,502.2v-16.8h1.8v15.3h9.4v1.5H260.2z"/>
			<path d="M274.3,502.2v-16.8h6.3c1.4,0,2.6,0.2,3.7,0.7c1,0.5,1.8,1.1,2.4,2c0.6,0.9,0.8,1.9,0.8,3.1c0,1.2-0.3,2.2-0.8,3.1
				c-0.6,0.9-1.3,1.5-2.4,2c-1,0.5-2.2,0.7-3.7,0.7h-5.3l0.8-0.8v6.1H274.3z M276.1,496.2l-0.8-0.9h5.3c1.7,0,3-0.4,3.8-1.1
				c0.9-0.7,1.3-1.8,1.3-3.1c0-1.3-0.4-2.4-1.3-3.1c-0.9-0.7-2.1-1.1-3.8-1.1h-5.3l0.8-0.8V496.2z"/>
			<path d="M297.8,502.2v-16.8h6.8c1.8,0,3.4,0.4,4.7,1.1c1.4,0.7,2.4,1.7,3.2,3c0.8,1.3,1.1,2.7,1.1,4.4c0,1.6-0.4,3.1-1.1,4.4
				c-0.8,1.3-1.8,2.3-3.2,3c-1.4,0.7-2.9,1.1-4.7,1.1H297.8z M299.6,500.7h5c1.5,0,2.8-0.3,3.9-0.9c1.1-0.6,1.9-1.4,2.6-2.4
				c0.6-1,0.9-2.2,0.9-3.6c0-1.4-0.3-2.6-0.9-3.6c-0.6-1-1.5-1.8-2.6-2.4c-1.1-0.6-2.4-0.9-3.9-0.9h-5V500.7z"/>
			<path d="M319.4,500.7h10.1v1.5h-11.9v-16.8h11.5v1.5h-9.7V500.7z M319.2,492.9h8.9v1.5h-8.9V492.9z"/>
			<path d="M338.3,502.4c-1.2,0-2.4-0.2-3.6-0.6c-1.1-0.4-2-0.9-2.7-1.6l0.7-1.4c0.6,0.6,1.4,1.1,2.4,1.5c1,0.4,2.1,0.6,3.2,0.6
				c1.1,0,1.9-0.1,2.6-0.4c0.7-0.3,1.2-0.6,1.5-1.1c0.3-0.4,0.5-0.9,0.5-1.5c0-0.7-0.2-1.2-0.6-1.6c-0.4-0.4-0.9-0.7-1.5-0.9
				c-0.6-0.2-1.3-0.4-2-0.6c-0.7-0.2-1.5-0.4-2.2-0.6c-0.7-0.2-1.4-0.5-2-0.8s-1.1-0.8-1.5-1.3s-0.6-1.3-0.6-2.2
				c0-0.8,0.2-1.6,0.7-2.3c0.4-0.7,1.1-1.3,2-1.7s2.1-0.6,3.5-0.6c0.9,0,1.9,0.1,2.8,0.4c0.9,0.3,1.7,0.6,2.4,1.1l-0.6,1.4
				c-0.7-0.5-1.5-0.8-2.3-1.1c-0.8-0.2-1.6-0.3-2.3-0.3c-1,0-1.8,0.1-2.5,0.4c-0.7,0.3-1.1,0.6-1.5,1.1c-0.3,0.5-0.5,1-0.5,1.5
				c0,0.7,0.2,1.2,0.6,1.6s0.9,0.7,1.5,0.9c0.6,0.2,1.3,0.4,2,0.6c0.7,0.2,1.5,0.4,2.2,0.6c0.7,0.2,1.4,0.5,2,0.8
				c0.6,0.3,1.1,0.8,1.5,1.3c0.4,0.5,0.6,1.3,0.6,2.1c0,0.8-0.2,1.6-0.7,2.3s-1.1,1.3-2.1,1.7C341,502.2,339.8,502.4,338.3,502.4z"
				/>
			<path d="M351.7,502.2V487h-5.9v-1.5h13.6v1.5h-5.9v15.3H351.7z"/>
			<path d="M362.3,502.2v-16.8h6.3c1.4,0,2.6,0.2,3.7,0.7c1,0.5,1.8,1.1,2.4,2c0.6,0.9,0.8,1.9,0.8,3.1c0,1.2-0.3,2.2-0.8,3.1
				c-0.6,0.9-1.3,1.5-2.4,2c-1,0.5-2.2,0.7-3.7,0.7h-5.3l0.8-0.8v6.1H362.3z M364,496.2l-0.8-0.8h5.3c1.7,0,3-0.4,3.8-1.1
				c0.9-0.7,1.3-1.8,1.3-3.1c0-1.3-0.4-2.4-1.3-3.1c-0.9-0.7-2.1-1.1-3.8-1.1h-5.3l0.8-0.8V496.2z M373.7,502.2l-4.3-6.1h1.9
				l4.3,6.1H373.7z"/>
			<path d="M386.9,502.4c-1.3,0-2.4-0.2-3.5-0.6c-1.1-0.4-2-1-2.8-1.8s-1.4-1.7-1.8-2.7c-0.4-1-0.7-2.2-0.7-3.4
				c0-1.2,0.2-2.4,0.7-3.4c0.4-1,1.1-1.9,1.8-2.7s1.7-1.4,2.8-1.8s2.2-0.6,3.5-0.6c1.3,0,2.4,0.2,3.5,0.6c1.1,0.4,2,1,2.8,1.8
				c0.8,0.8,1.4,1.7,1.8,2.7c0.4,1,0.7,2.2,0.7,3.4c0,1.2-0.2,2.4-0.7,3.4c-0.4,1-1.1,1.9-1.8,2.7c-0.8,0.8-1.7,1.4-2.8,1.8
				C389.4,502.2,388.2,502.4,386.9,502.4z M386.9,500.8c1,0,1.9-0.2,2.8-0.5c0.9-0.3,1.6-0.8,2.2-1.5c0.6-0.6,1.1-1.4,1.5-2.2
				c0.4-0.8,0.5-1.8,0.5-2.8c0-1-0.2-1.9-0.5-2.8c-0.4-0.8-0.8-1.6-1.5-2.2c-0.6-0.6-1.4-1.1-2.2-1.5c-0.9-0.3-1.8-0.5-2.8-0.5
				s-1.9,0.2-2.8,0.5c-0.9,0.3-1.6,0.8-2.3,1.5s-1.1,1.4-1.5,2.2c-0.4,0.8-0.5,1.8-0.5,2.8c0,1,0.2,1.9,0.5,2.8
				c0.4,0.8,0.8,1.6,1.5,2.2s1.4,1.1,2.3,1.5C385,500.6,385.9,500.8,386.9,500.8z"/>
			<path d="M403.7,502.2V496l0.4,1.1l-7.1-11.7h1.9l6.3,10.2h-1l6.3-10.2h1.8l-7.1,11.7l0.4-1.1v6.2H403.7z"/>
			<path d="M424.5,502.2V487h-5.9v-1.5h13.6v1.5h-5.9v15.3H424.5z"/>
			<path d="M436.8,502.2H435v-16.8h1.8V502.2z M447.5,494.5h-10.9v-1.6h10.9V494.5z M447.3,485.4h1.8v16.8h-1.8V485.4z"/>
			<path d="M456.3,500.7h10.1v1.5h-11.9v-16.8h11.5v1.5h-9.7V500.7z M456.1,492.9h8.9v1.5h-8.9V492.9z"/>
			<path d="M474.2,502.2l7.7-16.8h1.8l7.7,16.8h-1.9l-7.1-15.8h0.7l-7.1,15.8H474.2z M477.2,497.7l0.5-1.4h9.8l0.5,1.4H477.2z"/>
			<path d="M494.1,502.2v-16.8h1.8v15.3h9.4v1.5H494.1z"/>
			<path d="M508.2,502.2v-16.8h1.8v16.8H508.2z"/>
			<path d="M517.3,500.7h10.1v1.5h-11.9v-16.8H527v1.5h-9.7V500.7z M517.1,492.9h8.9v1.5h-8.9V492.9z"/>
			<path d="M531.5,502.2v-16.8h1.5l11.6,14.6h-0.8v-14.6h1.8v16.8h-1.5l-11.6-14.6h0.8v14.6H531.5z"/>
			<path d="M555.7,502.4c-1.2,0-2.4-0.2-3.6-0.6c-1.1-0.4-2-0.9-2.7-1.6l0.7-1.4c0.6,0.6,1.4,1.1,2.4,1.5c1,0.4,2.1,0.6,3.2,0.6
				c1.1,0,1.9-0.1,2.6-0.4c0.7-0.3,1.2-0.6,1.5-1.1c0.3-0.4,0.5-0.9,0.5-1.5c0-0.7-0.2-1.2-0.6-1.6c-0.4-0.4-0.9-0.7-1.5-0.9
				c-0.6-0.2-1.3-0.4-2-0.6c-0.7-0.2-1.5-0.4-2.2-0.6c-0.7-0.2-1.4-0.5-2-0.8s-1.1-0.8-1.5-1.3s-0.6-1.3-0.6-2.2
				c0-0.8,0.2-1.6,0.7-2.3c0.4-0.7,1.1-1.3,2-1.7s2.1-0.6,3.5-0.6c0.9,0,1.9,0.1,2.8,0.4c0.9,0.3,1.7,0.6,2.4,1.1l-0.6,1.4
				c-0.7-0.5-1.5-0.8-2.3-1.1c-0.8-0.2-1.6-0.3-2.3-0.3c-1,0-1.8,0.1-2.5,0.4c-0.7,0.3-1.1,0.6-1.5,1.1c-0.3,0.5-0.5,1-0.5,1.5
				c0,0.7,0.2,1.2,0.6,1.6s0.9,0.7,1.5,0.9c0.6,0.2,1.3,0.4,2,0.6c0.7,0.2,1.5,0.4,2.2,0.6c0.7,0.2,1.4,0.5,2,0.8
				c0.6,0.3,1.1,0.8,1.5,1.3c0.4,0.5,0.6,1.3,0.6,2.1c0,0.8-0.2,1.6-0.7,2.3s-1.1,1.3-2.1,1.7C558.3,502.2,557.1,502.4,555.7,502.4z
				"/>
		</g>
	</g>
	<path class="st5" d="M1796.1,580.8h-727.4c-23.6,0-42.7-19.1-42.7-42.7V117.4c0-23.6,19.1-42.7,42.7-42.7h727.4
		c23.6,0,42.7,19.1,42.7,42.7v420.7C1838.8,561.7,1819.7,580.8,1796.1,580.8z"/>
	<g>
		<path class="st10" d="M1481.3,414c4.5,11.9,18,43.3,49.6,64.9c61.4,42,134.4,8.7,142.6,4.8c10.9-5.2,67.3-32,87.4-97.3
			c15.7-51.2-0.6-94.5-4.6-104.4c-27.7-68-115.6-131.6-199.8-92.2C1470.1,230.4,1456.4,347.3,1481.3,414z"/>
		<path class="st11" d="M1474.4,326.7c1.4,0.2,4-18.1,7.7-31.4c7.1-26,21.1-43.5,28.7-52.8c6.2-7.6,26.5-31.1,57.3-43.8
			c11.7-4.8,25-8.1,25.2-7.2c0.1,0.3-1.4,0.9-2.1,2.6c-0.8,2.1,0.2,4.3,0.3,4.7c0.9,2,2.5,3,6.7,4.9c4.2,1.9,6.4,2.9,9.3,3.7
			c3.2,0.9,7.5,2,13.2,1.8c7.9-0.3,13.4-3.1,16.8-4.8c3.7-1.9,7.9-4.1,8.1-7.1c0.2-2.7-2.8-4.4-2.2-5.5c0.6-1,3.6-0.3,8.2,1
			c6.2,1.7,9.3,2.6,12.5,3.8c3.4,1.3,8,3.1,13.6,6.5c1.7,1.1,2.8,1.8,4.3,2.8c15.3,10.6,16,9.4,21.4,14.2
			c6.6,5.8,10.2,11.6,12.1,10.5c0.7-0.4,0.7-1.7,0.8-2c0.1-2.6-2.6-4.3-5.9-6.9c-4.8-3.8-1.9-2.2-7.2-6.3
			c-19.2-14.6-35.5-22-35.5-22c-4.2-1.9-9.4-4.3-16.7-6.6c-16.1-5.1-29.4-5.8-35.2-5.9c-5.8-0.1-19.8,0-37.1,4.8
			c-18.4,5.1-31.2,12.8-34.6,15c-5.6,3.5-17.8,11.7-30.2,25.9c-12.5,14.3-18.4,27-26.2,43.5c0,0-9.7,20.6-13.5,43.9
			c-0.5,3.2-0.4,6.7-0.4,6.7C1473.5,321.9,1473.7,326.6,1474.4,326.7L1474.4,326.7z"/>
		<path class="st10" d="M1508.4,284.6c-10.2,4-16.4,2.2-19.7,0.4c-6.8-3.7-11.5-12.4-12.8-14.9c-3.9-7.4-4-11.6-8.2-12.6
			c-3.1-0.7-6.3,0.7-8.1-2.9c-0.1-0.3-2-4.1-0.5-7.6c1.7-3.7,6.1-4.6,6.9-4.7c2-0.4,3.8-0.1,8.8,4c2.8,2.3,4.2,3.5,6.2,5.8
			c4.2,5,6.2,9.6,7.4,11.5c2.7,4.6,8.5,8.5,22.7,4.3"/>
		<g>
			<path class="st12" d="M1693.2,341.3c3.2-6.1,10.9-22.5,9-43.4c-0.6-6.4-1.7-17-8.6-27.4c-2.6-3.9-11.2-16.8-24.3-17.9
				c-17.8-1.5-31.5,19.8-35.3,25.6c-13.1,20.3-18.1,51.1-5.3,74.3c2.7,4.8,11.7,21.1,26.4,22.1
				C1675,375.9,1689.6,348.2,1693.2,341.3L1693.2,341.3z"/>
			<path class="st13" d="M1628.4,341.5c-0.6,0.1-4.4-12-2.9-27.1c1-9.4,3.7-16.4,5.6-21.2c4.3-10.8,9.5-17.8,12.6-21.9
				c5.6-7.4,8.9-11.7,15-14.2c5.9-2.4,10.9-1.7,12.1-1.5c4.5,0.8,7.2,3,9.6,4.8c0.4,0.3,1,0.8,0.9,1.1c-0.3,0.8-5.4-2-10.8-1.7
				c-6.2,0.3-11,4.6-15.6,8.8c-4.1,3.7-6.5,7.1-8.7,10.3c-0.9,1.3-5.2,7.4-9.2,16.7c-2.6,6-4,10.8-5.1,14.8c-1.2,4.1-2.3,7.9-3,12.7
				C1627.2,334.2,1628.9,341.5,1628.4,341.5L1628.4,341.5z"/>
			<path d="M1637.2,357.1c-0.8,3.2,11.4,13.1,24,11.1c10-1.6,16.5-10,21.1-16c5.2-6.7,7.8-13.2,10.5-19.8c2.4-5.9,4.2-10.4,5.3-16.9
				c2.2-13.4-0.7-24-1.9-28.1c-2.5-8.8-6.9-16.9-7.7-16.6c-0.2,0.1-0.3,0.6,0.6,5.4c2.3,12.7,3.4,14.1,3.6,18.5
				c0.2,5.1-1,8.8-3.1,14.9c-2.3,6.8-5.1,11.4-7.1,14.6c-2.3,3.7-6.8,10.5-14.3,17.5c-5.5,5.1-9.9,9.3-16.8,11.9
				C1642.8,356.9,1637.7,355.1,1637.2,357.1L1637.2,357.1z"/>
		</g>
		<g>
			<path class="st12" d="M1607.1,331c0.1-6.8-0.7-24.5-12.1-41.2c-3.5-5.1-9.4-13.6-20.6-18.9c-4.2-2-18-8.7-30.4-3.1
				c-16.9,7.6-19.4,32.4-20.1,39.1c-2.4,23.7,7.4,52.2,29.8,65.5c4.7,2.8,20.5,12.1,34.3,5.6C1606.6,369.3,1607,338.6,1607.1,331
				L1607.1,331z"/>
			<path d="M1598.2,360.8c-0.7-0.6-2.2,0.8-4.9,1.8c-1.3,0.5-5.9,2-16.1-1c-16.1-4.9-28-15.8-28.6-16.4c-5-4.7-10.7-10.1-14.6-19
				c-7.5-17.2-2.3-34.3-3.4-34.4c-0.8-0.1-3.2,9.6-3.6,20.4c-0.4,9.7,1,16.8,1.3,18.6c1,5,2.6,13,8,21.8c5,8.2,10.6,13,13.9,15.7
				c6.1,5,12,9.9,21,11.4c3.7,0.6,11.6,1.9,18.6-2.9C1596.9,372,1599.9,362.1,1598.2,360.8L1598.2,360.8z"/>
			<path class="st13" d="M1567.7,268.3c9.2,3.6,16.7,11.1,17.8,12.1c5.8,5.8,9,11.3,11.1,15c1.5,2.5,6.5,11.5,9,23.6
				c0.3,1.6,1.6,7.8,0.6,15.4c-0.1,0.7-0.5,4.3-1.1,4.3c-0.7,0-0.3-6.4-2.4-14.3c-1.4-5.2-3.2-8.9-5.5-13.6
				c-1.8-3.6-3.6-6.6-7.3-12.5c-4.6-7.4-6.9-11.2-8.7-12.9c-2.9-2.8-6.7-4.6-14.3-8.2c-7.7-3.7-11.6-5.5-15-5.3
				c-7.3,0.3-12.1,5.4-13,4.3c-0.7-0.8,1.8-4.3,4.6-6.5c3.6-2.8,7.6-3.3,9.8-3.6c2.7-0.3,4.8-0.1,5.9,0
				C1560.3,266.3,1563.5,266.7,1567.7,268.3L1567.7,268.3z"/>
		</g>
		<path class="st14" d="M1580.3,384.1c-2.2,1.3-1.9,8.5,0,13.8c0.8,2.2,3,7.1,12.4,13.4c7.4,5,13.1,8.9,21.7,9.8
			c15.6,1.6,26.9-7.9,30.9-11.2c0,0,6.8-5.7,9.2-14c0.3-1.2,0.6-2.6,0-3.4c-1.2-1.6-4.9-0.3-6.2,0.2c-3.6,1.3-5.9,3.4-6.2,3.6
			c-5.9,5.2-15,6.8-18.5,7.4c-4.6,0.8-13.7,2.3-21.7-2.9c-2.8-1.8-3.3-3.1-15.5-13.4C1583.5,384.9,1581.6,383.3,1580.3,384.1
			L1580.3,384.1z"/>
		<path class="st14" d="M1610.7,379.8c-0.7,0.9,2.1,3,3,3.7c0.3,0.2,0.9,0.5,1.7,0.4c0.4-0.1,1.1-0.3,1.3-0.6
			c0.1-0.3-0.1-0.4-0.4-1.1c-0.3-0.6-0.3-0.7-0.4-1.1c-0.5-1.1-1.9-1.4-2.2-1.5C1612.9,379.4,1611.2,379.1,1610.7,379.8
			L1610.7,379.8z"/>
		<path class="st14" d="M1626.8,381.6c0.5,0.3,1.8-0.4,2.6-1.3c0.4-0.5,0.6-0.9,0.9-1.7c0.3-0.7,0.5-1.7,0.4-2.8
			c0-0.5-0.1-1-0.4-1.1c-0.1,0-0.4-0.1-1.3,0.6c-0.8,0.6-1.7,1.3-2.2,2.3c-0.6,1.3-0.4,2.8-0.4,2.8l0,0
			C1626.4,380.5,1626.4,381.3,1626.8,381.6L1626.8,381.6z"/>
		<path class="st10" d="M1706.9,252.6c10.9-0.2,16-4.2,18.5-7.2c5.1-6,6.5-16,6.9-18.8c1.2-8.4-0.2-12.3,3.4-14.9
			c2.6-1.9,6.1-1.8,6.6-5.8c0-0.3,0.5-4.6-2.2-7.3c-2.8-2.8-7.2-2-8-1.8c-2,0.4-3.6,1.4-6.8,7.1c-1.8,3.2-2.7,4.8-3.8,7.8
			c-2.2,6.3-2.6,11.3-2.9,13.6c-0.9,5.3-5,11.2-19.7,12.7"/>
	</g>
	<g>
		<path class="st10" d="M1118,369.6c-0.3,10.7,0.4,39.7,18.2,67.9c34.5,54.7,101.7,56,109.3,56.1c10.1,0,62.4,0.2,98.4-42.4
			c28.3-33.4,29.2-72.6,29.2-81.6c-0.2-62.2-48.5-143.2-126.3-143.9C1166.9,225,1119.5,309.4,1118,369.6L1118,369.6z"/>
		<path class="st12" d="M1222.1,374.5c-1.5-7.7-6.3-27.3-21-42.9c-4.5-4.7-12.1-12.6-23.8-15.4c-4.5-1.1-19-4.6-29.4,5.1
			c-14.2,13.3-10.8,42-9.8,49.8c3.3,27.3,19.2,56.7,43.5,65.2c5.1,1.8,22.1,7.8,33.7-3.4C1230.6,417.7,1223.8,383.1,1222.1,374.5
			L1222.1,374.5z"/>
		<path class="st12" d="M1312.9,442.9c6.1-2.8,21.5-11.1,32.2-32.4c3.2-6.5,8.6-17.4,9.2-33.6c0.3-6.1,1.1-26.1-8.5-39.3
			c-13-17.9-36-10.6-42.2-8.6c-22,7-43.7,31.1-47.2,64.7c-0.7,7-3.2,30.6,7.7,45.1C1278.7,458.4,1306.1,446,1312.9,442.9
			L1312.9,442.9z"/>
		<path class="st11" d="M1141.1,299.8c1,0.6,8.8-12.4,15.8-21.2c13.7-17.3,30-25.5,38.9-29.9c7.2-3.5,30.4-14.1,58.3-12.5
			c10.6,0.6,21.9,3,21.9,3.7c0,0.3-1.4,0.2-2.4,1.2c-1.3,1.3-1.2,3.4-1.2,3.7c0.1,1.8,1,3.2,3.6,6.2c2.7,3,4,4.5,6.1,6.2
			c2.2,1.8,5.2,4.3,9.7,6.2c6.2,2.6,11.4,2.6,14.6,2.5c3.5-0.1,7.4-0.2,8.5-2.5c1-2-0.8-4.4,0-5c0.8-0.6,2.9,1.1,6.1,3.7
			c4.3,3.6,6.4,5.4,8.5,7.5c2.2,2.2,5.2,5.3,8.5,10c1,1.4,1.6,2.4,2.4,3.7c8.6,13.7,9.5,13.1,12.2,18.7c3.3,6.8,4.3,12.7,6.1,12.5
			c0.7-0.1,1.1-1,1.2-1.2c0.9-1.9-0.7-4.2-2.4-7.5c-2.5-4.7-0.8-2.4-3.6-7.5c-10.3-18.2-20.7-29.9-20.7-29.9c-2.7-3-6-6.8-10.9-11.2
			c-10.9-9.8-21.1-15.2-25.5-17.4c-4.5-2.2-15.4-7.3-30.4-10c-15.9-2.9-28.3-1.6-31.6-1.2c-5.5,0.6-17.5,2.4-31.6,8.7
			c-14.2,6.3-22.8,13.9-34,23.7c0,0-14,12.2-24.3,28.7c-1.4,2.3-2.4,5-2.4,5C1141.9,295.8,1140.6,299.5,1141.1,299.8L1141.1,299.8z"
			/>
		<path class="st10" d="M1146,315.1c-4.9-0.6-16.7-2.8-26-11.9c-2.9-2.8-10.8-10.5-10.9-23.1c-0.1-5.9,2-4.4,4.3-16.9
			c1.7-9,2.8-14.9,2.8-23c0-5.7-0.2-6.6,0.9-8.6c2.4-4.6,8.7-8.2,15.4-7.9c5.6,0.3,9.2,3.3,10.5,4.4c0.7,0.6,7.5,6.4,6,12.3
			c-0.8,3.2-3.2,4.3-8.5,8.1c0,0-9,7-14.4,16.9c-1.5,2.7-5.5,10-4.3,16.9c1.5,9.2,14.1,16.2,29.4,18.3"/>
		<path class="st13" d="M1269,364.1c-0.4-0.3,3.4-10.2,12.2-18.7c5.5-5.4,10.9-8.1,14.6-10c8.3-4.2,15.3-5.5,19.4-6.2
			c7.4-1.3,11.8-2,17,0c5.1,2,7.9,5.4,8.5,6.2c2.5,3.2,3.1,6.1,3.6,8.7c0.1,0.5,0.2,1.1,0,1.2c-0.6,0.3-2.4-4.4-6.1-7.5
			c-4.2-3.5-9.4-3.6-14.6-3.7c-4.5-0.1-7.8,0.6-10.9,1.2c-1.3,0.3-7.2,1.6-14.6,5c-4.8,2.2-8.2,4.4-10.9,6.2
			c-2.9,1.9-5.6,3.6-8.5,6.2C1272,358.8,1269.3,364.3,1269,364.1L1269,364.1z"/>
		<path class="st15" d="M1262,418.1c-0.3-0.9-1.3-4.8,4.8-13.4c1.1-1.5,19.4-26.5,49.2-25.3c6.8,0.3,16.7,0.7,20.7,7.5
			c5,8.7-3.5,21.7-4.9,23.7c-13.1,19.2-40.2,17.7-45,17.4C1282.4,427.8,1264.7,426.9,1262,418.1L1262,418.1z"/>
		<path d="M1263.2,422.5c-2.2,1.5,0.5,14.9,9.7,21.2c7.2,4.9,15.8,3.5,21.9,2.5c6.8-1.1,11.8-3.6,17-6.2c4.6-2.3,8.1-4.1,12.2-7.5
			c8.4-7.1,12-15.4,13.4-18.7c2.9-7,4.4-14.7,3.6-15c-0.2-0.1-0.5,0.2-2.4,3.7c-5.1,9.3-5.1,10.9-7.3,13.7c-2.5,3.3-5.2,4.9-9.7,7.5
			c-5,2.9-9.2,4.1-12.2,5c-3.4,1-9.9,2.5-18.2,2.5c-6.2,0-11.2-0.1-17-2.5C1266.9,425.8,1264.6,421.6,1263.2,422.5L1263.2,422.5z"/>
		<path d="M1216.4,416.9c-0.7-0.3-1.6,1.1-3.6,2.5c-1,0.7-4.4,2.9-13.4,2.5c-14.2-0.6-26.1-7.1-26.7-7.5c-5-2.8-10.8-6-15.8-12.5
			c-9.6-12.5-8.8-27.5-9.7-27.4c-0.7,0.1-0.6,8.5,1.2,17.4c1.7,8,4.2,13.5,4.9,15c1.8,3.9,4.8,10.1,10.9,16.2
			c5.7,5.7,11.3,8.4,14.6,10c6,2.9,11.8,5.6,19.4,5c3.1-0.3,9.9-0.8,14.6-6.2C1217.6,426.3,1218,417.6,1216.4,416.9L1216.4,416.9z"
			/>
		<path class="st15" d="M1215.2,413c-1,1.5-3.4,4.1-13.4,3.9c-5.8-0.1-37.1-0.5-48.6-25.5c-3.6-7.7-7.4-22.5-1.2-29.4
			c8.2-9.1,29.6,0.5,40.1,7.8c1.6,1.1,9.3,6.6,15.8,17C1210.6,391.2,1219.8,405.8,1215.2,413L1215.2,413z"/>
		<path class="st13" d="M1170.1,317.8c8.5,1.1,16.3,5.8,17.5,6.4c6.1,3.7,9.9,7.6,12.5,10.3c1.7,1.8,7.8,8.4,12.5,18
			c0.6,1.3,2.9,6.2,3.7,12.9c0.1,0.6,0.4,3.7,0,3.9c-0.6,0.1-1.6-5.3-5-11.6c-2.2-4.1-4.5-6.8-7.5-10.3c-2.3-2.7-4.4-4.8-8.7-9
			c-5.4-5.3-8.1-7.9-10-9c-3-1.7-6.6-2.4-13.7-3.9c-7.2-1.4-10.9-2.1-13.7-1.3c-6.1,1.8-9,7.2-10,6.4c-0.7-0.6,0.6-4,2.5-6.4
			c2.4-3.2,5.7-4.4,7.5-5.1c2.2-0.9,4-1.1,5-1.3C1163.5,317.7,1166.3,317.3,1170.1,317.8L1170.1,317.8z"/>
		<path class="st16" d="M1189.7,454.7c-3,0.7-2.6,4.9,0,8c1.1,1.3,3.9,4.2,16.3,8c9.8,3,17.2,5.4,28.6,6c20.7,1.2,35.6-4.1,40.9-6
			c0,0,9-3.2,12.3-8c0.5-0.7,0.8-1.5,0-2c-1.6-1-6.5-0.3-8.2,0c-4.7,0.7-7.9,1.9-8.2,2c-7.8,2.9-19.8,3.7-24.5,4
			c-6,0.4-18.1,1.1-28.6-2c-3.7-1.1-4.3-1.8-20.4-8C1193.9,455.2,1191.4,454.3,1189.7,454.7L1189.7,454.7z"/>
		<path class="st14" d="M1221.6,437.6c-2.3,1.3,1.8,9.1,3.3,11.6c0.4,0.7,1.4,2.2,3.3,2.9c0.9,0.3,2.6,0.7,3.3,0
			c0.5-0.5,0.1-1.1,0-2.9c-0.1-1.6,0.1-2,0-2.9c-0.2-3-2.8-5.4-3.3-5.8C1226.7,439.2,1223.1,436.7,1221.6,437.6L1221.6,437.6z"/>
		<path class="st14" d="M1236.7,452c1.1,1.3,5.6,1.3,8.7,0c1.7-0.7,2.6-1.5,4.4-3.2c1.6-1.5,3.4-3.7,4.4-6.5c0.5-1.4,0.9-2.6,0-3.2
			c-0.3-0.2-1.1-0.6-4.4,0c-3.1,0.6-6.2,1.2-8.7,3.2c-3.2,2.5-4.4,6.5-4.4,6.5l0,0C1236.7,448.8,1235.9,451,1236.7,452z"/>
		<g>
			<path class="st9" d="M1208.9,462.3c0,1.5,0,3,0,4.5c0.8-1.2,1.4-2.3,2.1-3.6"/>
			<path class="st17" d="M1208.4,462.3c0,1.5,0,3,0,4.5c0,0.5,0.7,0.6,1,0.2c0.8-1.2,1.4-2.3,2.1-3.6c0.1-0.2,0.1-0.5-0.2-0.6
				c-0.2-0.1-0.6-0.1-0.7,0.2c-0.6,1.2-1.3,2.4-2.1,3.6l1,0.2c0-1.5,0-3,0-4.5C1209.4,461.8,1208.4,461.8,1208.4,462.3L1208.4,462.3
				L1208.4,462.3z"/>
		</g>
		<g>
			<path class="st9" d="M1215.9,465.4c0,1.5,0,3,0,4.5c0.8-1.2,1.4-2.3,2.1-3.6"/>
			<path class="st17" d="M1215.4,465.4c0,1.5,0,3,0,4.5c0,0.5,0.7,0.6,1,0.2c0.8-1.2,1.4-2.3,2.1-3.6c0.1-0.2,0.1-0.5-0.2-0.6
				c-0.2-0.1-0.6-0.1-0.7,0.2c-0.6,1.2-1.3,2.4-2.1,3.6l1,0.2c0-1.5,0-3,0-4.5C1216.4,464.8,1215.4,464.8,1215.4,465.4L1215.4,465.4
				L1215.4,465.4z"/>
		</g>
		<g>
			<path class="st9" d="M1222.8,467.1c0.3,1.5,0.6,3,0.9,4.4c0.5-1.3,1-2.5,1.3-3.8"/>
			<path class="st17" d="M1222.3,467.2c0.3,1.5,0.6,3,0.9,4.4c0,0.2,0.3,0.3,0.5,0.3c0.2,0,0.4-0.1,0.5-0.3c0.5-1.3,1-2.5,1.3-3.8
				c0.2-0.6-0.8-0.8-1-0.2c-0.4,1.3-0.8,2.6-1.3,3.8h1c-0.3-1.5-0.6-2.9-0.9-4.4c0-0.2-0.4-0.4-0.6-0.3
				C1222.3,466.7,1222.2,467,1222.3,467.2L1222.3,467.2L1222.3,467.2z"/>
		</g>
		<g>
			<path class="st9" d="M1228.5,468c0.5,1.4,0.9,2.9,1.5,4.3c0.4-1.3,0.6-2.6,0.8-3.9"/>
			<path class="st17" d="M1228,468.2c0.5,1.4,0.9,2.9,1.5,4.3c0.2,0.4,0.9,0.5,1,0c0.4-1.3,0.6-2.6,0.8-3.9c0-0.2-0.1-0.5-0.4-0.6
				c-0.2-0.1-0.6,0.1-0.6,0.3c-0.2,1.3-0.5,2.6-0.8,3.9h1c-0.5-1.4-1-2.9-1.5-4.3C1228.8,467.4,1227.8,467.6,1228,468.2L1228,468.2
				L1228,468.2z"/>
		</g>
		<g>
			<path class="st9" d="M1233.9,468.6c0.7,1.4,1.4,2.7,2.2,4c0.2-1.4,0.3-2.7,0.3-4.1"/>
			<path class="st17" d="M1233.5,468.8c0.7,1.4,1.4,2.7,2.2,4c0.1,0.2,0.4,0.3,0.6,0.2c0.2-0.1,0.3-0.2,0.4-0.4
				c0.2-1.3,0.3-2.7,0.3-4.1c0-0.6-1-0.6-1,0c0,1.4-0.1,2.7-0.3,4.1l1-0.2c-0.8-1.3-1.5-2.7-2.2-4c-0.1-0.2-0.5-0.3-0.7-0.2
				C1233.4,468.3,1233.4,468.6,1233.5,468.8L1233.5,468.8L1233.5,468.8z"/>
		</g>
		<g>
			<path class="st9" d="M1239.5,468.2c0.7,1.3,1.5,2.7,2.3,4c0.1-1.3,0.1-2.7,0.1-4"/>
			<path class="st17" d="M1239.1,468.4c0.7,1.3,1.5,2.7,2.3,4c0.3,0.4,0.9,0.2,1-0.2c0.1-1.3,0.1-2.7,0.1-4c0-0.6-1-0.6-1,0
				c0,1.3,0,2.7-0.1,4l1-0.2c-0.8-1.3-1.5-2.7-2.3-4c-0.1-0.2-0.5-0.3-0.7-0.2C1239,467.9,1239,468.2,1239.1,468.4L1239.1,468.4
				L1239.1,468.4z"/>
		</g>
		<g>
			<path class="st9" d="M1220.9,473.5c-0.2-1.5-0.3-3-0.5-4.5c-0.6,1.2-1.2,2.5-1.7,3.7"/>
			<path class="st17" d="M1221.4,473.5c-0.2-1.5-0.3-3-0.5-4.5c0-0.2-0.1-0.4-0.4-0.4c-0.2,0-0.5,0-0.6,0.2
				c-0.6,1.3-1.2,2.5-1.7,3.8c-0.1,0.2,0.1,0.5,0.4,0.6c0.3,0.1,0.5-0.1,0.6-0.3c0.5-1.2,1-2.4,1.6-3.6l-1-0.2
				c0.2,1.5,0.4,3,0.5,4.5c0,0.2,0.2,0.5,0.5,0.5C1221.1,474,1221.4,473.8,1221.4,473.5L1221.4,473.5L1221.4,473.5z"/>
		</g>
		<g>
			<path class="st9" d="M1227.4,474.8c-0.2-1.5-0.3-3-0.5-4.5c-0.6,1.2-1.2,2.5-1.7,3.7"/>
			<path class="st17" d="M1227.9,474.8c-0.2-1.5-0.3-3-0.5-4.5c0-0.2-0.1-0.4-0.4-0.4c-0.2,0-0.5,0-0.6,0.2
				c-0.6,1.3-1.2,2.5-1.7,3.8c-0.1,0.2,0.1,0.5,0.4,0.6c0.3,0.1,0.5-0.1,0.6-0.3c0.5-1.2,1-2.4,1.6-3.6l-1-0.2
				c0.2,1.5,0.4,3,0.5,4.5c0,0.2,0.2,0.5,0.5,0.5C1227.6,475.3,1227.9,475.1,1227.9,474.8L1227.9,474.8L1227.9,474.8z"/>
		</g>
		<g>
			<path class="st9" d="M1213.9,471.2c-0.5-1.4-0.9-2.9-1.4-4.3c-0.4,1.3-0.7,2.6-0.9,3.9"/>
			<path class="st17" d="M1214.4,471.1c-0.5-1.4-0.9-2.9-1.4-4.3c-0.1-0.4-0.9-0.5-1,0c-0.4,1.3-0.7,2.6-0.9,3.9
				c0,0.2,0.1,0.5,0.4,0.6c0.2,0.1,0.6-0.1,0.6-0.3c0.2-1.3,0.5-2.6,0.9-3.9h-1c0.5,1.4,1,2.9,1.4,4.3
				C1213.6,471.9,1214.5,471.7,1214.4,471.1L1214.4,471.1L1214.4,471.1z"/>
		</g>
		<g>
			<path class="st9" d="M1241.2,475.9c-0.6-1.4-1.3-2.8-1.9-4.1c-0.2,1.3-0.3,2.7-0.4,4"/>
			<path class="st17" d="M1241.7,475.8c-0.6-1.4-1.3-2.8-2-4.3c-0.2-0.3-0.9-0.3-0.9,0.1c-0.2,1.4-0.4,2.7-0.4,4.1c0,0.6,1,0.6,1,0
				c0.1-1.3,0.2-2.6,0.4-3.9l-0.9,0.1c0.7,1.3,1.3,2.7,1.9,4c0.1,0.2,0.3,0.4,0.6,0.3C1241.6,476.3,1241.8,476,1241.7,475.8
				L1241.7,475.8L1241.7,475.8z"/>
		</g>
		<g>
			<path class="st9" d="M1234.8,475.3c-0.9-1.3-1.7-2.6-2.7-3.8c0,1.4,0.1,2.7,0.2,4.1"/>
			<path class="st17" d="M1235.2,475.1c-0.9-1.3-1.7-2.6-2.7-3.8c-0.3-0.4-0.9-0.2-1,0.2c0,1.4,0.1,2.7,0.2,4.1
				c0,0.2,0.2,0.5,0.5,0.5c0.3,0,0.5-0.2,0.5-0.5c-0.1-1.4-0.2-2.7-0.2-4.1l-1,0.2c0.9,1.3,1.8,2.5,2.7,3.8
				C1234.7,476,1235.6,475.6,1235.2,475.1L1235.2,475.1L1235.2,475.1z"/>
		</g>
		<g>
			<path class="st9" d="M1259.6,474c-0.9-1.3-1.8-2.5-2.7-3.8c0.1,1.3,0.2,2.7,0.4,4"/>
			<path class="st17" d="M1260.1,473.7c-0.9-1.3-1.8-2.5-2.7-3.8c-0.3-0.4-1-0.3-1,0.2c0.1,1.4,0.2,2.8,0.4,4.1
				c0,0.2,0.4,0.4,0.6,0.3c0.3-0.1,0.4-0.3,0.4-0.6c-0.2-1.3-0.3-2.6-0.4-3.9l-1,0.2c0.9,1.2,1.8,2.5,2.7,3.8
				C1259.5,474.7,1260.4,474.2,1260.1,473.7L1260.1,473.7L1260.1,473.7z"/>
		</g>
		<g>
			<path class="st9" d="M1245.6,468.2c0.7,1.4,1.3,2.8,2,4.1c0.2-1.3,0.3-2.7,0.3-4"/>
			<path class="st17" d="M1245.1,468.4c0.7,1.4,1.3,2.8,2,4.1c0.1,0.2,0.4,0.3,0.6,0.2c0.2-0.1,0.3-0.2,0.4-0.4
				c0.2-1.3,0.3-2.7,0.3-4c0-0.6-1-0.6-1,0c0,1.3-0.2,2.7-0.3,4l1-0.2c-0.7-1.4-1.4-2.7-2-4.1c-0.1-0.2-0.5-0.3-0.7-0.2
				C1245,467.9,1245,468.2,1245.1,468.4L1245.1,468.4L1245.1,468.4z"/>
		</g>
		<g>
			<path class="st9" d="M1252.2,467.7c0.7,1.4,1.3,2.8,2,4.1c0.2-1.3,0.3-2.7,0.3-4"/>
			<path class="st17" d="M1251.7,467.9c0.7,1.4,1.3,2.8,2,4.1c0.1,0.2,0.4,0.3,0.6,0.2c0.2-0.1,0.3-0.2,0.4-0.4
				c0.2-1.3,0.3-2.7,0.3-4c0-0.6-1-0.6-1,0c0,1.3-0.2,2.7-0.3,4l1-0.2c-0.7-1.4-1.4-2.7-2-4.1c-0.1-0.2-0.5-0.3-0.7-0.2
				C1251.7,467.4,1251.6,467.7,1251.7,467.9L1251.7,467.9L1251.7,467.9z"/>
		</g>
		<g>
			<path class="st9" d="M1258.3,467.1c0.9,1.3,1.8,2.5,2.8,3.7c-0.1-1.3-0.2-2.7-0.5-4"/>
			<path class="st17" d="M1257.8,467.3c0.9,1.3,1.8,2.5,2.8,3.7c0.1,0.2,0.3,0.3,0.6,0.2c0.2-0.1,0.4-0.2,0.4-0.4
				c-0.1-1.4-0.2-2.8-0.5-4.1c0-0.2-0.4-0.4-0.6-0.3c-0.3,0.1-0.4,0.3-0.4,0.6c0.2,1.3,0.4,2.6,0.4,3.9l1-0.2
				c-1-1.2-1.9-2.5-2.8-3.7c-0.2-0.2-0.5-0.3-0.7-0.2C1257.8,466.8,1257.7,467.1,1257.8,467.3L1257.8,467.3L1257.8,467.3z"/>
		</g>
		<g>
			<path class="st9" d="M1264,465.9c1.1,1.2,2.1,2.3,3.2,3.4c-0.2-1.3-0.6-2.6-0.9-3.9"/>
			<path class="st17" d="M1263.6,466.3c1.1,1.2,2.1,2.3,3.2,3.4c0.1,0.2,0.4,0.2,0.6,0.1c0.2-0.1,0.3-0.3,0.2-0.5
				c-0.2-1.3-0.6-2.6-0.9-3.9c-0.2-0.6-1.2-0.3-1,0.2c0.4,1.3,0.7,2.6,0.9,3.9l0.9-0.4c-1.1-1.1-2.2-2.3-3.2-3.4
				c-0.2-0.2-0.5-0.2-0.7,0C1263.4,465.8,1263.4,466.1,1263.6,466.3L1263.6,466.3L1263.6,466.3z"/>
		</g>
		<g>
			<path class="st9" d="M1269.2,465.3c1.3,1,2.5,2,3.8,2.9c-0.4-1.3-1-2.6-1.5-3.8"/>
			<path class="st17" d="M1268.8,465.7c1.3,1,2.5,2,3.8,2.9c0.2,0.1,0.4,0.2,0.6,0.1c0.2-0.1,0.3-0.3,0.2-0.5
				c-0.5-1.3-1-2.6-1.6-3.9c-0.1-0.2-0.5-0.3-0.7-0.2c-0.3,0.1-0.3,0.4-0.2,0.6c0.6,1.2,1.1,2.5,1.5,3.7l0.9-0.4
				c-1.3-0.9-2.5-1.9-3.8-2.9c-0.2-0.2-0.5-0.2-0.7,0C1268.6,465.2,1268.6,465.5,1268.8,465.7L1268.8,465.7L1268.8,465.7z"/>
		</g>
		<g>
			<path class="st9" d="M1274.7,463.5c1.3,1,2.5,1.9,3.8,2.9c-0.5-1.3-1.1-2.5-1.7-3.7"/>
			<path class="st17" d="M1274.3,463.8c1.3,1,2.5,1.9,3.8,2.9c0.2,0.1,0.4,0.2,0.6,0.1c0.2-0.1,0.3-0.3,0.2-0.5
				c-0.5-1.3-1.1-2.6-1.7-3.8c-0.1-0.2-0.5-0.3-0.7-0.2c-0.3,0.1-0.3,0.4-0.2,0.6c0.6,1.2,1.2,2.4,1.6,3.6l0.9-0.4
				c-1.3-0.9-2.6-1.9-3.8-2.9c-0.2-0.2-0.5-0.2-0.7,0C1274.1,463.3,1274.1,463.6,1274.3,463.8L1274.3,463.8L1274.3,463.8z"/>
		</g>
		<g>
			<path class="st9" d="M1272.4,470.5c-1.2-1-2.4-2-3.7-3c0.4,1.3,0.9,2.5,1.5,3.8"/>
			<path class="st17" d="M1272.7,470.2c-1.2-1-2.4-2-3.7-3c-0.4-0.3-1,0-0.9,0.4c0.4,1.3,0.9,2.5,1.5,3.8c0.1,0.2,0.3,0.4,0.6,0.3
				c0.2-0.1,0.5-0.3,0.4-0.6c-0.6-1.2-1.1-2.5-1.5-3.8l-0.9,0.4c1.3,1,2.5,2,3.7,3C1272.5,471.2,1273.2,470.6,1272.7,470.2
				L1272.7,470.2L1272.7,470.2z"/>
		</g>
		<g>
			<path class="st9" d="M1196.4,457.8c0,1.5,0,3,0,4.5c0.8-1.2,1.4-2.3,2.1-3.6"/>
			<path class="st17" d="M1195.9,457.8c0,1.5,0,3,0,4.5c0,0.5,0.7,0.6,1,0.2c0.8-1.2,1.4-2.3,2.1-3.6c0.1-0.2,0.1-0.5-0.2-0.6
				c-0.2-0.1-0.6-0.1-0.7,0.2c-0.6,1.2-1.3,2.4-2.1,3.6l1,0.2c0-1.5,0-3,0-4.5C1196.9,457.2,1195.9,457.2,1195.9,457.8L1195.9,457.8
				L1195.9,457.8z"/>
		</g>
		<g>
			<path class="st9" d="M1201.6,460.1c0.3,1.5,0.6,3,0.9,4.4c0.5-1.3,1-2.5,1.3-3.8"/>
			<path class="st17" d="M1201.1,460.2c0.3,1.5,0.6,3,0.9,4.4c0,0.2,0.3,0.3,0.5,0.3c0.2,0,0.4-0.1,0.5-0.3c0.5-1.3,1-2.5,1.3-3.8
				c0.2-0.6-0.8-0.8-1-0.2c-0.4,1.3-0.8,2.6-1.3,3.8h1c-0.3-1.5-0.6-2.9-0.9-4.4c0-0.2-0.4-0.4-0.6-0.3
				C1201.1,459.7,1201,460,1201.1,460.2L1201.1,460.2L1201.1,460.2z"/>
		</g>
		<g>
			<path class="st9" d="M1206,469.3c0-1.5-0.1-3-0.2-4.5c-0.7,1.2-1.4,2.4-2,3.6"/>
			<path class="st17" d="M1206.5,469.3c0-1.5-0.1-3-0.2-4.5c0-0.4-0.7-0.7-1-0.2c-0.7,1.2-1.4,2.4-2,3.6c-0.1,0.2-0.1,0.5,0.2,0.6
				c0.2,0.1,0.6,0.1,0.7-0.2c0.6-1.2,1.2-2.4,2-3.6l-1-0.2c0.1,1.5,0.1,3,0.2,4.5C1205.5,469.9,1206.5,469.9,1206.5,469.3
				L1206.5,469.3L1206.5,469.3z"/>
		</g>
		<g>
			<path class="st9" d="M1199.8,466.7c-0.2-1.5-0.4-3-0.6-4.5c-0.7,1.2-1.2,2.5-1.8,3.7"/>
			<path class="st17" d="M1200.3,466.7c-0.2-1.5-0.4-3.1-0.6-4.6c-0.1-0.4-0.8-0.4-0.9-0.1c-0.7,1.3-1.3,2.5-1.8,3.9
				c-0.1,0.2,0.1,0.5,0.4,0.6c0.3,0.1,0.5-0.1,0.6-0.3c0.5-1.2,1.1-2.5,1.7-3.6l-0.9-0.1c0.2,1.4,0.4,2.9,0.6,4.3
				c0,0.2,0.2,0.5,0.5,0.5C1200,467.1,1200.3,466.9,1200.3,466.7L1200.3,466.7L1200.3,466.7z"/>
		</g>
		<g>
			<path class="st9" d="M1266.1,472.7c-0.8-1.3-1.6-2.6-2.4-3.9c0,1.3,0,2.7,0.1,4"/>
			<path class="st17" d="M1266.5,472.5c-0.8-1.3-1.6-2.6-2.4-3.9c-0.3-0.4-0.9-0.2-1,0.2c0,1.3,0,2.7,0.1,4c0,0.2,0.2,0.5,0.5,0.5
				c0.3,0,0.5-0.2,0.5-0.5c-0.1-1.3-0.1-2.7-0.1-4l-1,0.2c0.8,1.3,1.6,2.6,2.4,3.9C1266,473.5,1266.9,473,1266.5,472.5L1266.5,472.5
				L1266.5,472.5z"/>
		</g>
		<g>
			<path class="st9" d="M1252.7,475c-0.9-1.3-1.8-2.5-2.7-3.8c0.1,1.3,0.2,2.7,0.4,4"/>
			<path class="st17" d="M1253.1,474.8c-0.9-1.3-1.8-2.5-2.7-3.8c-0.3-0.4-1-0.3-1,0.2c0.1,1.4,0.2,2.8,0.4,4.1
				c0,0.2,0.4,0.4,0.6,0.3c0.3-0.1,0.4-0.3,0.4-0.6c-0.2-1.3-0.3-2.6-0.4-3.9l-1,0.2c0.9,1.2,1.8,2.5,2.7,3.8
				C1252.6,475.7,1253.5,475.3,1253.1,474.8L1253.1,474.8L1253.1,474.8z"/>
		</g>
		<g>
			<path class="st9" d="M1246.9,475.3c-0.9-1.3-1.8-2.5-2.7-3.8c0.1,1.3,0.2,2.7,0.4,4"/>
			<path class="st17" d="M1247.4,475.1c-0.9-1.3-1.8-2.5-2.7-3.8c-0.3-0.4-1-0.3-1,0.2c0.1,1.4,0.2,2.8,0.4,4.1
				c0,0.2,0.4,0.4,0.6,0.3c0.3-0.1,0.4-0.3,0.4-0.6c-0.2-1.3-0.3-2.6-0.4-3.9l-1,0.2c0.9,1.2,1.8,2.5,2.7,3.8
				C1246.8,476,1247.7,475.6,1247.4,475.1L1247.4,475.1L1247.4,475.1z"/>
		</g>
		<path class="st10" d="M1350.6,313.7c2.5-0.1,16.1-0.7,24.4-10.3c1.4-1.7,6.3-7.5,5.6-16.4c-0.6-8.1-5.8-18.7-13.8-21.6
			c-1.8-0.6-4.3-1.2-7.5-3.3c-1-0.6-3.9-2.7-5.5-6c-2.5-5.1-1.5-13.1,4.4-17c4.9-3.1,11.6-2.6,16-0.3c9,4.6,10.3,17,11.2,25.3
			c0.6,5.5-0.3,5.1,0.5,9c2.2,10.7,9.5,13.2,9.7,20.5c0.2,7.4-4,12.5-7.5,16.6c-10.3,12.4-25.3,16.5-31.6,17.8"/>
	</g>
	<text transform="matrix(1 0 0 1 1222.7585 159.4378)" class="st6 st7 st8">ENYMIES !</text>
</g>
</svg>
