<?xml version="1.0" encoding="UTF-8"?>
<svg id="Layer_2" data-name="Layer 2" xmlns="http://www.w3.org/2000/svg" xmlns:xlink="http://www.w3.org/1999/xlink" viewBox="0 0 131.25 211.69">
  <defs>
    <style>
      .cls-1 {
        fill: #f2f2f2;
      }

      .cls-2, .cls-3 {
        fill: #0071bc;
      }

      .cls-4 {
        fill: #e6e6e6;
      }

      .cls-5 {
        fill: #2e3192;
      }

      .cls-6 {
        fill: #fff;
      }

      .cls-6, .cls-3, .cls-7, .cls-8, .cls-9 {
        stroke: #2e3192;
        stroke-miterlimit: 10;
        stroke-width: 2px;
      }

      .cls-7 {
        fill: none;
      }

      .cls-8 {
        fill: url(#Sky);
      }

      .cls-9 {
        fill: url(#Sky-2);
      }
    </style>
    <linearGradient id="Sky" x1="24.29" y1="52" x2="110.29" y2="52" gradientUnits="userSpaceOnUse">
      <stop offset="0" stop-color="#cce0f4"/>
      <stop offset=".06" stop-color="#c2dcf2"/>
      <stop offset=".17" stop-color="#a9d2ee"/>
      <stop offset=".31" stop-color="#7fc2e7"/>
      <stop offset=".46" stop-color="#46abdd"/>
      <stop offset=".57" stop-color="#1e9cd7"/>
      <stop offset=".87" stop-color="#0075be"/>
      <stop offset=".99" stop-color="#005b97"/>
    </linearGradient>
    <linearGradient id="Sky-2" data-name="Sky" x1="41.38" y1="129.94" x2="48.51" y2="129.94" gradientTransform="translate(160.44 55.33) rotate(76.22)" xlink:href="#Sky"/>
  </defs>
  <g id="Layer_1-2" data-name="Layer 1">
    <g>
      <path class="cls-6" d="M24.29,51.5c0,27.89,22.83,50.5,51,50.5,1.67,0,5.97,.12,11.43-1.27,18.76-4.78,39.59-23.63,39.57-49.23-.02-26.67-22.67-50.5-51-50.5S24.29,23.61,24.29,51.5Z"/>
      <ellipse class="cls-6" cx="69.29" cy="52" rx="45" ry="47"/>
      <circle class="cls-8" cx="67.29" cy="52" r="43"/>
      <ellipse class="cls-6" cx="116.36" cy="70.21" rx="18.37" ry="13.04" transform="translate(26.72 172.37) rotate(-79.84)"/>
      <ellipse class="cls-1" cx="90.45" cy="52.59" rx="8.5" ry="7.42" transform="translate(2.78 109.69) rotate(-63.25)"/>
      <circle class="cls-4" cx="86.79" cy="68.5" r="3"/>
      <path class="cls-6" d="M40.79,90.5c-5.35,.03-10.9,5.02-22,15-9.28,8.34-13.44,13.67-16,20-1.97,4.86-2.33,8.66-1,12,.36,.9,1.39,3.39,4,5,3.46,2.13,7.25,1.19,8,1,5.66-1.41,7.75-6.62,9-6,1.21,.6-.96,5.39-2,14-.57,4.73-1.37,11.42,0,17,.55,2.22,.7,3.48,1,6,.31,2.6,.29,3.77,0,5-.44,1.81-1.21,2.61-2,4-.15,.27-2.76,4.95-2,9,.77,4.11,4.9,6.91,8,8,7.49,2.62,14.54-2.86,16-4,4.18-3.25,8.31-9.06,8-15-.08-1.6-.51-3.53-1.31-7.18-.55-2.49-.84-3.42-1.69-6.82-1.48-5.93-2.23-8.93-2-9,.42-.14,3.75,9.61,6,17,2.16,7.1,2.37,8.87,2,11-.77,4.5-3.12,5.1-4,10-.27,1.48-1.3,7.26,2,11,3.39,3.84,9.35,3.26,12,3,6.88-.67,14.31-4.82,18-12,3.39-6.6,2.31-13.23,2-15-1.42-8.03-6.62-13.45-5-15,.91-.87,2.59,.84,6,0,2.37-.58,2.8-1.71,5-2,2.24-.3,3.7,.62,5,1,5.47,1.58,12.25-5.23,13-6,1.82-1.87,4.8-5.8,5-27,.21-22.27-2.99-27.44-5-30-1.16-1.48-5.19-6.61-11-7-3.64-.24-5.59,1.53-9,3-10.09,4.34-21.1,.87-27-1-12.16-3.84-11.83-9.05-19-9Z"/>
      <path class="cls-6" d="M68.79,107.5c1.5,5.93,1.91,10.69,2,14,.1,3.68-.22,5.09,0,11,.16,4.24,.36,4.6,0,6-1.02,3.95-3.51,4.39-5,9-.42,1.3-1.45,4.49,0,6,1.08,1.13,2.42,.16,4,1,3.14,1.67,.99,7.23,4,11,2.28,2.85,6.82,3.84,10,3,5.93-1.56,8.23-9.17,10-15,.79-2.61,4.57-15.79,0-34-2.01-7.99-4.92-14.14-7-18"/>
      <path class="cls-7" d="M21.29,169.5c20.36,1.28,25.96-.12,26.42-2,.12-.5-.27-1.67-1.06-4-.74-2.21-1.88-5.07-2.11-5-.28,.08,.9,4.43,1.06,5,1.44,5.26,2.16,7.89,3.17,9,4.46,4.88,15.93,1.82,19.02,1,4.24-1.13,7.46-2.78,9.51-4"/>
      <ellipse class="cls-9" cx="44.95" cy="129.94" rx="4.5" ry="3.5" transform="translate(-91.96 142.64) rotate(-76.22)"/>
      <rect class="cls-7" x="21.81" y="114.74" width="39.07" height="28.64" rx="7.93" ry="7.93" transform="translate(31.93 -6.13) rotate(13.78)"/>
      <rect class="cls-7" x="22.1" y="113.97" width="33.21" height="28.64" rx="7.93" ry="7.93" transform="translate(31.68 -5.53) rotate(13.78)"/>
      <ellipse class="cls-3" cx="41.29" cy="129" rx="4.5" ry="3.5" transform="translate(-93.83 138.37) rotate(-76.22)"/>
      <path class="cls-6" d="M70.35,128.62c-.78-.68-1.97-.09-5.07-.01-3.11,.08-3.48-.49-5.07-.01-1.5,.45-3.54,1.66-3.54,3.11,0,1.83,3.25,2.73,3.5,2.8,1.58,.42,2.03-.05,5.07,.01,3.29,.07,4.29,.66,5.07,.01,.5-.41,.48-1.42,.45-3.45-.03-1.43-.05-2.15-.4-2.46Z"/>
      <path class="cls-5" d="M21.2,179.3c.22,2.17,1.64,3.94,3.52,4.97,2.2,1.22,4.79,1.35,7.24,1.46,.97,.04,.96-1.46,0-1.5-2.08-.09-4.32-.16-6.22-1.11-1.48-.74-2.86-2.09-3.04-3.82-.04-.4-.32-.75-.75-.75-.37,0-.79,.34-.75,.75h0Z"/>
      <path class="cls-5" d="M52.43,185.21c-.44,3.03,1.01,6.03,3.74,7.46,1.53,.8,3.27,1.34,4.96,1.72,1.82,.41,3.65,.53,5.5,.27,.95-.13,.55-1.58-.4-1.45-2.96,.41-6.2-.4-8.88-1.64-2.29-1.06-3.84-3.39-3.46-5.97,.14-.94-1.31-1.35-1.45-.4h0Z"/>
      <path class="cls-5" d="M90.19,107.38c2.96-1.65,6.18-2.77,9.53-3.34,.95-.16,.55-1.61-.4-1.45-3.47,.59-6.81,1.78-9.88,3.49-.84,.47-.09,1.77,.76,1.3h0Z"/>
      <path class="cls-2" d="M31.89,112.32c2.1-2.92,4.46-5.64,7.03-8.15,.69-.67-.37-1.74-1.06-1.06-2.67,2.6-5.09,5.43-7.26,8.45-.24,.33-.06,.84,.27,1.03,.38,.22,.79,.06,1.03-.27h0Z"/>
      <path class="cls-5" d="M31.94,111.16c-3.69-2.44-7.54-4.64-11.51-6.59-.86-.42-1.62,.87-.76,1.3,3.97,1.95,7.82,4.15,11.51,6.59,.81,.53,1.56-.76,.76-1.3h0Z"/>
      <path class="cls-5" d="M30.62,112.15c-1.11,2.59-1.8,5.3-2.22,8.08-.4,2.61-.9,5.45-.78,8.1,.04,.96,.27,1.93,.92,2.66s1.55,1.02,2.42,1.41c.63,.28,1.19,.59,1.28,1.35,.08,.71-.22,1.6-.35,2.3-.28,1.52-.55,3.04-.83,4.56-.17,.94,1.27,1.35,1.45,.4,.26-1.44,.53-2.89,.79-4.33,.2-1.08,.63-2.39,.38-3.49-.51-2.28-3.31-1.78-4.26-3.53-.57-1.06-.27-2.54-.17-3.68,.13-1.45,.27-2.9,.45-4.35,.39-2.98,1.02-5.95,2.21-8.73,.38-.88-.92-1.64-1.3-.76h0Z"/>
      <path class="cls-5" d="M7.61,124.01c-1.6,2.8-3.34,5.95-2.85,9.3,.38,2.54,2.15,5.1,4.83,5.51,.4,.06,.81-.09,.92-.52,.16-.62,.33-1.23,.49-1.85,.09-.35,.19-.7,.28-1.06,.03-.12,.08-.53,.19-.63,.23-.2,1.03-.06,1.35-.11,.47-.07,.91-.21,1.34-.41,1.66-.77,2.76-2.41,2.89-4.22,.07-.96-1.43-.96-1.5,0-.13,1.71-1.68,3.18-3.4,3.19-.97,0-1.76,.14-2.14,1.14-.43,1.13-.65,2.37-.96,3.54l.92-.52c-2.23-.34-3.61-2.49-3.8-4.63-.25-2.87,1.34-5.58,2.71-7.97,.48-.84-.82-1.6-1.3-.76h0Z"/>
      <ellipse class="cls-6" cx="119.73" cy="71.87" rx="14.97" ry="10.19" transform="translate(21.55 171.16) rotate(-76.29)"/>
    </g>
  </g>
</svg>