<?xml version="1.0" encoding="UTF-8"?>
<svg id="Layer_2" data-name="Layer 2" xmlns="http://www.w3.org/2000/svg" viewBox="0 0 264.31 328.34">
  <defs>
    <style>
      .cls-1 {
        fill: #b3b3b3;
        stroke-width: 5px;
      }

      .cls-1, .cls-2, .cls-3, .cls-4 {
        stroke: #000;
        stroke-miterlimit: 10;
      }

      .cls-5 {
        fill: #fff;
      }

      .cls-6 {
        fill: #ccc;
      }

      .cls-2 {
        fill: #999;
      }

      .cls-2, .cls-4 {
        stroke-width: 8px;
      }

      .cls-3 {
        stroke-width: 10px;
      }

      .cls-3, .cls-4 {
        fill: none;
      }
    </style>
  </defs>
  <g id="Layer_1-2" data-name="Layer 1">
    <g>
      <path class="cls-2" d="M165.25,155.61l-21.68-28.85c-1.19-1.59-3.21-1.68-4.5-.21l-45.6,52.01c-1.29,1.47-1.37,3.95-.17,5.54l21.68,28.85c1.19,1.59,3.21,1.68,4.5,.21l45.6-52.01c1.29-1.47,1.37-3.95,.17-5.54Z"/>
      <path class="cls-1" d="M226.86,323.29l-79.54-98c-2.76-3.4-2.76-8.91,0-12.31l22.89-28.2c2.76-3.4,7.23-3.4,9.99,0l79.54,98c2.76,3.4,2.76,8.91,0,12.31l-22.89,28.2c-2.76,3.4-7.23,3.4-9.99,0Z"/>
      <g>
        <path class="cls-6" d="M83.94,149.24L6.72,46.48c-2.43-3.23-2.27-8.29,.35-11.28L31.69,7.12c2.63-2.99,6.72-2.8,9.16,.43L118.07,110.32c2.43,3.23,2.27,8.29-.35,11.28l-24.62,28.08c-2.63,2.99-6.72,2.8-9.16-.43Z"/>
        <path class="cls-3" d="M83.94,149.24L6.72,46.48c-2.43-3.23-2.27-8.29,.35-11.28L31.69,7.12c2.63-2.99,6.72-2.8,9.16,.43L118.07,110.32c2.43,3.23,2.27,8.29-.35,11.28l-24.62,28.08c-2.63,2.99-6.72,2.8-9.16-.43Z"/>
        <path class="cls-6" d="M83.94,149.24L6.72,46.48c-2.43-3.23-2.27-8.29,.35-11.28L31.69,7.12c2.63-2.99,6.72-2.8,9.16,.43L118.07,110.32c2.43,3.23,2.27,8.29-.35,11.28l-24.62,28.08c-2.63,2.99-6.72,2.8-9.16-.43Z"/>
      </g>
      <line class="cls-4" x1="145.84" y1="182.73" x2="158.89" y2="198.81"/>
      <line class="cls-4" x1="139.86" y1="190.11" x2="153.44" y2="205.08"/>
      <line class="cls-4" x1="101.52" y1="141.38" x2="113.89" y2="157.85"/>
      <line class="cls-4" x1="107.59" y1="133.01" x2="119.97" y2="149.49"/>
      <path d="M94.9,87.92l-1.21-.18c-.4-.06-.54-.09-.94,0-.18,.04-.35,.12-.5,.21-.29,.19-.57,.44-.73,.76-.07,.13-.13,.28-.18,.42,0,.03-.02,.05-.03,.08-.05,.18-.07,.37-.07,.55,0,.09,.02,.19,.03,.27s.02,.18,.04,.27c.05,.17,.12,.35,.22,.5,.2,.28,.34,.43,.63,.63,.02,.01,.04,.02,.06,.04,.11,.06,.26,.11,.37,.16,.02,0,.03,.01,.05,.02,.03,0,.06,.01,.09,.02,.15,.02,.3,.05,.45,.06,.03,0,.06,0,.09,0,.15-.01,.32-.03,.47-.07,.03,0,.06-.02,.09-.03,.14-.05,.29-.11,.42-.18,.16-.09,.32-.21,.45-.34s.24-.27,.33-.43c.06-.11,.11-.26,.16-.37,0-.02,.01-.03,.02-.05,.05-.16,.05-.33,.07-.49,0-.21-.04-.4-.13-.58-.06-.19-.16-.35-.31-.48-.14-.15-.3-.25-.48-.31-.18-.09-.37-.14-.58-.13l-.4,.05c-.25,.07-.47,.2-.66,.39l-.23,.3c-.14,.23-.2,.49-.2,.76v.02c.02-.13,.03-.27,.05-.4,0,.04-.02,.08-.03,.12l.15-.36s-.03,.06-.05,.09l.23-.3s-.06,.07-.1,.1l.3-.23s-.09,.06-.14,.08l.36-.15c-.06,.02-.11,.04-.17,.05l.4-.05s-.09,0-.14,0l.4,.05s-.09-.02-.13-.04l.36,.15s-.06-.03-.09-.05l.3,.23s-.05-.05-.08-.08l.23,.3s-.04-.06-.05-.09l.15,.36s-.03-.08-.03-.12l.05,.4s0-.1,0-.14l-.05,.4c0-.06,.02-.12,.05-.18l-.15,.36c.02-.05,.05-.1,.08-.14l-.23,.3s.06-.07,.1-.1l-.3,.23s.07-.04,.11-.06l-.36,.15s.07-.02,.1-.03l-.4,.05s.04,0,.06,0l-.4-.05,1.26,.19c.2,.06,.4,.07,.6,.03,.2,0,.39-.07,.56-.18,.17-.09,.32-.22,.42-.39,.13-.14,.22-.31,.27-.51l.05-.4c0-.27-.07-.52-.2-.76l-.23-.3c-.19-.19-.41-.31-.66-.39h0Z"/>
      <path d="M192.74,211.56s.01,0,.02,0l-.4-.05s.04,0,.05,.01l-.36-.15s.04,.02,.05,.03l-.3-.23s.04,.03,.05,.05l-.23-.3s.03,.05,.04,.07l-.15-.36s.02,.06,.02,.09l-.05-.4s0,.06,0,.08l.05-.4s0,.05-.02,.07l.15-.36s-.02,.03-.03,.05l.23-.3s-.03,.03-.04,.04l.3-.23s-.03,.02-.05,.03l.36-.15s-.04,.01-.06,.02l.4-.05s-.05,0-.07,0l.4,.05s-.05-.01-.08-.02l.36,.15s-.05-.03-.08-.05l.3,.23s-.04-.03-.06-.06l.23,.3s-.03-.04-.04-.06l.15,.36s-.01-.04-.02-.06l.05,.4s0-.04,0-.06l-.05,.4h0c.06-.21,.07-.4,.03-.6,0-.2-.07-.39-.18-.56-.09-.17-.22-.32-.39-.42-.14-.13-.31-.22-.51-.27l-.4-.05c-.27,0-.52,.07-.76,.2l-.3,.23c-.19,.19-.31,.41-.39,.66-.01,.07-.02,.14-.03,.21,0,0-.02,.14-.03,.21,0,0,0,.01,0,.02,0,.07,.02,.19,.03,.23,.01,.08,.01,.18,.04,.26,.02,.05,.1,.3,.18,.42,.04,.05,.1,.12,.12,.16,.02,.02,.08,.11,.12,.16,0,0,0,0,.01,.01,0,0,.02,.02,.03,.03,0,0,0,0,.01,.01,.07,.05,.24,.19,.31,.24,0,0,0,0,0,0,0,0,.02,.01,.03,.02,0,0,.02,.01,.03,.02,0,0,0,0,0,0,.08,.03,.28,.12,.36,.15,0,0,.01,0,.02,0,.01,0,.02,0,.04,.01,0,0,.01,0,.02,0,0,0,0,0,0,0,.09,.01,.32,.04,.4,.05,.02,0,.05,0,.07,0,.06,0,.34-.04,.4-.05,0,0,0,0,0,0,0,0,.01,0,.02,0,.07-.02,.17-.07,.21-.09,.04-.02,.14-.05,.21-.09,0,0,0,0,.01,0,0,0,0,0,0,0l.3-.23h0s.02-.02,.03-.03c0,0,0,0,.01-.01,.04-.04,.2-.26,.24-.31,0,0,0,0,0,0,0,0,.01-.02,.02-.03,0,0,0,0,0-.01,.03-.06,.13-.3,.15-.36,0,0,0,0,0,0,0,0,0-.02,0-.03,0,0,0-.01,0-.02,0,0,0,0,0,0,.02-.11,.04-.29,.05-.4,0-.02,0-.04,0-.07-.01-.15-.02-.31-.06-.46,0-.01,0-.02,0-.03-.02-.06-.06-.14-.08-.19s-.05-.13-.08-.19c0-.01-.01-.02-.02-.03,0,0,0-.01-.01-.02,0,0,0,0,0,0-.07-.09-.17-.22-.24-.31-.02-.02-.03-.04-.05-.05-.05-.04-.25-.2-.31-.24,0,0,0,0-.01,0,0,0,0,0-.02,0s-.01,0-.02,0c0,0,0,0,0,0-.07-.03-.3-.13-.36-.15-.01,0-.02,0-.03-.01,0,0-.01,0-.02,0-.05,0-.35-.05-.4-.05,0,0,0,0-.01,0-.21,0-.4,.04-.58,.13-.19,.06-.35,.16-.48,.31-.15,.14-.25,.3-.31,.48-.09,.18-.14,.37-.13,.58l.05,.4c.07,.25,.2,.47,.39,.66l.3,.23c.23,.14,.49,.2,.76,.2h0Z"/>
      <path d="M185.09,202.79c-3.22,4.63-5.07,11.23-.93,15.95,1.85,2.11,4.79,3.11,7.55,2.98,3.09-.14,5.83-1.54,8.22-3.42,.64-.5,.53-1.6,0-2.12-.63-.63-1.48-.5-2.12,0-3.19,2.51-8.67,4.05-11.64,.31s-.85-8.78,1.51-12.18c.46-.67,.12-1.67-.54-2.05-.75-.44-1.59-.13-2.05,.54h0Z"/>
      <path d="M88.33,79.21c-5.55,.78-10,5.83-9.4,11.52,.32,2.99,1.83,5.46,4.22,7.25s5.58,3.15,8.62,3.54c3.3,.43,6.79-.42,9.1-2.92,1.31-1.41-.81-3.54-2.12-2.12-2.05,2.21-5.16,2.52-7.96,1.82s-6.1-2.16-7.75-4.62c-1.47-2.18-1.56-5.18-.28-7.47s3.73-3.75,6.36-4.12c.8-.11,1.25-1.14,1.05-1.85-.24-.86-1.04-1.16-1.85-1.05h0Z"/>
      <path d="M101.83,97.6c1.39-1.12,2.77-2.25,4.16-3.37,.28-.23,.44-.72,.44-1.06,0-.37-.16-.81-.44-1.06s-.66-.46-1.06-.44c-.42,.02-.74,.18-1.06,.44-1.39,1.12-2.77,2.25-4.16,3.37-.28,.23-.44,.72-.44,1.06,0,.37,.16,.81,.44,1.06s.66,.46,1.06,.44c.42-.02,.74-.18,1.06-.44h0Z"/>
      <path d="M87.75,81.23c2.26-1.28,4.52-2.55,6.77-3.83,.68-.39,.97-1.38,.54-2.05s-1.32-.95-2.05-.54c-2.26,1.28-4.52,2.55-6.77,3.83-.68,.39-.97,1.38-.54,2.05s1.32,.95,2.05,.54h0Z"/>
      <path d="M187.44,205.09c.89-.86,1.83-1.68,2.81-2.44l-.3,.23c.37-.28,.74-.56,1.11-.83,.33-.23,.58-.5,.69-.9,.1-.36,.05-.84-.15-1.16s-.51-.6-.9-.69-.83-.08-1.16,.15c-1.49,1.06-2.91,2.22-4.23,3.5-.56,.55-.59,1.58,0,2.12s1.52,.58,2.12,0h0Z"/>
      <path d="M199.31,218.4c1.12-.33,2.21-.84,3.16-1.52,.33-.23,.58-.5,.69-.9,.1-.36,.05-.84-.15-1.16s-.51-.6-.9-.69-.83-.08-1.16,.15c-.57,.41-1.18,.75-1.82,1.02l.36-.15c-.32,.13-.65,.25-.99,.35-.37,.11-.7,.36-.9,.69s-.27,.8-.15,1.16,.34,.71,.69,.9,.76,.27,1.16,.15h0Z"/>
      <path d="M191.74,202.14c-5.19,.86-7.2,6.65-7.09,11.27,.06,2.5,1.37,4.43,3.73,5.29,2.5,.9,5.32,.1,7.76-.66,1.26-.39,2.49-.86,3.71-1.38s2.53-1.26,2.04-2.81c-.32-1.01-1.25-1.97-1.89-2.79-.8-1.02-1.65-1.98-2.56-2.9-.84-.84-1.73-1.64-2.66-2.38-.98-.78-2.11-1.86-3.46-1.86-2.54,0-3.59,3.44-3.94,5.45-.23,1.33-.55,2.83-.16,4.15s1.46,2.15,2.74,2.38c2.6,.47,5.47-.97,7.68-2.2,.67-.37,.99-1.39,.54-2.05-.87-1.27-1.8-2.49-2.8-3.66-.86-1.01-1.97-2.49-3.46-1.62-.63,.37-.91,1.13-1.24,1.74-.35,.66-.7,1.32-1.05,1.98-.73,1.37-1.45,2.74-2.18,4.11-.61,1.16-1.62,2.62-.39,3.77,1.12,1.04,2.69,.23,3.72-.49,2.12-1.46,3.55-3.61,4.91-5.76,.59-.93-.17-2.32-1.3-2.26-1.36,.07-2.46,.88-2.94,2.17-.38,1.03-.46,2.59,.14,3.56,.78,1.26,2.37,.98,3.57,.61,1.31-.4,2.45-1.06,3.51-1.92l-2.36-.3c.26,.6,.68,.98,1.19,1.37,1.02,.77,2.66-.52,2.2-1.69-1.25-3.23-3.39-5.96-6.26-7.91-1.37-.93-2.88-1.59-4.45-2.08-.13-.04-.32-.07-.3-.09l.11,.29s-.02-.1,.02-.15c.16-.14,.26-.45,.46-.62,.74-.64,1.46-1.14,2.06-1.93,.77-1.01-.32-2.14-1.3-2.26-1.11-.13-2.07,.57-2.73,1.4-.83,1.03-1.6,2.12-2.39,3.18-.49,.65-.11,1.68,.54,2.05,.77,.45,1.57,.11,2.05-.54,.52-.7,1.04-1.39,1.56-2.09,.2-.26,.38-.54,.6-.78,.29-.32,.07-.27,.37-.23l-1.3-2.26c-.52,.68-1.39,1.03-1.94,1.67-.64,.73-1.03,1.66-.98,2.64,.12,2.28,2.45,2.46,4.08,3.22,3.11,1.45,5.67,4.06,6.91,7.28l2.2-1.69c-.02-.11-.06-.2-.12-.3-.42-.98-1.69-.83-2.36-.3-.86,.69-2.27,1.46-3.41,1.35l.76,.2-.2-.1,.54,.54c-.09-.12-.08-.6-.05-.8,.02-.14,.07-.26,.12-.39,.04-.14,.22-.11,.08-.11l-1.3-2.26c-.69,1.1-1.39,2.21-2.24,3.19-.4,.46-.83,.91-1.31,1.29-.23,.18-.48,.35-.73,.5-.16,.09-.31,.18-.47,.26-.15,.06-.09,.07,.18,.02l.66,.39-.12-.13,.39,.66-.04-.2v.8c.14-.63,.65-1.3,.96-1.88,.4-.76,.81-1.52,1.21-2.28,.38-.71,.75-1.42,1.13-2.13,.3-.57,.65-1.56,1.03-1.96l-.66,.39,.16-.06h-.8l.22,.07-.66-.39c1.39,1.25,2.54,2.9,3.59,4.43l.54-2.05c-1,.56-2.03,1.04-3.12,1.41-.74,.25-1.66,.61-2.46,.44s-.47-1.32-.4-1.91c.13-1.01,.29-2.08,.69-3.02,.11-.26,.25-.52,.4-.75,.04-.06,.36-.43,.17-.37-.23,.08,.11,.14,.25,.24,.2,.14,.4,.28,.59,.43,.93,.7,1.81,1.47,2.64,2.27,.79,.76,1.53,1.55,2.24,2.39,.37,.43,.72,.88,1.06,1.33,.25,.34,.78,.86,.86,1.28v-.8l-.05,.17,.39-.66c-.21,.24-.91,.44-1.28,.59-.55,.22-1.11,.43-1.67,.63-1.12,.39-2.27,.73-3.42,1-1.58,.37-4.26,.72-5.13-1.13-.42-.89-.23-2.11-.15-3.05,.09-1.04,.31-2.12,.72-3.09,.75-1.78,2.15-3.15,4.09-3.47,.8-.13,1.25-1.12,1.05-1.85-.23-.85-1.04-1.18-1.85-1.05h0Z"/>
      <path d="M85.55,83.09c2.16-.47,4.08-1.48,5.76-2.9,1.34-1.13-.37-3.16-1.82-2.36-1.97,1.09-3.94,2.18-5.9,3.27l1.82,2.36c1.52-1.43,3.12-2.77,4.82-3.98,.46-.33,.93-.65,1.41-.96,.18-.12,.51-.25,.64-.41l.25-.15-.65-.47c-.1,.16,.24,1.04,.29,1.24,.13,.48,.28,.96,.45,1.43,1.31,3.6,3.61,6.62,6.64,8.94,.52,.4,1.39,.19,1.82-.23,.5-.5,.51-1.2,.23-1.82-.79-1.74-1.74-3.36-2.88-4.89l-2.36,1.82c1.22,1.07,2.37,2.22,3.41,3.47,.52,.62,1.01,1.26,1.47,1.92,.36,.52,1.27,1.47,1.22,2.14-.03,.49-.81,.76-1.19,.96-.76,.39-1.53,.76-2.29,1.15-1.54,.77-3.11,1.76-4.77,2.22s-3.2-.03-4.71-.58c-1.23-.45-2.69-.94-3.6-1.93-1.94-2.08-.36-5.97,1.01-7.95,1.84-2.68,5.18-4.26,8.42-3.65l.4-2.95c-2.44-.16-5.05-.19-7.3,.93-2.53,1.25-3.13,3.83-4.64,5.98-1.43,2.02-3.37,4.48-2.36,7.11s5.02,3.16,7.49,3.03c1.18-.06,1.8-1.21,1.3-2.26-.48-.98-.96-1.97-1.44-2.95-.37-.76-.97-1.59-.63-2.46,.3-.76,1.01-1.31,1.6-1.84,.69-.62,1.3-1.24,1.85-1.99,1.01-1.37-1.22-3.07-2.36-1.82-2.8,3.08-4.43,6.9-4.78,11.04l2.95-.4c-.31-1.97-.08-3.99,.58-5.86,.33-.94,.79-1.83,1.34-2.66,.17-.25,.52-.91,.79-.99s1.07,.22,1.34,.29c3.91,.99,7.66,3.88,7.94,8.18,.09,1.4,2.04,2.14,2.8,.76,.2-.36,.37-.56,.72-.77,1.67-1,.2-3.45-1.51-2.59s-3.28,1.64-4.92,2.46c-.88,.44-1.77,.88-2.65,1.33-.69,.34-1.45,.88-2.23,1.01-1.25,.2-1.72-1.79-1.99-2.68-.45-1.49-.7-3.1-.18-4.6,.39-1.13,1.26-2.19,2.5-2.35,1.42-.19,2.13,.77,2.64,1.95,.29,.67,.55,1.37,.82,2.05,.02,.06,.34,1.02,.39,1.02,.44-.62,.44-.79,.02-.49-.25,.12-.5,.25-.75,.37-1.62,.81-3.25,1.61-4.87,2.42l2.2,.9c-.68-2-1.75-4.73-.15-6.56,.65-.74,1.42-.89,2.3-.49,1.17,.53,2.25,1.34,3.35,2.01,.4,.25,1.24,.54,1.49,.94,0,.01,.1-.27,.03-.1-.07,.19-.55,.4-.7,.48-.55,.27-1.16,.45-1.75,.61-.45,.12-1.32,.1-1.68,.35-.35,0-.23,.11,.37,.32l-.04-.25c.02-.21-.11-.48-.19-.68-.18-.45-.47-.83-.83-1.16-.13-.12-.74-.61-.74-.6,.02-.16,1.02-.47,1.22-.53l-1.46-.39c.22,.19,.13,.05,.11,.05-.12,.01,.51-.48-.13,.04l2.56,1.06c-.03-.27-.06-.54-.09-.81-.09-.81-.62-1.49-1.5-1.5-.74,0-1.59,.7-1.5,1.5,.03,.27,.06,.54,.09,.81,.15,1.34,1.51,1.91,2.56,1.06,1.2-.97,1.32-2.96,.27-4.09-1.26-1.36-3.6-.21-4.52,1.08-.53,.75-.76,1.71-.49,2.6,.24,.79,.84,1.2,1.39,1.75,.42,.41,.33,.92,.59,1.45,.44,.91,1.32,1.32,2.32,1.28,1.77-.07,3.99-.69,5.47-1.68s2.25-2.86,1.06-4.4c-.54-.7-1.34-1.12-2.07-1.57-.92-.56-1.83-1.13-2.75-1.68-1.55-.94-3.22-1.58-5-.87-1.67,.67-2.94,2.27-3.36,4.01-.55,2.29,.13,4.6,.87,6.76,.33,.96,1.3,1.34,2.2,.9,1.81-.9,3.63-1.78,5.43-2.7,.73-.37,1.37-.87,1.57-1.7,.23-.94-.22-1.8-.56-2.66-.62-1.57-1.14-3.39-2.41-4.58-1.16-1.07-2.76-1.45-4.3-1.22-3.37,.51-5.26,3.84-5.29,7.03-.03,2.81,1.1,7.69,4.33,8.47,2.09,.5,4.23-1.03,6.01-1.92,2.15-1.07,4.29-2.15,6.44-3.22l-1.51-2.59c-.77,.46-1.37,1.06-1.79,1.85l2.8,.76c-.4-6.03-5.48-10.27-11.18-11.3-1.53-.28-2.65-.08-3.65,1.18-.87,1.09-1.56,2.27-2.1,3.56-1.12,2.68-1.39,5.54-.94,8.4,.28,1.78,2.82,1.17,2.95-.4,.27-3.32,1.66-6.46,3.9-8.92l-2.36-1.82c-1.33,1.81-3.5,2.75-3.91,5.18-.21,1.23,.21,2.3,.73,3.39,.59,1.24,1.2,2.46,1.8,3.69l1.3-2.26c-1.24,.06-5.04,.08-4.72-1.86s1.99-3.29,2.89-4.86,1.38-3.33,3.3-3.99c1.7-.58,3.57-.46,5.34-.34,1.67,.11,2.07-2.63,.4-2.95-3.97-.75-8.12,.63-10.78,3.7-2.44,2.82-4.31,7.49-2.74,11.14,.78,1.83,2.42,2.94,4.18,3.71,1.88,.82,3.9,1.6,5.97,1.64,2.37,.04,4.45-1.18,6.51-2.2,1.71-.85,3.97-1.58,5.31-2.99,1.95-2.06,.27-4.59-1.06-6.43-1.47-2.03-3.15-3.89-5.03-5.54-1.19-1.05-3.43,.37-2.36,1.82,1.14,1.53,2.09,3.15,2.88,4.89l2.05-2.05c-1.64-1.26-3.03-2.86-4.07-4.65-.52-.89-.97-1.83-1.3-2.81s-.39-2.1-.88-2.96c-1.35-2.37-4-.46-5.51,.59-2.02,1.41-3.94,2.97-5.73,4.67-1.26,1.19,.35,3.17,1.82,2.36,1.97-1.09,3.94-2.18,5.9-3.27l-1.82-2.36c-1.29,1.09-2.79,1.77-4.44,2.13-1.89,.41-1.09,3.3,.8,2.89h0Z"/>
      <path d="M93.43,90.91c1.93,0,1.93-3,0-3s-1.93,3,0,3h0Z"/>
      <path class="cls-5" d="M94.48,90.21c1.93,0,1.93-3,0-3s-1.93,3,0,3h0Z"/>
      <path class="cls-5" d="M193.42,212.73c1.93,0,1.93-3,0-3s-1.93,3,0,3h0Z"/>
      <path d="M112.96,181.21c2.43,2.72,4.71,5.57,6.84,8.53l2.59-1.51c-3.29-4.31-6.58-8.61-9.87-12.92-.49-.64-1.29-.98-2.05-.54s-.92,1.33-.54,2.05c.84,1.58,1.94,3.03,3.24,4.27l.66-2.51c-2.62,.65-3.16,3.8-1.9,5.87,1.17,1.91,3.85,3.61,6,2.16,.67-.45,.97-1.32,.54-2.05-.39-.67-1.38-.99-2.05-.54-.26,.17-.33,.18-.69,.03-.45-.19-.82-.54-1.1-.94-.25-.36-.45-.8-.41-1.15,.01-.09,.07-.25,.2-.42-.07,.1,.11-.08,.11-.08-.11,.06-.09,.06,.1,.01,1.09-.27,1.47-1.74,.66-2.51-1.13-1.08-2.04-2.29-2.77-3.67l-2.59,1.51c3.29,4.31,6.58,8.61,9.87,12.92,.49,.64,1.29,.98,2.05,.54,.65-.38,1.01-1.39,.54-2.05-2.28-3.17-4.71-6.22-7.31-9.14-.54-.6-1.57-.55-2.12,0-.6,.6-.54,1.51,0,2.12h0Z"/>
      <path d="M112.37,175.23l.02-.68c0-.21-.04-.4-.13-.58-.06-.19-.16-.35-.31-.48-.14-.15-.3-.25-.48-.31-.18-.09-.37-.14-.58-.13l-.4,.05c-.25,.07-.47,.2-.66,.39l-.23,.3c-.14,.23-.2,.49-.2,.76l-.02,.68c0,.21,.04,.4,.13,.58,.06,.19,.16,.35,.31,.48,.14,.15,.3,.25,.48,.31,.18,.09,.37,.14,.58,.13l.4-.05c.25-.07,.47-.2,.66-.39l.23-.3c.14-.23,.2-.49,.2-.76h0Z"/>
      <path d="M121.62,190.75h.42c.21,.02,.4-.02,.58-.12,.19-.06,.35-.16,.48-.31,.15-.14,.25-.3,.31-.48,.09-.18,.14-.37,.13-.58l-.05-.4c-.07-.25-.2-.47-.39-.66l-.3-.23c-.23-.14-.49-.2-.76-.2h-.42c-.21-.02-.4,.02-.58,.12-.19,.06-.35,.16-.48,.31-.15,.14-.25,.3-.31,.48-.09,.18-.14,.37-.13,.58l.05,.4c.07,.25,.2,.47,.39,.66l.3,.23c.23,.14,.49,.2,.76,.2h0Z"/>
    </g>
  </g>
</svg>