<?xml version="1.0" encoding="UTF-8"?>
<svg id="Layer_1" data-name="Layer 1" xmlns="http://www.w3.org/2000/svg" xmlns:xlink="http://www.w3.org/1999/xlink" viewBox="0 0 1920 1080">
  <defs>
    <style>
      .cls-1, .cls-2, .cls-3, .cls-4, .cls-5, .cls-6, .cls-7, .cls-8 {
        stroke: #000;
      }

      .cls-1, .cls-2, .cls-3, .cls-5, .cls-6, .cls-7, .cls-9, .cls-8, .cls-10 {
        fill-rule: evenodd;
      }

      .cls-1, .cls-3, .cls-6 {
        fill: #ff5e00;
      }

      .cls-1, .cls-11 {
        stroke-width: 4px;
      }

      .cls-2 {
        stroke-width: 10px;
      }

      .cls-2, .cls-5, .cls-7, .cls-8 {
        fill: #b85e00;
      }

      .cls-12 {
        fill: #009245;
      }

      .cls-13 {
        fill: #0071bc;
      }

      .cls-14 {
        fill: #fff197;
      }

      .cls-15 {
        fill: #fd0;
      }

      .cls-16 {
        fill: #ffec5f;
      }

      .cls-17 {
        fill: #f0bf08;
      }

      .cls-18 {
        fill: #998675;
      }

      .cls-19 {
        fill: #22b573;
      }

      .cls-20 {
        fill: #29abe2;
      }

      .cls-21 {
        fill: #2e3192;
      }

      .cls-3, .cls-22 {
        stroke-width: 2px;
      }

      .cls-23 {
        fill: #8cc63f;
        stroke: #8c6239;
        stroke-width: 9px;
      }

      .cls-23, .cls-22, .cls-11, .cls-4, .cls-24, .cls-25 {
        stroke-miterlimit: 10;
      }

      .cls-22 {
        fill: url(#linear-gradient);
      }

      .cls-22, .cls-11, .cls-24 {
        stroke: #006837;
      }

      .cls-11, .cls-4, .cls-24, .cls-25 {
        fill: none;
      }

      .cls-26 {
        fill: url(#linear-gradient-2);
      }

      .cls-5, .cls-6 {
        stroke-width: 3px;
      }

      .cls-7 {
        stroke-width: 12px;
      }

      .cls-9 {
        fill: #80df00;
      }

      .cls-8, .cls-24, .cls-25 {
        stroke-width: 7px;
      }

      .cls-25 {
        stroke: #fff;
      }

      .cls-27 {
        fill: #7dc1ea;
        opacity: .83;
      }
    </style>
    <linearGradient id="linear-gradient" x1="506.5" y1="528.45" x2="1724.57" y2="528.45" gradientTransform="translate(-148.05 -59.95)" gradientUnits="userSpaceOnUse">
      <stop offset="0" stop-color="#cce0f4"/>
      <stop offset=".02" stop-color="#c2dcf2"/>
      <stop offset=".05" stop-color="#a9d2ee"/>
      <stop offset=".1" stop-color="#7fc2e7"/>
      <stop offset=".15" stop-color="#46abdd"/>
      <stop offset=".18" stop-color="#1e9cd7"/>
      <stop offset=".43" stop-color="#0075be"/>
      <stop offset=".71" stop-color="#034d77"/>
    </linearGradient>
    <linearGradient id="linear-gradient-2" x1="-1317" y1="844.57" x2="3712" y2="844.57" gradientUnits="userSpaceOnUse">
      <stop offset="0" stop-color="#cce0f4"/>
      <stop offset="0" stop-color="#b9d8f0"/>
      <stop offset=".02" stop-color="#94caea"/>
      <stop offset=".04" stop-color="#74bde5"/>
      <stop offset=".06" stop-color="#59b3e0"/>
      <stop offset=".08" stop-color="#43aadd"/>
      <stop offset=".11" stop-color="#32a4da"/>
      <stop offset=".14" stop-color="#269fd8"/>
      <stop offset=".19" stop-color="#1f9cd7"/>
      <stop offset=".31" stop-color="#1e9cd7"/>
      <stop offset=".87" stop-color="#0075be"/>
      <stop offset=".99" stop-color="#005b97"/>
    </linearGradient>
  </defs>
  <g>
    <rect class="cls-22" x="358.45" y="-1045.43" width="1223" height="3027.85" rx="48.51" ry="48.51" transform="translate(501.45 1438.45) rotate(-90)"/>
    <path class="cls-26" d="M-942.25,583.25c140.37-36.08,291.6-33.03,392.74-30.99,351.75,7.1,393.5,90.48,702.68,108.96,302.02,18.05,341.05-56.81,804.58-63.98,207.02-3.2,173.52,12.13,522.23,20.99,468.03,11.9,702.04,17.85,953.18-25.99,220.61-38.51,278.39-81.03,486.14-84.97,207.18-3.92,363.96,34.31,411.84,46.98,196.89,52.11,395.46,158.33,380,220.91-88.72,359.21-4652.76,613.34-5007.92,174.93-79.28-97.86,81.86-296.78,354.52-366.86Z"/>
    <path class="cls-27" d="M-674,762.79c143.29-39.75,354.88-41.2,498.73-22.51,126.42,16.43,137.76,40.26,250.11,43.53,108.33,3.14,143.24-17.69,305.53-32.02,143.73-12.69,262.42-9.24,322-7.5,233.29,6.78,246.2,37.44,440.32,43.53,115.03,3.6,230.45-8.44,461.28-32.52,266.36-27.79,296.51-42.91,429.83-42.52,54.36,.16,238.35,3.23,362.44,41.52,183.83,56.74,175.12,171.93,92.86,239.14-261.18,213.37-1671.13,275.75-2622.43,130.58-176.68-26.96-674.68-102.96-702.41-226.63-9.7-43.26,36.46-99.82,161.75-134.58Z"/>
    <path class="cls-23" d="M-73.66,926.19c71.48-61.21,211.59-6.06,556-22.78,253.47-12.31,309.53-48.59,468-19.53,74.62,13.68,123.19,32.91,219,32.55,117.43-.44,124.8-29.62,247-29.29,121.36,.33,166.79,29.25,239,5.21,14.76-4.92,46.77-17.42,100-32.55,39.46-11.22,57.15-14.38,77-14.97,42.96-1.28,76.12,10.52,84,13.02,70.88,22.51,37.67,193.23-12,257.79-131.74,171.25-649.6,124.61-1654,42.31-94.71-7.76-273.44-23.93-332-103.51-26.4-35.87-34.8-91.6,8-128.24Z"/>
    <rect class="cls-25" x="4.5" y="4.5" width="1911" height="1072"/>
    <g>
      <g>
        <polygon class="cls-15" points="62.74 175.99 63.95 159.94 49.06 153.83 64.7 150.02 65.92 133.98 74.36 147.67 90 143.87 79.59 156.14 88.03 169.83 73.15 163.72 62.74 175.99"/>
        <polygon class="cls-16" points="59.42 179.89 60.63 163.85 45.75 157.73 49.06 153.83 63.95 159.94 62.74 175.99 59.42 179.89"/>
        <polygon class="cls-17" points="84.72 173.74 69.83 167.63 73.15 163.72 88.03 169.83 84.72 173.74"/>
        <polygon class="cls-14" points="61.62 150.77 62.6 137.88 65.92 133.98 64.7 150.02 61.62 150.77"/>
      </g>
      <g>
        <polygon class="cls-15" points="184.43 231.62 194.58 219.13 185.84 205.62 200.85 211.42 211 198.93 210.13 215 225.14 220.79 209.59 224.93 208.72 240.99 199.98 227.48 184.43 231.62"/>
        <polygon class="cls-16" points="179.48 232.94 189.62 220.45 180.88 206.94 185.84 205.62 194.58 219.13 184.43 231.62 179.48 232.94"/>
        <polygon class="cls-17" points="203.77 242.31 195.03 228.8 199.98 227.48 208.72 240.99 203.77 242.31"/>
        <polygon class="cls-14" points="197.9 210.28 206.05 200.24 211 198.93 200.85 211.42 197.9 210.28"/>
      </g>
      <g>
        <polygon class="cls-15" points="736.58 149.85 746.66 137.3 737.85 123.84 752.9 129.55 762.98 117.01 762.19 133.09 777.24 138.8 761.71 143.02 760.92 159.09 752.11 145.63 736.58 149.85"/>
        <polygon class="cls-16" points="731.64 151.19 741.72 138.65 732.91 125.18 737.85 123.84 746.66 137.3 736.58 149.85 731.64 151.19"/>
        <polygon class="cls-17" points="755.97 160.43 747.16 146.97 752.11 145.63 760.92 159.09 755.97 160.43"/>
        <polygon class="cls-14" points="749.94 128.43 758.03 118.35 762.98 117.01 752.9 129.55 749.94 128.43"/>
      </g>
      <g>
        <polygon class="cls-15" points="918.7 235.21 929.15 222.97 920.73 209.25 935.6 215.4 946.05 203.16 944.79 219.21 959.66 225.36 944.02 229.12 942.76 245.16 934.35 231.45 918.7 235.21"/>
        <polygon class="cls-16" points="913.72 236.41 924.17 224.17 915.75 210.45 920.73 209.25 929.15 222.97 918.7 235.21 913.72 236.41"/>
        <polygon class="cls-17" points="937.78 246.36 929.37 232.65 934.35 231.45 942.76 245.16 937.78 246.36"/>
        <polygon class="cls-14" points="932.68 214.19 941.06 204.36 946.05 203.16 935.6 215.4 932.68 214.19"/>
      </g>
      <g>
        <polygon class="cls-15" points="493.98 172.18 504.8 160.26 496.81 146.29 511.49 152.9 522.3 140.98 520.55 156.98 535.23 163.59 519.47 166.87 517.73 182.86 509.74 168.9 493.98 172.18"/>
        <polygon class="cls-16" points="488.97 173.22 499.78 161.3 491.8 147.34 496.81 146.29 504.8 160.26 493.98 172.18 488.97 173.22"/>
        <polygon class="cls-17" points="512.71 183.91 504.72 169.94 509.74 168.9 517.73 182.86 512.71 183.91"/>
        <polygon class="cls-14" points="508.6 151.6 517.29 142.03 522.3 140.98 511.49 152.9 508.6 151.6"/>
      </g>
      <g>
        <polygon class="cls-15" points="1275.96 192.99 1281.2 177.77 1268.35 168.09 1284.44 168.37 1289.68 153.16 1294.38 168.55 1310.47 168.83 1297.29 178.06 1301.99 193.45 1289.14 183.76 1275.96 192.99"/>
        <polygon class="cls-16" points="1271.76 195.93 1277 180.71 1264.15 171.03 1268.35 168.09 1281.2 177.77 1275.96 192.99 1271.76 195.93"/>
        <polygon class="cls-17" points="1297.79 196.39 1284.94 186.7 1289.14 183.76 1301.99 193.45 1297.79 196.39"/>
        <polygon class="cls-14" points="1281.27 168.31 1285.48 156.09 1289.68 153.16 1284.44 168.37 1281.27 168.31"/>
      </g>
      <g>
        <polygon class="cls-15" points="1533.16 106.14 1545.07 95.32 1538.46 80.65 1552.44 88.63 1564.34 77.81 1561.07 93.57 1575.04 101.55 1559.05 103.31 1555.77 119.06 1549.16 104.39 1533.16 106.14"/>
        <polygon class="cls-16" points="1528.07 106.7 1539.98 95.88 1533.37 81.21 1538.46 80.65 1545.07 95.32 1533.16 106.14 1528.07 106.7"/>
        <polygon class="cls-17" points="1550.68 119.62 1544.07 104.95 1549.16 104.39 1555.77 119.06 1550.68 119.62"/>
        <polygon class="cls-14" points="1549.69 87.06 1559.25 78.37 1564.34 77.81 1552.44 88.63 1549.69 87.06"/>
      </g>
      <g>
        <polygon class="cls-15" points="1805.74 202.28 1806.61 186.21 1791.6 180.42 1807.15 176.28 1808.03 160.22 1816.76 173.73 1832.32 169.59 1822.17 182.08 1830.9 195.59 1815.89 189.8 1805.74 202.28"/>
        <polygon class="cls-16" points="1802.51 206.26 1803.38 190.19 1788.37 184.4 1791.6 180.42 1806.61 186.21 1805.74 202.28 1802.51 206.26"/>
        <polygon class="cls-17" points="1827.67 199.57 1812.66 193.77 1815.89 189.8 1830.9 195.59 1827.67 199.57"/>
        <polygon class="cls-14" points="1804.09 177.1 1804.79 164.19 1808.03 160.22 1807.15 176.28 1804.09 177.1"/>
      </g>
      <g>
        <polygon class="cls-15" points="1549.1 218.76 1554.85 203.73 1542.34 193.61 1558.41 194.44 1564.17 179.41 1568.34 194.96 1584.41 195.79 1570.92 204.56 1575.1 220.1 1562.59 209.98 1549.1 218.76"/>
        <polygon class="cls-16" points="1544.8 221.55 1550.56 206.52 1538.04 196.4 1542.34 193.61 1554.85 203.73 1549.1 218.76 1544.8 221.55"/>
        <polygon class="cls-17" points="1570.8 222.9 1558.29 212.78 1562.59 209.98 1575.1 220.1 1570.8 222.9"/>
        <polygon class="cls-14" points="1555.25 194.28 1559.87 182.21 1564.17 179.41 1558.41 194.44 1555.25 194.28"/>
      </g>
      <g>
        <polygon class="cls-15" points="1101.44 141.63 1111.67 129.2 1103.02 115.64 1117.99 121.53 1128.22 109.11 1127.24 125.17 1142.22 131.06 1126.64 135.1 1125.66 151.16 1117.01 137.59 1101.44 141.63"/>
        <polygon class="cls-16" points="1096.48 142.91 1106.71 130.49 1098.05 116.92 1103.02 115.64 1111.67 129.2 1101.44 141.63 1096.48 142.91"/>
        <polygon class="cls-17" points="1120.7 152.44 1112.05 138.88 1117.01 137.59 1125.66 151.16 1120.7 152.44"/>
        <polygon class="cls-14" points="1115.04 120.37 1123.26 110.39 1128.22 109.11 1117.99 121.53 1115.04 120.37"/>
      </g>
    </g>
  </g>
  <path class="cls-19" d="M1714,985c6.76-32.52,44.61-50.49,52-54,4.71-2.24,80.76-37.07,123,5,15.52,15.46,27.5,42.32,19,52-17.78,20.24-113.21-48.16-139-21-9.73,10.25-2.85,27.04-18,38-10.09,7.3-26.63,9.6-34,2-6.24-6.43-3.86-17.85-3-22Z"/>
  <path id="path623" class="cls-10" d="M1790.18,855.94c0,29.53-27.8,53.46-62.09,53.46s-62.09-23.94-62.09-53.46,27.8-53.46,62.09-53.46,62.09,23.94,62.09,53.46Z"/>
  <path id="path624" class="cls-10" d="M1845.62,820.3c0,28.33-24.1,51.3-53.83,51.3s-53.83-22.97-53.83-51.3,24.1-51.3,53.83-51.3,53.83,22.97,53.83,51.3Z"/>
  <path id="path625" class="cls-10" d="M1919,847.84c.21,29.82-25.61,54.16-57.65,54.35-32.05,.19-58.19-23.83-58.4-53.66,0-.23,0-.46,0-.69-.21-29.82,25.61-54.16,57.65-54.35,32.05-.19,58.19,23.83,58.4,53.66,0,.23,0,.46,0,.69Z"/>
  <path id="path628" class="cls-7" d="M1759.52,932.09c10.06,.36,20.11,.72,30.17,1.08,1.94,18,2.71,24.12,9.29,31.32,11.6-6.48,18.56-12.96,20.89-22.68,0,0,45.26-6.48,29.01,0-10.44,24.84-34.81,28.08-38.29,48.6-4.25,24.12,7.17,49.44,9.88,72.48-21.67-.36-46.84,.36-68.51,0,11.99-40.68,22.27-51.24,27.29-81.12-.77-23.04-14.32-29.88-19.73-49.68h0Z"/>
  <path id="path626" class="cls-10" d="M1827.3,902.92c.29,25.05-24.67,45.55-55.75,45.79-31.08,.24-56.52-19.88-56.81-44.93,0-.28,0-.57,0-.85-.29-25.05,24.67-45.55,55.75-45.79,31.08-.24,56.52,19.88,56.81,44.93,0,.28,0,.57,0,.85Z"/>
  <path id="path627" class="cls-10" d="M1888.81,905.63c0,25.95-24.16,46.98-53.96,46.98s-53.96-21.04-53.96-46.98,24.16-46.98,53.96-46.98,53.96,21.04,53.96,46.98Z"/>
  <path id="path610" class="cls-9" d="M1879.53,899.69c0,23.26-21.82,42.12-48.74,42.12s-48.74-18.86-48.74-42.12,21.82-42.12,48.74-42.12,48.74,18.86,48.74,42.12Z"/>
  <path id="path611" class="cls-9" d="M1818.02,898.06c.25,22.37-20.85,40.67-47.13,40.88-26.28,.21-47.78-17.75-48.03-40.12,0-.25,0-.51,0-.76-.25-22.37,20.85-40.67,47.13-40.88,26.28-.21,47.78,17.75,48.03,40.12,0,.25,0,.51,0,.76Z"/>
  <path id="path612" class="cls-9" d="M1778.57,855.94c0,24.16-22.6,43.74-50.48,43.74s-50.48-19.58-50.48-43.74,22.6-43.74,50.48-43.74,50.48,19.58,50.48,43.74Z"/>
  <path id="path613" class="cls-9" d="M1908.54,848.38c.18,25.95-22.53,47.12-50.73,47.28-28.2,.17-51.21-20.73-51.39-46.68,0-.2,0-.4,0-.6-.18-25.95,22.53-47.12,50.73-47.28,28.2-.17,51.21,20.73,51.39,46.68,0,.2,0,.4,0,.6Z"/>
  <path id="path609" class="cls-9" d="M1838.91,824.62c0,24.76-21.3,44.82-47.58,44.82s-47.58-20.07-47.58-44.82,21.3-44.82,47.58-44.82,47.58,20.07,47.58,44.82Z"/>
  <path id="path629" class="cls-6" d="M1741.48,898.37c.07,9.49-8.14,17.24-18.34,17.31-10.2,.07-18.53-7.57-18.6-17.06,0-.08,0-.17,0-.25-.07-9.49,8.14-17.24,18.34-17.31s18.53,7.57,18.6,17.06c0,.08,0,.17,0,.25Z"/>
  <path id="path630" class="cls-6" d="M1802.16,912.69c.06,8.36-7.17,15.19-16.15,15.25-8.99,.06-16.32-6.67-16.39-15.03,0-.07,0-.15,0-.22-.06-8.36,7.17-15.19,16.15-15.25,8.99-.06,16.32,6.67,16.39,15.03,0,.07,0,.15,0,.22Z"/>
  <path id="path631" class="cls-6" d="M1887.47,913.1c.06,7.68-6.78,13.96-15.28,14.02-8.5,.06-15.44-6.13-15.5-13.81,0-.07,0-.13,0-.2-.06-7.68,6.78-13.96,15.28-14.02,8.5-.06,15.44,6.13,15.5,13.81,0,.07,0,.13,0,.2Z"/>
  <path id="path632" class="cls-6" d="M1772.26,845.57c.06,8.36-7.17,15.19-16.15,15.25-8.99,.06-16.32-6.67-16.39-15.03,0-.07,0-.15,0-.22-.06-8.36,7.17-15.19,16.15-15.25,8.99-.06,16.32,6.67,16.39,15.03,0,.07,0,.15,0,.22Z"/>
  <path id="path633" class="cls-6" d="M1837.34,867.27c.07,9.49-7.75,17.24-17.46,17.31-9.71,.07-17.65-7.57-17.72-17.06,0-.08,0-.17,0-.25-.07-9.49,7.75-17.24,17.46-17.31,9.71-.07,17.65,7.57,17.72,17.06,0,.08,0,.17,0,.25Z"/>
  <path id="path635" class="cls-6" d="M1878.68,838.21c.06,7.46-6.2,13.55-13.97,13.6-7.77,.05-14.12-5.95-14.17-13.41,0-.06,0-.13,0-.19-.06-7.46,6.2-13.55,13.97-13.6,7.77-.05,14.12,5.95,14.17,13.41,0,.06,0,.13,0,.19Z"/>
  <path id="path623-2" data-name="path623" class="cls-10" d="M921.89,820.28c0,14.7-17.66,26.62-39.45,26.62s-39.45-11.92-39.45-26.62,17.66-26.62,39.45-26.62,39.45,11.92,39.45,26.62Z"/>
  <path id="path624-2" data-name="path624" class="cls-10" d="M957.12,802.54c0,14.11-15.31,25.54-34.2,25.54s-34.2-11.44-34.2-25.54,15.31-25.54,34.2-25.54,34.2,11.44,34.2,25.54Z"/>
  <path id="path625-2" data-name="path625" class="cls-10" d="M1003.74,816.25c.13,14.85-16.27,26.96-36.63,27.06-20.36,.1-36.97-11.86-37.1-26.71,0-.11,0-.23,0-.34-.13-14.85,16.27-26.96,36.63-27.06,20.36-.1,36.97,11.86,37.1,26.71,0,.11,0,.23,0,.34Z"/>
  <path id="path628-2" data-name="path628" class="cls-8" d="M900.51,858.2c6.39,.18,12.78,.36,19.17,.54,1.23,8.96,1.72,12.01,5.9,15.59,7.37-3.23,11.79-6.45,13.27-11.29,0,0,28.75-3.23,18.43,0-6.63,12.37-22.12,13.98-24.33,24.2-2.7,12.01,4.56,24.62,6.28,36.09-13.77-.18-29.76,.18-43.53,0,7.62-20.25,14.15-25.51,17.34-40.39-.49-11.47-9.1-14.88-12.53-24.74h0Z"/>
  <path id="path626-2" data-name="path626" class="cls-10" d="M945.48,843.68c.19,12.47-15.67,22.68-35.42,22.8-19.75,.12-35.91-9.9-36.09-22.37,0-.14,0-.28,0-.43-.19-12.47,15.67-22.68,35.42-22.8,19.75-.12,35.91,9.9,36.09,22.37,0,.14,0,.28,0,.43Z"/>
  <path id="path627-2" data-name="path627" class="cls-10" d="M984.56,845.02c0,12.92-15.35,23.39-34.28,23.39s-34.28-10.47-34.28-23.39,15.35-23.39,34.28-23.39,34.28,10.47,34.28,23.39Z"/>
  <path id="path610-2" data-name="path610" class="cls-9" d="M978.67,842.06c0,11.58-13.86,20.97-30.97,20.97s-30.97-9.39-30.97-20.97,13.86-20.97,30.97-20.97,30.97,9.39,30.97,20.97Z"/>
  <path id="path611-2" data-name="path611" class="cls-9" d="M939.59,841.26c.16,11.14-13.25,20.25-29.94,20.35-16.69,.1-30.36-8.84-30.51-19.97,0-.13,0-.25,0-.38-.16-11.14,13.25-20.25,29.94-20.35s30.36,8.84,30.51,19.97c0,.13,0,.25,0,.38Z"/>
  <path id="path612-2" data-name="path612" class="cls-9" d="M914.52,820.29c0,12.03-14.36,21.78-32.07,21.78s-32.07-9.75-32.07-21.78,14.36-21.78,32.07-21.78,32.07,9.75,32.07,21.78Z"/>
  <path id="path613-2" data-name="path613" class="cls-9" d="M997.1,816.52c.11,12.92-14.32,23.46-32.23,23.54-17.92,.08-32.53-10.32-32.65-23.24,0-.1,0-.2,0-.3-.11-12.92,14.32-23.46,32.23-23.54,17.92-.08,32.53,10.32,32.65,23.24,0,.1,0,.2,0,.3Z"/>
  <path id="path609-2" data-name="path609" class="cls-9" d="M952.86,804.69c0,12.32-13.53,22.32-30.23,22.32s-30.23-9.99-30.23-22.32,13.53-22.32,30.23-22.32,30.23,9.99,30.23,22.32Z"/>
  <path id="path629-2" data-name="path629" class="cls-6" d="M890.95,841.41c.05,4.73-5.17,8.59-11.65,8.62-6.48,.03-11.77-3.77-11.82-8.5,0-.04,0-.08,0-.12-.05-4.73,5.17-8.59,11.65-8.62,6.48-.03,11.77,3.77,11.82,8.5,0,.04,0,.08,0,.12Z"/>
  <path id="path630-2" data-name="path630" class="cls-6" d="M929.51,848.54c.04,4.16-4.55,7.56-10.26,7.59-5.71,.03-10.37-3.32-10.41-7.48,0-.04,0-.07,0-.11-.04-4.16,4.55-7.56,10.26-7.59s10.37,3.32,10.41,7.48c0,.04,0,.07,0,.11Z"/>
  <path id="path631-2" data-name="path631" class="cls-6" d="M983.71,848.75c.04,3.83-4.31,6.95-9.71,6.98-5.4,.03-9.81-3.05-9.85-6.88,0-.03,0-.07,0-.1-.04-3.83,4.31-6.95,9.71-6.98s9.81,3.05,9.85,6.88c0,.03,0,.07,0,.1Z"/>
  <path id="path632-2" data-name="path632" class="cls-6" d="M910.51,815.12c.04,4.16-4.55,7.56-10.26,7.59-5.71,.03-10.37-3.32-10.41-7.48,0-.04,0-.07,0-.11-.04-4.16,4.55-7.56,10.26-7.59s10.37,3.32,10.41,7.48c0,.04,0,.07,0,.11Z"/>
  <path id="path633-2" data-name="path633" class="cls-6" d="M951.86,825.92c.04,4.73-4.92,8.59-11.09,8.62-6.17,.03-11.21-3.77-11.26-8.5,0-.04,0-.08,0-.12-.04-4.73,4.92-8.59,11.09-8.62s11.21,3.77,11.26,8.5c0,.04,0,.08,0,.12Z"/>
  <path id="path635-2" data-name="path635" class="cls-6" d="M978.12,811.46c.04,3.71-3.94,6.75-8.88,6.77-4.94,.03-8.97-2.96-9-6.68,0-.03,0-.06,0-.1-.04-3.71,3.94-6.75,8.88-6.77s8.97,2.96,9,6.68c0,.03,0,.06,0,.1Z"/>
  <path id="path623-3" data-name="path623" class="cls-10" d="M393.33,901.24c0,17.4-17.31,31.51-38.67,31.51s-38.67-14.11-38.67-31.51,17.31-31.51,38.67-31.51,38.67,14.11,38.67,31.51Z"/>
  <path id="path624-3" data-name="path624" class="cls-10" d="M427.86,880.24c0,16.7-15.01,30.24-33.53,30.24s-33.53-13.54-33.53-30.24,15.01-30.24,33.53-30.24,33.53,13.54,33.53,30.24Z"/>
  <path id="path625-3" data-name="path625" class="cls-10" d="M473.56,896.47c.13,17.58-15.95,31.92-35.9,32.03-19.96,.11-36.24-14.05-36.37-31.63,0-.14,0-.27,0-.41-.13-17.58,15.95-31.92,35.9-32.03,19.96-.11,36.24,14.05,36.37,31.63,0,.14,0,.27,0,.41Z"/>
  <path id="path628-3" data-name="path628" class="cls-2" d="M372.37,946.13c6.26,.21,12.53,.42,18.79,.64,1.21,10.61,1.69,14.22,5.78,18.46,7.23-3.82,11.56-7.64,13.01-13.37,0,0,28.19-3.82,18.07,0-6.5,14.64-21.68,16.55-23.85,28.65-2.65,14.22,4.47,29.14,6.15,42.72-13.49-.21-29.17,.21-42.67,0,7.47-23.98,13.87-30.2,17-47.81-.48-13.58-8.92-17.61-12.29-29.28h0Z"/>
  <path id="path626-3" data-name="path626" class="cls-10" d="M416.45,928.94c.18,14.77-15.36,26.85-34.72,26.99-19.36,.14-35.2-11.72-35.38-26.48,0-.17,0-.34,0-.5-.18-14.77,15.36-26.85,34.72-26.99s35.2,11.72,35.38,26.48c0,.17,0,.34,0,.5Z"/>
  <path id="path627-3" data-name="path627" class="cls-10" d="M454.76,930.53c0,15.29-15.05,27.69-33.61,27.69s-33.61-12.4-33.61-27.69,15.05-27.69,33.61-27.69,33.61,12.4,33.61,27.69Z"/>
  <path id="path610-3" data-name="path610" class="cls-9" d="M448.98,927.03c0,13.71-13.59,24.83-30.35,24.83s-30.35-11.12-30.35-24.83,13.59-24.83,30.35-24.83,30.35,11.12,30.35,24.83Z"/>
  <path id="path611-3" data-name="path611" class="cls-9" d="M410.68,926.07c.15,13.18-12.99,23.97-29.35,24.1-16.36,.12-29.75-10.46-29.91-23.65,0-.15,0-.3,0-.45-.15-13.18,12.99-23.97,29.35-24.1,16.36-.12,29.75,10.46,29.91,23.65,0,.15,0,.3,0,.45Z"/>
  <path id="path612-3" data-name="path612" class="cls-9" d="M386.1,901.25c0,14.24-14.08,25.78-31.44,25.78s-31.44-11.54-31.44-25.78,14.08-25.78,31.44-25.78,31.44,11.54,31.44,25.78Z"/>
  <path id="path613-3" data-name="path613" class="cls-9" d="M467.05,896.79c.11,15.29-14.03,27.77-31.6,27.87-17.56,.1-31.89-12.22-32-27.51,0-.12,0-.24,0-.35-.11-15.29,14.03-27.77,31.6-27.87,17.56-.1,31.89,12.22,32,27.51,0,.12,0,.24,0,.35Z"/>
  <path id="path609-3" data-name="path609" class="cls-9" d="M423.69,882.78c0,14.59-13.27,26.42-29.63,26.42s-29.63-11.83-29.63-26.42,13.27-26.42,29.63-26.42,29.63,11.83,29.63,26.42Z"/>
  <path id="path629-3" data-name="path629" class="cls-3" d="M363,926.25c.05,5.6-5.07,10.16-11.42,10.2-6.35,.04-11.54-4.46-11.58-10.06,0-.05,0-.1,0-.15-.05-5.6,5.07-10.16,11.42-10.2s11.54,4.46,11.58,10.06c0,.05,0,.1,0,.15Z"/>
  <path id="path630-3" data-name="path630" class="cls-3" d="M400.8,934.69c.04,4.93-4.46,8.95-10.06,8.99-5.6,.04-10.17-3.93-10.21-8.86,0-.04,0-.09,0-.13-.04-4.93,4.46-8.95,10.06-8.99s10.17,3.93,10.21,8.86c0,.04,0,.09,0,.13Z"/>
  <path id="path631-3" data-name="path631" class="cls-3" d="M453.93,934.94c.04,4.53-4.22,8.23-9.52,8.26-5.29,.03-9.62-3.61-9.65-8.14,0-.04,0-.08,0-.12-.04-4.53,4.22-8.23,9.52-8.26s9.62,3.61,9.65,8.14c0,.04,0,.08,0,.12Z"/>
  <path id="path632-3" data-name="path632" class="cls-3" d="M382.17,895.13c.04,4.93-4.46,8.95-10.06,8.99-5.6,.04-10.17-3.93-10.21-8.86,0-.04,0-.09,0-.13-.04-4.93,4.46-8.95,10.06-8.99s10.17,3.93,10.21,8.86c0,.04,0,.09,0,.13Z"/>
  <path id="path633-3" data-name="path633" class="cls-3" d="M422.7,907.92c.04,5.6-4.83,10.16-10.88,10.2-6.05,.04-10.99-4.46-11.03-10.06,0-.05,0-.1,0-.15-.04-5.6,4.83-10.16,10.88-10.2s10.99,4.46,11.03,10.06c0,.05,0,.1,0,.15Z"/>
  <path id="path635-3" data-name="path635" class="cls-1" d="M448.45,890.79c.03,4.4-3.86,7.99-8.7,8.02-4.84,.03-8.79-3.51-8.83-7.9,0-.04,0-.08,0-.11-.03-4.4,3.86-7.99,8.7-8.02s8.79,3.51,8.83,7.9c0,.04,0,.08,0,.11Z"/>
  <path id="path623-4" data-name="path623" class="cls-10" d="M1364.72,931.72c0,8.73-9.12,15.82-20.38,15.82s-20.38-7.08-20.38-15.82,9.12-15.82,20.38-15.82,20.38,7.08,20.38,15.82Z"/>
  <path id="path624-4" data-name="path624" class="cls-10" d="M1382.92,921.18c0,8.38-7.91,15.18-17.67,15.18s-17.67-6.8-17.67-15.18,7.91-15.18,17.67-15.18,17.67,6.8,17.67,15.18Z"/>
  <path id="path625-4" data-name="path625" class="cls-10" d="M1407,929.32c.07,8.82-8.4,16.02-18.92,16.08-10.52,.06-19.1-7.05-19.17-15.87,0-.07,0-.14,0-.2-.07-8.82,8.4-16.02,18.92-16.08,10.52-.06,19.1,7.05,19.17,15.87,0,.07,0,.14,0,.2Z"/>
  <path id="path628-4" data-name="path628" class="cls-5" d="M1353.67,954.25c3.3,.11,6.6,.21,9.9,.32,.64,5.33,.89,7.14,3.05,9.27,3.81-1.92,6.09-3.83,6.86-6.71,0,0,14.85-1.92,9.52,0-3.43,7.35-11.43,8.31-12.57,14.38-1.4,7.14,2.35,14.63,3.24,21.44-7.11-.11-15.37,.11-22.49,0,3.94-12.04,7.31-15.16,8.96-24-.25-6.82-4.7-8.84-6.47-14.7h0Z"/>
  <path id="path626-4" data-name="path626" class="cls-10" d="M1376.9,945.62c.1,7.41-8.1,13.48-18.3,13.55-10.2,.07-18.55-5.88-18.65-13.29,0-.08,0-.17,0-.25-.1-7.41,8.1-13.48,18.3-13.55,10.2-.07,18.55,5.88,18.65,13.29,0,.08,0,.17,0,.25Z"/>
  <path id="path627-4" data-name="path627" class="cls-10" d="M1397.09,946.42c0,7.68-7.93,13.9-17.71,13.9s-17.71-6.22-17.71-13.9,7.93-13.9,17.71-13.9,17.71,6.22,17.71,13.9Z"/>
  <path id="path610-4" data-name="path610" class="cls-9" d="M1394.05,944.66c0,6.88-7.16,12.46-16,12.46s-16-5.58-16-12.46,7.16-12.46,16-12.46,16,5.58,16,12.46Z"/>
  <path id="path611-4" data-name="path611" class="cls-9" d="M1373.86,944.18c.08,6.62-6.84,12.03-15.47,12.09-8.62,.06-15.68-5.25-15.76-11.87,0-.08,0-.15,0-.23-.08-6.62,6.84-12.03,15.47-12.09s15.68,5.25,15.76,11.87c0,.08,0,.15,0,.23Z"/>
  <path id="path612-4" data-name="path612" class="cls-9" d="M1360.91,931.72c0,7.15-7.42,12.94-16.57,12.94s-16.57-5.79-16.57-12.94,7.42-12.94,16.57-12.94,16.57,5.79,16.57,12.94Z"/>
  <path id="path613-4" data-name="path613" class="cls-9" d="M1403.57,929.48c.06,7.68-7.4,13.94-16.65,13.99-9.26,.05-16.81-6.13-16.87-13.81,0-.06,0-.12,0-.18-.06-7.68,7.4-13.94,16.65-13.99,9.26-.05,16.81,6.13,16.87,13.81,0,.06,0,.12,0,.18Z"/>
  <path id="path609-4" data-name="path609" class="cls-9" d="M1380.72,922.45c0,7.32-6.99,13.26-15.62,13.26s-15.62-5.94-15.62-13.26,6.99-13.26,15.62-13.26,15.62,5.94,15.62,13.26Z"/>
  <path id="path629-4" data-name="path629" class="cls-6" d="M1348.74,944.27c.02,2.81-2.67,5.1-6.02,5.12-3.35,.02-6.08-2.24-6.11-5.05,0-.02,0-.05,0-.07-.02-2.81,2.67-5.1,6.02-5.12s6.08,2.24,6.11,5.05c0,.02,0,.05,0,.07Z"/>
  <path id="path630-4" data-name="path630" class="cls-6" d="M1368.65,948.51c.02,2.47-2.35,4.49-5.3,4.51-2.95,.02-5.36-1.97-5.38-4.45,0-.02,0-.04,0-.06-.02-2.47,2.35-4.49,5.3-4.51s5.36,1.97,5.38,4.45c0,.02,0,.04,0,.06Z"/>
  <path id="path631-4" data-name="path631" class="cls-6" d="M1396.65,948.63c.02,2.27-2.23,4.13-5.01,4.15-2.79,.02-5.07-1.81-5.09-4.09,0-.02,0-.04,0-.06-.02-2.27,2.23-4.13,5.01-4.15s5.07,1.81,5.09,4.09c0,.02,0,.04,0,.06Z"/>
  <path id="path632-4" data-name="path632" class="cls-6" d="M1358.84,928.65c.02,2.47-2.35,4.49-5.3,4.51-2.95,.02-5.36-1.97-5.38-4.45,0-.02,0-.04,0-.06-.02-2.47,2.35-4.49,5.3-4.51s5.36,1.97,5.38,4.45c0,.02,0,.04,0,.06Z"/>
  <path id="path633-4" data-name="path633" class="cls-6" d="M1380.2,935.07c.02,2.81-2.54,5.1-5.73,5.12-3.19,.02-5.79-2.24-5.81-5.05,0-.02,0-.05,0-.07-.02-2.81,2.54-5.1,5.73-5.12s5.79,2.24,5.81,5.05c0,.02,0,.05,0,.07Z"/>
  <path id="path635-4" data-name="path635" class="cls-6" d="M1393.77,926.47c.02,2.21-2.03,4.01-4.59,4.02-2.55,.02-4.63-1.76-4.65-3.97,0-.02,0-.04,0-.06-.02-2.21,2.03-4.01,4.59-4.02s4.63,1.76,4.65,3.97c0,.02,0,.04,0,.06Z"/>
  <path class="cls-20" d="M1687.35,955.33c-14.16,49.89-87.26,77.45-147.82,72.33-44.52-3.76-91.27-25.95-89.97-39.98,1.43-15.38,61.53-30.72,116.88-21.45,35.64,5.97,48.47,18.66,68.83,10.13,33.56-14.06,39.21-65.52,48.14-63.27,5.54,1.4,9.48,22.71,3.94,42.24Z"/>
  <path class="cls-4" d="M1477.05,1014.35c.44-1.29,1.05-2.53,1.8-3.67,.16-.24,.44-.52,.7-.38,.15,.08,.21,.27,.25,.43,.39,1.56,.77,3.13,1.16,4.69,.56-.92,1.25-1.76,2.04-2.49-.07,.96,.07,1.94,.42,2.83,.58-.74,1.64-1.14,2.52-.79s1.37,1.53,.86,2.32c.7-.3,1.45-.48,2.2-.54,.26,.81,.39,1.65,.38,2.5,1.19-.81,2.54-1.38,3.96-1.64,.19-.04,.41-.06,.58,.03,.57,.31,.19,1.54,.83,1.61,.63-.34,1.27-.68,1.9-1.01,.17-.09,.38-.19,.56-.1,.16,.08,.22,.28,.25,.45,.12,.61,.16,1.26,.5,1.78s1.13,.81,1.58,.38"/>
  <path class="cls-4" d="M1499.52,1024.18c.14-1.34,.43-2.65,.86-3.88,.09-.27,.28-.58,.52-.48,.14,.06,.22,.23,.29,.39,.6,1.48,1.21,2.96,1.81,4.44,.31-.99,.74-1.92,1.27-2.76,.11,.96,.4,1.89,.86,2.72,.36-.82,1.18-1.37,1.98-1.16s1.42,1.29,1.14,2.15c.53-.4,1.13-.7,1.76-.86,.36,.75,.62,1.57,.76,2.4,.85-.98,1.89-1.74,3.03-2.22,.16-.07,.33-.13,.49-.06,.53,.22,.43,1.49,.98,1.45,.47-.43,.94-.86,1.42-1.29,.13-.12,.29-.24,.45-.18,.15,.05,.23,.24,.29,.41,.21,.58,.36,1.21,.73,1.67s1.1,.62,1.4,.14"/>
  <path class="cls-4" d="M1519.46,1029.32c.03-1.37,.23-2.73,.61-4.04,.08-.28,.27-.63,.56-.58,.17,.03,.28,.19,.37,.34,.84,1.37,1.68,2.75,2.53,4.12,.26-1.04,.66-2.05,1.19-2.99,.22,.94,.65,1.82,1.26,2.57,.33-.88,1.22-1.58,2.16-1.51s1.77,1.04,1.53,1.95c.57-.5,1.23-.9,1.94-1.18,.49,.69,.87,1.46,1.12,2.26,.88-1.13,2.01-2.08,3.27-2.76,.17-.09,.37-.18,.56-.15,.63,.12,.64,1.41,1.28,1.28,.5-.51,1-1.03,1.5-1.54,.14-.14,.31-.29,.5-.26,.18,.03,.29,.2,.38,.36,.3,.54,.53,1.15,1.01,1.54s1.32,.43,1.63-.11"/>
  <path class="cls-4" d="M1458.05,1001.93c.77-1.13,1.68-2.16,2.71-3.06,.22-.19,.56-.38,.78-.18,.13,.12,.13,.31,.13,.49-.04,1.61-.08,3.22-.12,4.83,.78-.74,1.67-1.36,2.62-1.86-.32,.91-.44,1.89-.34,2.84,.76-.56,1.88-.66,2.64-.09s.92,1.83,.22,2.47c.75-.11,1.52-.09,2.27,.07,.03,.84-.06,1.69-.29,2.51,1.36-.47,2.82-.65,4.25-.54,.2,.02,.41,.04,.55,.18,.46,.45-.23,1.53,.37,1.77,.7-.16,1.4-.32,2.1-.48,.19-.04,.42-.08,.56,.05,.13,.12,.14,.33,.12,.51-.05,.62-.18,1.26,0,1.85s.88,1.08,1.43,.79"/>
  <path class="cls-4" d="M1542.97,1030.38c-.08-1.36,.02-2.74,.29-4.08,.06-.29,.22-.65,.51-.62,.17,.02,.29,.17,.4,.31,.95,1.3,1.89,2.61,2.84,3.91,.17-1.06,.5-2.1,.95-3.07,.29,.92,.79,1.77,1.45,2.47,.26-.91,1.09-1.67,2.04-1.68s1.84,.9,1.67,1.83c.53-.54,1.16-.99,1.84-1.33,.54,.65,.98,1.38,1.29,2.17,.79-1.2,1.84-2.23,3.05-3.01,.17-.11,.35-.21,.55-.19,.64,.07,.75,1.35,1.37,1.18,.46-.55,.92-1.1,1.38-1.65,.13-.15,.28-.32,.48-.3,.18,.01,.31,.18,.41,.33,.34,.52,.62,1.11,1.13,1.46s1.35,.32,1.61-.24"/>
  <path class="cls-4" d="M1566.98,1029.44c-.09-1.36,0-2.74,.27-4.08,.06-.29,.21-.65,.51-.62,.17,.02,.3,.17,.4,.31,.95,1.3,1.91,2.6,2.86,3.89,.17-1.06,.48-2.1,.93-3.08,.3,.92,.8,1.76,1.47,2.46,.26-.91,1.08-1.68,2.03-1.69s1.85,.89,1.68,1.82c.53-.55,1.15-1,1.83-1.34,.54,.65,.99,1.38,1.3,2.16,.79-1.2,1.83-2.24,3.03-3.03,.17-.11,.35-.21,.55-.19,.64,.07,.76,1.35,1.38,1.17,.46-.55,.91-1.11,1.37-1.66,.13-.15,.28-.32,.48-.3,.18,.01,.31,.17,.41,.32,.34,.52,.63,1.1,1.14,1.45s1.36,.31,1.61-.25"/>
  <path class="cls-4" d="M1590.89,1027.67c-.37-1.31-.58-2.68-.6-4.04,0-.29,.07-.68,.36-.71,.17-.02,.32,.1,.45,.22,1.21,1.07,2.41,2.13,3.62,3.2-.06-1.07,.03-2.15,.26-3.2,.49,.83,1.16,1.55,1.96,2.09,.06-.94,.7-1.87,1.62-2.08s1.99,.48,2.03,1.42c.4-.65,.91-1.22,1.51-1.69,.67,.52,1.26,1.14,1.73,1.84,.51-1.34,1.31-2.58,2.32-3.6,.14-.14,.3-.28,.49-.3,.64-.07,1.03,1.16,1.6,.85,.33-.64,.66-1.28,.99-1.92,.09-.17,.21-.37,.4-.4,.18-.03,.34,.1,.47,.23,.44,.43,.84,.95,1.42,1.18s1.39,.02,1.52-.59"/>
  <path class="cls-4" d="M1597.76,973.9c.2-1.35,.58-2.68,1.13-3.93,.12-.27,.35-.59,.63-.5,.16,.05,.25,.23,.32,.38,.66,1.47,1.31,2.94,1.97,4.41,.39-1,.92-1.95,1.56-2.81,.1,.96,.41,1.89,.91,2.72,.44-.83,1.42-1.41,2.34-1.22s1.62,1.26,1.26,2.13c.63-.42,1.34-.73,2.07-.92,.4,.75,.67,1.56,.82,2.39,1.02-1.01,2.26-1.8,3.6-2.31,.18-.07,.39-.14,.58-.07,.61,.21,.46,1.48,1.1,1.43,.56-.44,1.13-.89,1.69-1.33,.15-.12,.34-.25,.53-.2,.17,.05,.26,.24,.33,.4,.22,.58,.38,1.21,.8,1.66s1.26,.6,1.63,.1"/>
  <path class="cls-4" d="M1575.76,967.41c.38-1.31,.93-2.58,1.63-3.75,.15-.25,.42-.54,.69-.41,.16,.07,.22,.26,.27,.42,.46,1.54,.92,3.09,1.37,4.63,.52-.94,1.17-1.81,1.92-2.58-.03,.96,.16,1.93,.55,2.81,.55-.77,1.59-1.21,2.48-.9s1.44,1.46,.97,2.28c.68-.33,1.42-.55,2.18-.64,.29,.79,.46,1.63,.5,2.48,1.15-.87,2.48-1.49,3.88-1.82,.19-.05,.4-.08,.58,0,.58,.28,.26,1.53,.9,1.57,.62-.37,1.23-.73,1.85-1.1,.17-.1,.37-.2,.55-.12,.16,.07,.23,.27,.27,.44,.15,.6,.21,1.25,.58,1.75s1.17,.75,1.6,.31"/>
  <path class="cls-11" d="M1345.17,997.45c-.07-2.36,.15-4.73,.68-7.02,.11-.49,.4-1.1,.9-1.03,.29,.04,.49,.31,.66,.56,1.55,2.32,3.1,4.63,4.66,6.95,.35-1.82,.94-3.59,1.76-5.24,.46,1.6,1.27,3.11,2.37,4.36,.49-1.55,1.94-2.81,3.54-2.76s3.1,1.68,2.77,3.27c.93-.9,2.02-1.64,3.19-2.17,.89,1.16,1.6,2.46,2.1,3.83,1.4-2.02,3.23-3.73,5.32-4.99,.29-.17,.61-.34,.94-.29,1.09,.17,1.22,2.39,2.28,2.12,.81-.92,1.62-1.84,2.42-2.76,.22-.25,.5-.53,.83-.49,.3,.04,.52,.32,.68,.59,.55,.92,1,1.95,1.86,2.6s2.29,.65,2.76-.31"/>
  <path class="cls-24" d="M865.87,934.07c1.52-3.58,3.93-7.22,7.14-10.79,.69-.77,1.97-1.74,3.36-1.72,.82,.01,1.2,.39,1.5,.74,2.81,3.26,5.61,6.52,8.42,9.78,2.35-2.82,5.37-5.61,8.97-8.26,.15,2.36,1.41,4.51,3.66,6.23,2.56-2.43,7.71-4.6,12.33-4.79,4.63-.19,7.76,2.03,5.63,4.51,3.37-1.53,7.06-2.83,10.88-3.83,1.74,1.61,2.85,3.47,3.28,5.48,5.57-3.3,12.14-6.21,19.15-8.48,.96-.31,2.02-.62,2.95-.6,3.03,.08,1.78,3.43,5.07,2.85,3.03-1.54,6.05-3.07,9.08-4.61,.83-.42,1.83-.88,2.77-.88,.86,0,1.26,.41,1.53,.78,.92,1.31,1.48,2.8,3.48,3.64s6.18,.6,8.24-.93"/>
  <path class="cls-24" d="M341.53,1031.01c.69-5.11,2.18-10.22,4.4-15.15,.48-1.06,1.45-2.36,2.72-2.18,.75,.11,1.17,.7,1.51,1.25,3.18,5.1,6.36,10.2,9.54,15.3,1.58-3.91,3.8-7.7,6.55-11.23,.59,3.5,2.15,6.79,4.53,9.57,1.86-3.31,6.11-5.96,10.28-5.76,4.17,.21,7.45,3.82,5.99,7.24,2.76-1.89,5.87-3.42,9.14-4.49,1.89,2.56,3.26,5.41,4.04,8.42,4.42-4.28,9.83-7.87,15.77-10.47,.82-.36,1.72-.71,2.57-.57,2.77,.44,2.28,5.24,5.16,4.73,2.45-1.94,4.91-3.89,7.36-5.83,.67-.53,1.5-1.11,2.35-1,.78,.1,1.22,.73,1.54,1.32,1.09,2.02,1.88,4.29,3.87,5.73s5.73,1.54,7.31-.5"/>
  <path class="cls-13" d="M1491.5,985.5c12.57-3.16,13.47-8.38,24-12,11.72-4.03,28.04-3.56,31,3,2.31,5.11-3.01,14.98-10,17-7.91,2.29-12.47-7.05-27-7-3.45,.01-7.43,.03-12,2-6.73,2.91-8.47,7.37-13,7-3.81-.31-7.46-3.86-7-6,.54-2.47,6.35-2.08,14-4Z"/>
  <path class="cls-18" d="M1514,963c-.11-.63-5.13-.28-9,0-4.91,.35-7.74,.75-17,2-.07,0-6.75,.91-14,3-1.82,.52-5.34,1.6-6,4-.09,.31-.18,.69,0,1,.8,1.35,5.75-.51,11-2,1.35-.38,10.39-2.92,20-4,.87-.1,4.91-.54,10-2,1.51-.43,5.09-1.46,5-2Z"/>
  <path class="cls-18" d="M1644.06,1005.42c.34,.36,4.53-2.42,7.75-4.57,4.09-2.73,6.37-4.42,13.87-9.95,.06-.04,5.46-4.03,10.89-9.09,1.36-1.27,3.98-3.77,3.61-5.68-.05-.25-.11-.55-.39-.66-1.22-.48-4.75,3.25-8.7,6.91-1.01,.94-7.82,7.2-15.67,12.79-.71,.51-4.02,2.85-7.84,6.4-1.13,1.05-3.82,3.55-3.53,3.86Z"/>
  <path class="cls-21" d="M1539,979c.77,1.35-.77,4.12-3,5-2.49,.98-5.75-.45-6-2-.27-1.71,3.04-3.95,6-4,.58-.01,2.41-.04,3,1Z"/>
  <path class="cls-19" d="M905,995c43.11-.15,49.77-26.75,110-41,33.32-7.88,59.52-6.42,85-5,37.33,2.08,118.29,12.12,120,33,1.39,17.01-49.94,39.96-97,45-40.05,4.29-50.99-7.18-110-11-40.97-2.66-71.69,.54-105,4-87.63,9.11-111.82,26.08-149,9-24.91-11.44-48.32-34.81-44-48,5.95-18.17,64.91-18.28,108-10,48.58,9.33,49.86,24.11,82,24Z"/>
  <path class="cls-19" d="M72,931c7.75-13.16,34.79-9.02,48-5,23.31,7.09,47.77,27.24,44,40-3.56,12.05-31.17,13.73-44,13-9.39-.54-29.05-1.66-41-17-5.61-7.2-12.6-21.49-7-31Z"/>
  <path class="cls-19" d="M531,978c-3.46-5,16.02-27.79,41-41,8.74-4.62,30.64-14.67,35-9,4.31,5.6-8.57,26.46-26,37-8.41,5.09-16.76,7.09-33,11-10.51,2.53-15.78,3.75-17,2Z"/>
  <path class="cls-12" d="M588,938c-2.89-3.53-26.32,5.91-26,16,.09,2.9,2.15,6.23,5,7,8.69,2.35,23.98-19.36,21-23Z"/>
</svg>