<?xml version="1.0" encoding="UTF-8"?>
<svg id="Layer_2" data-name="Layer 2" xmlns="http://www.w3.org/2000/svg" xmlns:xlink="http://www.w3.org/1999/xlink" viewBox="0 0 694.74 272.73">
  <defs>
    <style>
      .cls-1 {
        fill: lime;
        stroke: lime;
        stroke-width: 11.79px;
      }

      .cls-1, .cls-2, .cls-3, .cls-4, .cls-5, .cls-6 {
        stroke-miterlimit: 10;
      }

      .cls-2, .cls-7, .cls-3 {
        fill: #fff;
      }

      .cls-2, .cls-3, .cls-5, .cls-6 {
        stroke: #000;
      }

      .cls-2, .cls-5 {
        stroke-width: 5.94px;
      }

      .cls-8 {
        letter-spacing: -.03em;
      }

      .cls-3, .cls-6 {
        stroke-width: 3.96px;
      }

      .cls-4 {
        fill: none;
        stroke: #39b54a;
        stroke-width: 27.74px;
      }

      .cls-5 {
        fill: url(#Sky);
      }

      .cls-6 {
        fill: url(#Sky-2);
      }

      .cls-9 {
        fill: #006837;
        font-family: AmaticSC-Regular, 'Amatic SC';
        font-size: 141.73px;
      }
    </style>
    <linearGradient id="Sky" x1="473.06" y1="116.87" x2="575.13" y2="116.87" gradientTransform="translate(0 0)" gradientUnits="userSpaceOnUse">
      <stop offset="0" stop-color="#cce0f4"/>
      <stop offset=".06" stop-color="#c2dcf2"/>
      <stop offset=".17" stop-color="#a9d2ee"/>
      <stop offset=".31" stop-color="#7fc2e7"/>
      <stop offset=".46" stop-color="#46abdd"/>
      <stop offset=".57" stop-color="#1e9cd7"/>
      <stop offset=".87" stop-color="#0075be"/>
      <stop offset=".99" stop-color="#005b97"/>
    </linearGradient>
    <linearGradient id="Sky-2" data-name="Sky" x1="533.13" y1="135.37" x2="569.09" y2="135.37" xlink:href="#Sky"/>
  </defs>
  <g id="Layer_12" data-name="Layer 12">
    <g id="start_botton">
      <g>
        <rect class="cls-1" x="33.26" y="12.86" width="636.95" height="246" rx="13.95" ry="13.95"/>
        <text class="cls-9" transform="translate(99.18 181.95) scale(1.41 1)"><tspan x="0" y="0">S</tspan><tspan class="cls-8" x="42.94" y="0">T</tspan><tspan x="83.9" y="0">ART</tspan></text>
        <rect class="cls-4" x="13.87" y="13.87" width="667" height="244.99" rx="25.13" ry="25.13"/>
        <g>
          <path class="cls-2" d="M465.99,158.4c-11.96-26.25-.98-71.39,29.04-89.75,20.81-12.72,48.51-11.2,68.19,8.27,22.24,22,27.05,59.83,15.36,82.94-20.69,40.9-94.46,38.38-112.6-1.46Z"/>
          <path class="cls-5" d="M574.65,141.3c-7.35,23.53-88.22,28.38-99.91-1.78-7.67-19.78,11.74-61.54,42.22-65.97,33.9-4.93,52.44,40.54,56.91,57.1,1.57,5.8,1.49,8.39,.79,10.65Z"/>
          <rect class="cls-3" x="446.18" y="121.93" width="10.25" height="21.29" rx="2.64" ry="2.64"/>
          <rect class="cls-3" x="589.19" y="121.93" width="10.25" height="21.29" rx="2.64" ry="2.64"/>
          <path class="cls-6" d="M569.1,120.79c0,16.11-16.09,29.14-35.96,29.14"/>
          <path d="M531.62,157.79c4.66,0,9.13-4.1,8.92-8.92s-3.92-8.92-8.92-8.92c-4.66,0-9.13,4.1-8.92,8.92s3.92,8.92,8.92,8.92h0Z"/>
          <g>
            <path class="cls-7" d="M554.38,78.94c1.96,.23,3.53,1.86,4.93,3.41,2.17,2.38,4.34,4.77,6.51,7.15"/>
            <path class="cls-7" d="M553.59,81.81c.29,.04,.56,.11,.84,.19,.39,.11-.15-.03-.23-.11,.08,.09,.28,.14,.39,.2,.23,.13,.45,.28,.67,.42,.44,.29-.37-.32-.1-.08,.09,.08,.19,.16,.28,.24,.94,.82,1.76,1.78,2.6,2.7,1.89,2.08,3.79,4.16,5.68,6.24,1.05,1.15,3.15,1.15,4.2,0,1.13-1.23,1.12-2.97,0-4.2-1.99-2.19-3.99-4.38-5.98-6.57-1.83-2.01-3.93-4.36-6.78-4.76-.83-.12-1.54-.14-2.29,.3-.62,.36-1.2,1.07-1.37,1.78-.17,.76-.14,1.61,.3,2.29,.39,.6,1.03,1.26,1.78,1.37h0Z"/>
          </g>
          <g>
            <path class="cls-7" d="M555.68,78.7c3.12,2.4,5.94,5.29,8.35,8.56"/>
            <path d="M554.63,79.75c1.55,1.2,3.02,2.5,4.39,3.9,.68,.7,1.34,1.42,1.98,2.16,.33,.38,.65,.77,.96,1.17,.06,.08,.13,.16,.19,.24,0,0,.23,.3,.16,.21-.08-.1,.14,.19,.16,.21,.09,.12,.18,.24,.27,.37,.46,.62,1.31,1,2.03,.53,.62-.4,1.03-1.37,.53-2.03-2.46-3.32-5.31-6.33-8.58-8.86-.61-.47-1.51-.64-2.1,0-.49,.53-.66,1.59,0,2.1h0Z"/>
          </g>
        </g>
      </g>
    </g>
  </g>
</svg>