<?xml version="1.0" encoding="UTF-8"?>
<svg id="Layer_2" data-name="Layer 2" xmlns="http://www.w3.org/2000/svg" xmlns:xlink="http://www.w3.org/1999/xlink" viewBox="0 0 769.5 312.6">
  <defs>
    <style>
      .cls-1 {
        fill: lime;
        stroke: lime;
        stroke-width: 11.79px;
      }

      .cls-1, .cls-2, .cls-3, .cls-4, .cls-5, .cls-6 {
        stroke-miterlimit: 10;
      }

      .cls-7 {
        letter-spacing: -.03em;
      }

      .cls-2 {
        fill: #009649;
        font-family: AmaticSC-Regular, 'Amatic SC';
        font-size: 164.8px;
        stroke: #007042;
        stroke-width: 8px;
      }

      .cls-3 {
        fill: #fff;
      }

      .cls-3, .cls-5, .cls-6 {
        stroke: #000;
      }

      .cls-3, .cls-6 {
        stroke-width: 2px;
      }

      .cls-4 {
        fill: none;
        stroke: #39b54a;
        stroke-width: 27.74px;
      }

      .cls-5 {
        fill: url(#Sky);
        stroke-width: 4px;
      }

      .cls-6 {
        fill: url(#Sky-2);
      }
    </style>
    <linearGradient id="Sky" x1="524.52" y1="137.52" x2="638.03" y2="137.52" gradientTransform="translate(0 0)" gradientUnits="userSpaceOnUse">
      <stop offset="0" stop-color="#cce0f4"/>
      <stop offset=".06" stop-color="#c2dcf2"/>
      <stop offset=".17" stop-color="#a9d2ee"/>
      <stop offset=".31" stop-color="#7fc2e7"/>
      <stop offset=".46" stop-color="#46abdd"/>
      <stop offset=".57" stop-color="#1e9cd7"/>
      <stop offset=".87" stop-color="#0075be"/>
      <stop offset=".99" stop-color="#005b97"/>
    </linearGradient>
    <linearGradient id="Sky-2" data-name="Sky" x1="591.33" y1="159.95" x2="631.32" y2="159.95" xlink:href="#Sky"/>
  </defs>
  <g id="Layer_1-2" data-name="Layer 1">
    <g>
      <rect class="cls-1" x="30.58" y="16.93" width="708.33" height="286.04" rx="13.95" ry="13.95"/>
      <text class="cls-2" transform="translate(107.36 211.17) scale(1.35 1)"><tspan x="0" y="0">S</tspan><tspan class="cls-7" x="49.93" y="0">T</tspan><tspan x="97.56" y="0">ART</tspan></text>
      <rect class="cls-4" x="13.87" y="13.87" width="741.76" height="284.87" rx="25.13" ry="25.13"/>
      <path class="cls-3" d="M516.66,181.93c-13.29-30.52-1.09-83.02,32.3-104.36,23.14-14.79,53.95-13.02,75.84,9.62,24.73,25.58,30.08,69.57,17.09,96.44-23.01,47.56-105.05,44.63-125.22-1.7Z"/>
      <path class="cls-5" d="M637.5,165.92c-8.18,27.36-98.11,33-111.11-2.06-8.53-23,13.05-71.56,46.95-76.71,37.7-5.73,58.31,47.14,63.28,66.39,1.74,6.75,1.66,9.75,.87,12.38Z"/>
      <path class="cls-3" d="M502.72,168h3.6c2.14,0,3.9-2.39,3.9-5.31v-21.6c0-2.92-1.75-5.31-3.9-5.31h-3.6c-.9,.48-1.82,1-2.75,1.56-2.61,1.57-4.99,3.26-7.12,4.97-.45,.6-3.29,4.46-3.12,10.49,.15,5.45,2.65,8.83,3.17,9.51,3.27,1.9,6.55,3.79,9.82,5.69Z"/>
      <path class="cls-6" d="M631.32,143.01c0,18.73-17.89,33.89-39.99,33.89"/>
      <path d="M589.65,181.4c2.35,0,4.61-2.07,4.5-4.5s-1.98-4.5-4.5-4.5c-2.35,0-4.61,2.07-4.5,4.5s1.98,4.5,4.5,4.5h0Z"/>
      <path d="M614.27,89.52c3.52,2.85,6.61,6.19,9.22,9.88,.28,.39,.93,.02,.65-.38-2.65-3.74-5.77-7.14-9.34-10.03-.37-.3-.91,.23-.53,.53h0Z"/>
      <path class="cls-3" d="M657.04,135.79h-3.6c-2.14,0-3.9,2.39-3.9,5.31v21.6c0,2.92,1.75,5.31,3.9,5.31h3.6c.9-.48,1.82-1,2.75-1.56,2.61-1.57,4.99-3.26,7.12-4.97,.45-.6,3.29-4.46,3.12-10.49-.15-5.45-2.65-8.83-3.17-9.51-3.27-1.9-6.55-3.79-9.82-5.69Z"/>
    </g>
  </g>
</svg>